<svg xmlns="http://www.w3.org/2000/svg" viewBox="0 0 64 64">
  <g data-type="brow">
    <path class="c-bottom"
      d="M23.58,16.7A20.59,20.59,0,0,0,18,17.84,17.8,17.8,0,0,0,15.44,19c-.83.45-1.63,1-2.53,1.57l-.07.05a1.17,1.17,0,0,1-1.61-.33,1.2,1.2,0,0,1-.13-1,8.9,8.9,0,0,1,5.49-5.2,9.15,9.15,0,0,1,7.53.46,1.15,1.15,0,0,1,.43,1.58,1.19,1.19,0,0,1-.9.58Z" />
    <path class="c-bottom"
      d="M41.72,10.15a20.51,20.51,0,0,0,5,2.75,19.94,19.94,0,0,0,2.68.72c.93.18,1.88.29,3,.41h.08a1.17,1.17,0,0,1,1,1.3,1.15,1.15,0,0,1-.56.86,8.89,8.89,0,0,1-7.53.45,9.16,9.16,0,0,1-5.48-5.19,1.16,1.16,0,0,1,1.75-1.35Z" />
  </g>
</svg>