<svg xmlns="http://www.w3.org/2000/svg" viewBox="0 0 64 64">
  <g data-z="3" data-type="brow" >
    <path class="c-bottom"
      d="M50.39,14.86a20.48,20.48,0,0,0-5.73.14,19.61,19.61,0,0,0-2.68.71c-.89.31-1.78.69-2.76,1.12l-.08,0a1.16,1.16,0,0,1-1.47-1.63A8.86,8.86,0,0,1,44,11.07a9.16,9.16,0,0,1,7.35,1.75,1.16,1.16,0,0,1-.84,2Z" />
    <path class="c-bottom"
      d="M24.78,23.83A20.29,20.29,0,0,0,19.34,22a19.39,19.39,0,0,0-2.76-.25c-.94,0-1.9.05-3,.11h-.09a1.16,1.16,0,0,1-1.23-1.09,1.18,1.18,0,0,1,.4-.95A8.9,8.9,0,0,1,20,18.07a9.13,9.13,0,0,1,6.29,4.16,1.15,1.15,0,0,1-1.48,1.63Z" />
  </g>
</svg>