<svg xmlns="http://www.w3.org/2000/svg" viewBox="0 0 64 64">

  <title>suprise brows</title>
  <g transform="translate(0,15)">
    <path class="cls-4 brow left"
      d="M23.58,16.7A20.59,20.59,0,0,0,18,17.84,17.8,17.8,0,0,0,15.44,19c-.83.45-1.63,1-2.53,1.57l-.07.05a1.17,1.17,0,0,1-1.61-.33,1.2,1.2,0,0,1-.13-1,8.9,8.9,0,0,1,5.49-5.2,9.15,9.15,0,0,1,7.53.46,1.15,1.15,0,0,1,.43,1.58,1.19,1.19,0,0,1-.9.58Z" />
    <path class="cls-4 brow right"
      d="M51.09,20.58a20.52,20.52,0,0,0-5-2.74,18.22,18.22,0,0,0-2.68-.72c-.92-.19-1.88-.29-2.95-.42h-.08a1.16,1.16,0,0,1-.46-2.15,8.89,8.89,0,0,1,7.53-.46,9.22,9.22,0,0,1,5.49,5.2,1.16,1.16,0,0,1-1.75,1.35Z" />
  </g>
</svg>