<svg xmlns="http://www.w3.org/2000/svg" xmlns:xlink="http://www.w3.org/1999/xlink"
  viewBox="0 0 64 64">
  <title>worry brows</title>
  <g transform="translate(0, 15)" data-z="3" data-type="brow" >
    <path class="cls-4 brow left"
      d="M13.62,17a20.38,20.38,0,0,0,5.63-1.13,21.07,21.07,0,0,0,2.51-1.17c.83-.46,1.63-1,2.52-1.58l.07,0a1.16,1.16,0,0,1,1.62.33,1.19,1.19,0,0,1,.12,1,8.87,8.87,0,0,1-5.48,5.19,9.19,9.19,0,0,1-7.53-.45A1.16,1.16,0,0,1,13.55,17Z" />
    <path class="cls-4 brow right"
      d="M39.72,13.15a20.51,20.51,0,0,0,5,2.75,19.94,19.94,0,0,0,2.68.72c.93.18,1.88.29,3,.41h.08a1.17,1.17,0,0,1,1,1.3,1.15,1.15,0,0,1-.56.86,8.89,8.89,0,0,1-7.53.45,9.16,9.16,0,0,1-5.48-5.19,1.16,1.16,0,0,1,1.75-1.35Z" />
  </g>
</svg>