<svg xmlns="http://www.w3.org/2000/svg" viewBox="0 0 64 64">
  <defs>
    <style>
      .cls-1,.cls-2{fill:#1a1a1a;}.cls-1{opacity:0;}.cls-3{fill:#a0f;}.cls-4{fill:#d769ff;}.cls-5{fill:#fff;}.cls-6{fill:#7900bf;}</style>
  </defs>
  <title>Angry face with horns</title>

  <g id="Rough">
    
    <!-- horns -->
    <path class="cls-3"
      d="M7.81,21.17C2.27,11.73,5,6.71,6.62,4.84a1,1,0,0,1,1.57,0C11.47,9.12,17,10.16,17,10.16Z" />
    <path class="cls-3"
      d="M56.19,21.17C61.73,11.73,59,6.71,57.38,4.84a1,1,0,0,0-1.57,0C52.53,9.12,47,10.16,47,10.16Z" />
    

    <!-- brows -->
    <path class="cls-6"
      d="M50.37,22.56c-1.18.22-2.31.45-3.43.75a33,33,0,0,0-3.29,1,31.44,31.44,0,0,0-6.1,3l-.3.19A1.66,1.66,0,0,1,35,27a1.56,1.56,0,0,1-.23-.57c-.11-.59-.18-1.2-.26-1.8s-.11-1.22-.11-1.85a1.17,1.17,0,0,1,1.17-1.16,1.23,1.23,0,0,1,1,.54c.33.53.61,1.08.88,1.62s.53,1.11.75,1.67l-2.81-.9a15.4,15.4,0,0,1,3.36-2.38,19.07,19.07,0,0,1,3.76-1.51,18.67,18.67,0,0,1,4-.66,13.37,13.37,0,0,1,4,.38,1.14,1.14,0,0,1-.08,2.23Z" />
    <path class="cls-6"
      d="M13.51,20.33a13.69,13.69,0,0,1,4-.37,18,18,0,0,1,4,.65,18.91,18.91,0,0,1,3.77,1.51,15.32,15.32,0,0,1,3.37,2.37l-2.83.9a21.36,21.36,0,0,1,1.64-3.28,1.18,1.18,0,0,1,1.61-.36,1.21,1.21,0,0,1,.54,1,20.91,20.91,0,0,1-.36,3.65,1.65,1.65,0,0,1-1.9,1.35,1.62,1.62,0,0,1-.59-.23l-.33-.21a31.3,31.3,0,0,0-2.95-1.64,31,31,0,0,0-3.14-1.32,39.13,39.13,0,0,0-6.73-1.77h0a1.14,1.14,0,0,1-.09-2.23Z" />

    <!-- mouth -->
    <path class="cls-2"
      d="M40.29,47.7a29.63,29.63,0,0,0-4.15-1.25A20,20,0,0,0,32,46a21.38,21.38,0,0,0-4.13.44,34,34,0,0,0-4.16,1.22l0,0a1.16,1.16,0,0,1-1.47-.7,1.18,1.18,0,0,1,.25-1.17A11.8,11.8,0,0,1,26.8,43a14.43,14.43,0,0,1,5.2-1,13.59,13.59,0,0,1,9.54,3.8,1.14,1.14,0,0,1-1.21,1.87Z" />
  </g>

</svg>