<svg xmlns="http://www.w3.org/2000/svg" viewBox="0 0 64 64">
  <defs>
    <style>
      .cls-disguise-red{fill:#fff;}
    </style>
  </defs>
  <title>clown nose</title>
  <g data-z="4" data-type="nose">
    <path class="cls-disguise-5"
      d="M19.82,44.8a11.13,11.13,0,0,0-1.53,3A2.39,2.39,0,0,0,20.6,50.9H43.4a2.39,2.39,0,0,0,2.31-3.06,11.13,11.13,0,0,0-1.53-3A24,24,0,0,1,32,47.9,24,24,0,0,1,19.82,44.8Z" />
    <path class="cls-disguise-6"
      d="M32,39A14.85,14.85,0,0,0,19.82,44.8,24,24,0,0,0,32,47.9a24,24,0,0,0,12.18-3.1A14.85,14.85,0,0,0,32,39Z" />
    
    <line class="cls-disguise-7" x1="59.5" y1="31.37" x2="44.5" y2="31.37" />
    <line class="cls-disguise-7" x1="19.5" y1="31.37" x2="4.5" y2="31.37" />
    
    <path class="cls-disguise-6"
      d="M37.52,23.28A26,26,0,0,1,35.44,15a1.53,1.53,0,0,1,1.14-1.54c4.3-1.11,12.76-2.64,18.81,3.75a1.54,1.54,0,0,1,.11,2l-3.41,4.45Z" />
    <path class="cls-disguise-6"
      d="M26.73,23.28A25.71,25.71,0,0,0,28.81,15a1.52,1.52,0,0,0-1.14-1.54c-4.3-1.11-12.76-2.64-18.81,3.75a1.54,1.54,0,0,0-.11,2l3.41,4.45Z" />
    <circle class="cls-disguise-8" cx="44.5" cy="31.37" r="10.42" />
    <path class="cls-disguise-9"
      d="M44.5,22.45a8.93,8.93,0,1,1-8.92,8.92,8.92,8.92,0,0,1,8.92-8.92m0-3A11.93,11.93,0,1,0,56.42,31.37,11.93,11.93,0,0,0,44.5,19.45Z" />
    <circle class="cls-disguise-8" cx="19.5" cy="31.37" r="10.42" />
    <path class="cls-disguise-9"
      d="M19.5,22.45a8.93,8.93,0,1,1-8.92,8.92,8.92,8.92,0,0,1,8.92-8.92m0-3A11.93,11.93,0,1,0,31.42,31.37,11.94,11.94,0,0,0,19.5,19.45Z" />
    <circle class="cls-disguise-2" cx="42.34" cy="31.37" r="4.52" />
    <circle class="cls-disguise-2" cx="21.66" cy="31.37" r="4.52" />
    <line class="cls-disguise-10" x1="34.5" y1="30.37" x2="29.5" y2="30.37" />
    <path class="cls-disguise-11"
      d="M32.13,32.21c-2.94,0-5.65,8.67-4,11.07,1.14,1.61,6.76,1.61,7.89,0C37.77,40.88,35.06,32.21,32.13,32.21Z" />
  </g>
</svg>