<svg xmlns="http://www.w3.org/2000/svg" viewBox="0 0 64 64">
  <g data-z="4" data-type="nose">
    <path class="cls-white"
      d="M53.25,40.39a5.52,5.52,0,0,0-7.64-1.63,6,6,0,0,0-1,.86l-2.82-3.11a1.36,1.36,0,0,0-1.69-.16l-.92.6a1.36,1.36,0,0,0-.54,1.61l1.82,4.2a5,5,0,0,0-1.24.57,5.16,5.16,0,0,0,5.1,9,5.76,5.76,0,0,0,8.73-5.62A5.51,5.51,0,0,0,53.25,40.39Z" />
    <path class="cls-tooth"
      d="M49.58,46.06a7.07,7.07,0,0,1-4.44,1.1A7.14,7.14,0,0,1,42.68,50,7,7,0,0,1,38.13,51a5.16,5.16,0,0,0,6.19,1.26,5.76,5.76,0,0,0,8.73-5.62,5.51,5.51,0,0,0,.2-6.28,5.09,5.09,0,0,0-.46-.58A7.1,7.1,0,0,1,49.58,46.06Z" />
    <path class="cls-white"
      d="M10.75,40.39a5.52,5.52,0,0,1,7.64-1.63,6,6,0,0,1,1,.86l2.82-3.11a1.36,1.36,0,0,1,1.69-.16l.92.6a1.36,1.36,0,0,1,.54,1.61l-1.82,4.2a5,5,0,0,1,1.24.57,5.16,5.16,0,0,1-5.1,9A5.76,5.76,0,0,1,11,46.67,5.51,5.51,0,0,1,10.75,40.39Z" />
    <path class="cls-tooth"
      d="M14.42,46.06a7.07,7.07,0,0,0,4.44,1.1A7.14,7.14,0,0,0,21.32,50,7,7,0,0,0,25.87,51a5.16,5.16,0,0,1-6.19,1.26A5.76,5.76,0,0,1,11,46.67a5.51,5.51,0,0,1-.2-6.28,5.09,5.09,0,0,1,.46-.58A7.1,7.1,0,0,0,14.42,46.06Z" />
  </g>
</svg>