<svg xmlns="http://www.w3.org/2000/svg" viewBox="0 0 64 64">
  <g data-z="4" data-type="nose">
    <path class="cls-skin"
      d="M29,31h0a2.51,2.51,0,0,0-2.91,2l.65-3.66a2.51,2.51,0,0,0-2-2.91h0a2.5,2.5,0,0,0-2.9,2l.16-.9A2.61,2.61,0,0,0,20.3,24.7,2.5,2.5,0,0,0,17,26.63l-.18,1a2.51,2.51,0,0,0-2.46-2.95,2.61,2.61,0,0,0-2.5,2.21l-2,11.32L8.06,34.83a2.43,2.43,0,0,0-2.33-1.34,2.36,2.36,0,0,0-2.1,2.84L6.16,48a7.6,7.6,0,0,0,6.12,5.88l5.47,1a7.6,7.6,0,0,0,8.05-3.95l.1-.19A43.86,43.86,0,0,0,30.27,38l.71-4A2.51,2.51,0,0,0,29,31Z" />
    <path class="cls-skin"
      d="M58.28,33.26a2.42,2.42,0,0,0-2.34,1.34l-1.3,2.47,1.26-9.7A2.5,2.5,0,0,0,51,26.54l.11-.9a2.7,2.7,0,0,0-1.89-2.91,2.51,2.51,0,0,0-3.06,2.12L44.33,38.61a.51.51,0,0,1-1,.14L38.26,27.13a2.6,2.6,0,0,0-2.92-1.55A2.5,2.5,0,0,0,33.62,29l1.49,3.4a2.5,2.5,0,0,0-3.53-1.17,2.71,2.71,0,0,0-1,3.32l3.17,7.2c.78,1.78,1.62,3.52,2.52,5.24l1.93,3.67a7.6,7.6,0,0,0,8,3.94l5.48-1a7.59,7.59,0,0,0,6.1-5.88l2.53-11.7A2.34,2.34,0,0,0,58.28,33.26Z" />
  </g>
</svg>