<svg xmlns="http://www.w3.org/2000/svg" viewBox="0 0 64 64">
  
  <g data-z="4" data-type="nose">
    <path class="cls-skin"
      d="M29.93,39.74,19.09,41.46l-1.35.21h-.06a1,1,0,0,1-1.12-1.12l.7-4.56A2.13,2.13,0,0,0,16,33.68a2,2,0,0,0-2.75,1.37l-2,7.65a15.31,15.31,0,0,0-.33,6.39l.3,2a5.88,5.88,0,0,0,4.91,4.88l1.81.28a23.1,23.1,0,0,0,7.14,0,2.35,2.35,0,0,0,2-2.63,2.27,2.27,0,0,0-.67-1.21,2.21,2.21,0,0,0,1.06-2.25,2.17,2.17,0,0,0-1.4-1.72,2.21,2.21,0,0,0-.8-3.58l5.45-.86a2.14,2.14,0,0,0,1.73-2.66A2.21,2.21,0,0,0,29.93,39.74Z" />
  </g>
</svg>