<svg xmlns="http://www.w3.org/2000/svg" viewBox="0 0 64 64">
  <g data-z="4" data-type="nose">
    <path class="cls-6"
      d="M59,45.49a4.08,4.08,0,0,0-3.79-2.44,4.79,4.79,0,0,0-3,.93c-.21.15-.44.29-.68.44-.17-.22-.33-.43-.48-.65a4.94,4.94,0,0,0-2.47-1.89,4.12,4.12,0,0,0-4.4,1,4.77,4.77,0,0,0-1.44,2.74,6.14,6.14,0,0,0,.14,2.3,12.08,12.08,0,0,0,1.47,3.42,27.82,27.82,0,0,0,3.15,4.17l.79.86a1.87,1.87,0,0,0,2.22.39l1-.54A26.68,26.68,0,0,0,56,53.38a11.94,11.94,0,0,0,2.55-2.71,6,6,0,0,0,.91-2.11A4.73,4.73,0,0,0,59,45.49Z" />
  </g>
</svg>