<svg xmlns="http://www.w3.org/2000/svg" viewBox="0 0 64 64">

  <g data-z="4" data-type="nose">
    <path class="cls-brown-7"
      d="M53.57,46.14l-16.5-2.65a3.89,3.89,0,0,1-3.25-4.31h0a3.89,3.89,0,0,1,4.33-3.41l16.59,2c2.32.28,3.6,2.37,3.32,4.7h0A3.9,3.9,0,0,1,53.57,46.14Z" />
    <path class="cls-brown-3"
      d="M37.07,43.49l16.5,2.65h0a3.81,3.81,0,0,1-2.71-2.42.81.81,0,0,0-.62-.53L33.93,40.68A3.89,3.89,0,0,0,37.07,43.49Z" />
    <ellipse class="cls-brown-9" cx="54.5" cy="41.95" rx="2.28" ry="1.94"
      transform="translate(6.08 90.79) rotate(-82.83)" />
    <path class="cls-brown-7"
      d="M44.27,37.43l5-3.58a1.24,1.24,0,0,1,1.19-.14l.58.23a.69.69,0,0,1,.34,1l-2,3.54Z" />
  </g>
</svg>