<svg xmlns="http://www.w3.org/2000/svg" viewBox="0 0 64 64">
  <g data-z="4" data-type="nose">
    <path class="cls-5"
      d="M32,37.34c-5.16,0-14.33,14.08-11.83,19.2.92,1.89,6.68-.44,6.68-.44s.67,5.39,5.15,5.39,5.15-5.39,5.15-5.39,5.76,2.33,6.68.44C46.33,51.42,37.16,37.34,32,37.34Z" />
    <path class="cls-tooth"
      d="M43.69,51.14c-.38,1.7-2,6.29-8-2.44a16.27,16.27,0,0,1,1.42,7.4s5.76,2.33,6.68.44C44.48,55.21,44.34,53.28,43.69,51.14Z" />
    <path class="cls-tooth"
      d="M28.27,48.7c-5.92,8.73-7.58,4.14-8,2.44-.65,2.14-.79,4.07-.14,5.4.92,1.89,6.68-.44,6.68-.44A16.27,16.27,0,0,1,28.27,48.7Z" />
    <path class="cls-tooth"
      d="M27.11,57.24c.47,1.58,1.73,4.25,4.89,4.25s4.42-2.67,4.89-4.25a6.88,6.88,0,0,1-9.78,0Z" />
  </g>
</svg>