<svg xmlns="http://www.w3.org/2000/svg" viewBox="0 0 64 64">
  <g data-z="0" data-type="base">
    <!-- fill="url(#varGradient)" -->
    <path fill="var(--c-top, #efdd3e)"
      d="M59.49,32h0v0a1.25,1.25,0,0,0-2.22-.8l-5.85,7.19-9.08-1-8.8-4.76a3,3,0,0,0-2.83,0l-9,4.77-9.08,1L6.74,31.18a1.26,1.26,0,0,0-2.23.8v0h0C4.36,42.25,5.72,53.67,16.36,57.65c4.95,1.86,10.38,1.89,15.64,1.84h0c10.25.15,21.67-1.21,25.65-11.85C59.51,42.69,59.54,37.26,59.49,32Z" />
    <path fill="var(--c-bottom, #e2c058)"
      d="M32,54A46.35,46.35,0,0,1,6,45.79C7.48,51,10.52,55.47,16.36,57.65c4.95,1.86,10.38,1.89,15.64,1.84h0c10.25.15,21.67-1.21,25.65-11.85.25-.66.46-1.34.65-2A46.44,46.44,0,0,1,32,54Z" />
  </g>
</svg>