<svg xmlns="http://www.w3.org/2000/svg" viewBox="0 0 64 64">
  <g data-z="0" data-type="base">
    <path class="c-bottom"
      d="M59.48,46.93c-.22,2.08-2.55,3.22-4.2,4-1.88.9-3.85,1.63-5.65,2.69a55.44,55.44,0,0,0-5,3.81,9.92,9.92,0,0,1-5.49,2c-4.46.25-8.85-1.65-13-3-2.09-.68-4.21-1.29-6.35-1.77s-4.19-.71-6.3-1a14.71,14.71,0,0,1-5.78-1.86c-1.57-1-3.17-2.6-3.24-4.57s1.57-3.64,3.1-4.8c1.69-1.3,3.37-2.6,5-4a17.48,17.48,0,0,1,4.92-3.12,15.29,15.29,0,0,1,5.59-.72,87.68,87.68,0,0,1,12.69,1.59,127.77,127.77,0,0,1,13.4,3A26.9,26.9,0,0,1,55.8,42C57.48,43,59.72,44.7,59.48,46.93Z" />
    <path class="c-top" fill="url(#varGradient)"
      d="M56.24,36.32h0c2.61-8.53,4.26-18.4-3.66-24.31C48.9,9.25,44.38,7.9,40,6.66h0C31.44,4,21.57,2.4,15.65,10.32c-2.75,3.69-4.1,8.21-5.34,12.62h0C7.69,31.47,6,41.34,14,47.26c3.69,2.75,8.22,4.1,12.62,5.34h0C35.11,55.22,45,56.87,50.9,49,53.66,45.26,55,40.73,56.24,36.32Z" />
    <path class="c-bottom"
      d="M27.93,48A40.44,40.44,0,0,1,8.15,34.82C8.16,39.57,9.61,44,14,47.26c3.69,2.75,8.22,4.1,12.62,5.34h0C35.11,55.22,45,56.87,50.9,49c.37-.5.71-1,1-1.54A40.38,40.38,0,0,1,27.93,48Z" />
  </g>
</svg>