<svg xmlns="http://www.w3.org/2000/svg" viewBox="0 0 64 64">
  <g data-z="0" data-type="base">
    <path class="cls-brown-8"
      d="M51,34.93a13.75,13.75,0,0,0,1.45-6.11c.06-4.2-4.86-8.53-12.81-11-4.9-1.51-6.52-5.56-7-8.43a2.27,2.27,0,0,0-3.37-1.56c-6.87,3.94-8.6,9.07-9,12.25a9.66,9.66,0,0,0-6.87,14.79A10.9,10.9,0,0,0,15.4,56.48H48.6A10.9,10.9,0,0,0,51,34.93Z" />
    <path class="cls-brown-3"
      d="M48.6,48.48H15.4A10.87,10.87,0,0,1,5.27,41.57,10.89,10.89,0,0,0,15.4,56.48H48.6a10.88,10.88,0,0,0,10.13-14.9A10.88,10.88,0,0,1,48.6,48.48Z" />
  </g>
</svg>