<svg xmlns="http://www.w3.org/2000/svg" viewBox="0 0 64 64">
  <title>squrcle face</title>
  <defs>
    <linearGradient id="varGradient"
      x1="0%" y1="0%" x2="0%" y2="100%"
      gradientUnits="userSpaceOnUse"
    >
      <stop offset="0%" stop-color="var(--c-top, gold)" />
      <stop offset="10%" stop-color="var(--c-top, gold)" />
      <stop offset="88%" stop-color="var(--c-bottom, goldenrod)" />
      <stop offset="100%" stop-color="var(--c-bottom, goldenrod)" />
    </linearGradient>
  </defs>
  <g>
    <path fill="url(#varGradient)"
      d="M59.49,32h0c.15-10.25-1.21-21.67-11.85-25.65C42.69,4.49,37.26,4.46,32,4.51h0C21.75,4.36,10.33,5.72,6.35,16.36,4.49,21.31,4.46,26.74,4.51,32h0C4.36,42.25,5.72,53.67,16.36,57.65c4.95,1.86,10.38,1.89,15.64,1.84h0c10.25.15,21.67-1.21,25.65-11.85C59.51,42.69,59.54,37.26,59.49,32Z" />
    <path class="cls-4" fill="var(--c-bottom)"
      d="M32,54A46.35,46.35,0,0,1,6,45.79C7.48,51,10.52,55.47,16.36,57.65c4.95,1.86,10.38,1.89,15.64,1.84h0c10.25.15,21.67-1.21,25.65-11.85.25-.66.46-1.34.65-2A46.44,46.44,0,0,1,32,54Z" />
  </g>
</svg>