<svg xmlns="http://www.w3.org/2000/svg" viewBox="0 0 64 64">
  <g data-z="0" data-type="base">
    <!-- <path fill="url(#varGradient)" -->
    <path fill="var(--c-top, #efdd3e)"
      d="M58.41,30.92h0C58.55,21.07,57.25,10.1,47,6.28c-4.76-1.79-10-1.81-15-1.77h0C22.15,4.37,11.18,5.67,7.36,15.89c-1.78,4.76-1.81,10-1.77,15h0C5.45,40.76,6.75,51.73,17,55.56c4.76,1.78,10,1.81,15,1.76h0c9.85.14,20.82-1.16,24.64-11.38C58.42,41.18,58.45,36,58.41,30.92Z" />
    <path 
      fill="var(--c-bottom, #e2c058)"
      d="M32,42.61A38.77,38.77,0,0,1,5.59,32.7C5.64,42.05,7.36,52,17,55.56c4.76,1.78,10,1.81,15,1.76h0c9.85.14,20.82-1.16,24.64-11.38,1.57-4.2,1.78-8.75,1.78-13.24A38.8,38.8,0,0,1,32,42.61Z" />
  </g>
</svg>