<svg xmlns="http://www.w3.org/2000/svg" viewBox="0 0 64 64"><defs><style>.cls-1,.cls-2{fill:#1a1a1a;}.cls-1{opacity:0;}.cls-3{fill:#fec92b;}.cls-4{fill:#fdaf18;}.cls-5{fill:#a72d3e;}</style></defs><title>Face with spiral eyes</title><g id="Layer_2" data-name="Layer 2"><g id="Rough"><rect class="cls-1" width="64" height="64"/><path class="cls-2" d="M49.05,2.6C44.11.75,38.89.5,34,.5H30.63C20.92.5,7.45,2,2.6,15c-2,5.42-2.14,10.94-2.09,17C.42,38.48.16,55.86,15,61.4c4.94,1.85,10.16,2.1,15.06,2.1h3.36c9.71,0,23.18-1.5,28-14.45,2-5.42,2.14-10.94,2.09-17C63.58,25.52,63.84,8.14,49.05,2.6Z"/><path class="cls-3" d="M59.49,32h0c.15-10.25-1.21-21.67-11.85-25.65C42.69,4.49,37.26,4.46,32,4.51h0C21.75,4.36,10.33,5.72,6.35,16.36,4.49,21.31,4.46,26.74,4.51,32h0C4.36,42.25,5.72,53.67,16.36,57.65c4.95,1.86,10.38,1.89,15.64,1.84h0c10.25.15,21.67-1.21,25.65-11.85C59.51,42.69,59.54,37.26,59.49,32Z"/><path class="cls-4" d="M32,54A46.35,46.35,0,0,1,6,45.79C7.48,51,10.52,55.47,16.36,57.65c4.95,1.86,10.38,1.89,15.64,1.84h0c10.25.15,21.67-1.21,25.65-11.85.25-.66.46-1.34.65-2A46.44,46.44,0,0,1,32,54Z"/><ellipse class="cls-4" cx="51" cy="39.49" rx="5.56" ry="3.55"/><ellipse class="cls-4" cx="13" cy="39.49" rx="5.56" ry="3.55"/><path class="cls-2" d="M46.37,47l-2.58-2.57h2.13l-4,4.53a1.75,1.75,0,0,1-2.47.14l0,0-.1-.1-4.38-4.2h2.79l-4.27,4.3a2,2,0,1,1-2.84-2.81h0L34.89,42l0,0a1.93,1.93,0,0,1,2.73,0l0,0,4.2,4.37H39.27l4.52-4,.07-.06a1.5,1.5,0,0,1,2.06.06l2.58,2.57A1.51,1.51,0,1,1,46.37,47Z"/><path class="cls-2" d="M15.5,44.87l2.58-2.57a1.49,1.49,0,0,1,2.06-.06l.07.06,4.52,4H22.12L26.32,42a1.93,1.93,0,0,1,2.73-.06l0,0,0,0,4.3,4.27a2,2,0,1,1-2.81,2.84v0l-4.27-4.3h2.79L24.73,49l-.1.1A1.75,1.75,0,0,1,22.16,49l0,0-4-4.53h2.13L17.63,47a1.51,1.51,0,1,1-2.13-2.13Z"/><ellipse class="cls-4" cx="19.34" cy="15.76" rx="4.66" ry="2.79" transform="translate(-1.3 1.75) rotate(-5)"/><ellipse class="cls-4" cx="44.66" cy="15.76" rx="2.79" ry="4.66" transform="translate(25.07 58.87) rotate(-85)"/><path class="cls-5" d="M53.79,28.76a9.46,9.46,0,0,1-3.38,7.42,9.62,9.62,0,0,1-3.79,1.9,9.82,9.82,0,0,1-4.21.12,8.59,8.59,0,0,1-3.95-1.81A8.07,8.07,0,0,1,36,32.75a9.81,9.81,0,0,1-.47-4.26,8,8,0,0,1,1.73-4.07,7.89,7.89,0,0,1,8.1-2.69A6.7,6.7,0,0,1,49,24.43a6.63,6.63,0,0,1,1,4.46,5.53,5.53,0,0,1-4.81,4.75A7.11,7.11,0,0,1,43,33.53a4.44,4.44,0,0,1-1.23-.46,3.15,3.15,0,0,1-1.1-1,3.34,3.34,0,0,1-.49-1.32,3.67,3.67,0,0,1-.06-.74,4.63,4.63,0,0,1,.1-.65,3.45,3.45,0,0,1,1.56-2.26,4,4,0,0,1,2.51-.47A1.19,1.19,0,0,1,44.13,29h0a1.69,1.69,0,0,0-1,.19,1,1,0,0,0-.39.69c0,.08,0,.18,0,.25s0,.12,0,.18a.81.81,0,0,0,.15.37c.09.13.27.24.7.32a5.34,5.34,0,0,0,1.38,0,2.85,2.85,0,0,0,1.14-.44,2.79,2.79,0,0,0,1.24-2A3.85,3.85,0,0,0,46.64,26a3.9,3.9,0,0,0-2.1-1.51,3.58,3.58,0,0,0-1.32-.12,4.34,4.34,0,0,0-1.38.27,5,5,0,0,0-3.35,4.17,7.34,7.34,0,0,0,0,1.48,6.21,6.21,0,0,0,.31,1.46A5.22,5.22,0,0,0,43,35.35a7,7,0,0,0,8.47-6.59,1.19,1.19,0,0,1,2.37,0Z"/><path class="cls-5" d="M10.21,31.5a9.44,9.44,0,0,1,3.38-7.42,9.77,9.77,0,0,1,3.79-1.91,10,10,0,0,1,4.21-.11,8.49,8.49,0,0,1,3.95,1.81A8.07,8.07,0,0,1,28,27.51a9.81,9.81,0,0,1,.47,4.26,8,8,0,0,1-1.73,4.07,7.89,7.89,0,0,1-8.1,2.69A6.7,6.7,0,0,1,15,35.83a6.63,6.63,0,0,1-1-4.46,5.55,5.55,0,0,1,2.55-3.95,5.43,5.43,0,0,1,2.26-.8,7.11,7.11,0,0,1,2.26.11,4.44,4.44,0,0,1,1.23.46,3.15,3.15,0,0,1,1.1,1,3.34,3.34,0,0,1,.49,1.32,3.67,3.67,0,0,1,.06.74,4.63,4.63,0,0,1-.1.65,3.45,3.45,0,0,1-1.56,2.26,4,4,0,0,1-2.51.47,1.19,1.19,0,0,1,.17-2.37h0a1.69,1.69,0,0,0,1-.19,1,1,0,0,0,.39-.69l0-.26c0,.05,0-.11,0-.17a.81.81,0,0,0-.15-.37c-.09-.13-.27-.24-.7-.32a4.93,4.93,0,0,0-1.38,0,3,3,0,0,0-1.14.43,2.83,2.83,0,0,0-1.24,2,3.8,3.8,0,0,0,2.76,4,3.38,3.38,0,0,0,1.32.13,4.63,4.63,0,0,0,1.38-.27A5.18,5.18,0,0,0,24.44,34a5.07,5.07,0,0,0,1.07-2.56,7.34,7.34,0,0,0,0-1.48,6.21,6.21,0,0,0-.31-1.46,5.2,5.2,0,0,0-4.14-3.56,7,7,0,0,0-8.47,6.59,1.19,1.19,0,0,1-2.37,0Z"/></g></g></svg>