<svg xmlns="http://www.w3.org/2000/svg" viewBox="0 0 64 64"><defs><style>.cls-1,.cls-2{fill:#1a1a1a;}.cls-1{opacity:0;}.cls-3{fill:#fec92b;}.cls-4{fill:#fdaf18;}.cls-5{fill:#39b54a;}.cls-6{fill:#008751;}.cls-7{fill:#fff;}.cls-8{fill:#65d666;}</style></defs><title>Face vomiting</title><g id="Layer_2" data-name="Layer 2"><g id="Rough"><rect class="cls-1" width="64" height="64"/><path class="cls-2" d="M49.05,2.6C44.11.75,38.89.5,34,.5H30.63C20.92.5,7.45,2,2.6,15c-2,5.42-2.14,10.94-2.09,17-.1,7.28.48,16,5.12,22.39a4.56,4.56,0,0,0-1,2.91c0,5.07,6.56,5.65,10.49,6s9.4.51,16.87.51,13-.16,16.87-.51,10.49-.92,10.49-6a4.52,4.52,0,0,0-.93-2.82,20.73,20.73,0,0,0,3-5.37c2-5.42,2.14-10.94,2.09-17C63.58,25.52,63.84,8.14,49.05,2.6Z"/><path class="cls-3" d="M59.49,32h0c.15-10.25-1.21-21.67-11.85-25.65C42.69,4.49,37.26,4.46,32,4.51h0C21.75,4.36,10.33,5.72,6.35,16.36,4.49,21.31,4.46,26.74,4.51,32h0C4.36,42.25,5.72,53.67,16.36,57.65c4.95,1.86,10.38,1.89,15.64,1.84h0c10.25.15,21.67-1.21,25.65-11.85C59.51,42.69,59.54,37.26,59.49,32Z"/><path class="cls-4" d="M32,54A46.35,46.35,0,0,1,6,45.79C7.48,51,10.52,55.47,16.36,57.65c4.95,1.86,10.38,1.89,15.64,1.84h0c10.25.15,21.67-1.21,25.65-11.85.25-.66.46-1.34.65-2A46.44,46.44,0,0,1,32,54Z"/><ellipse class="cls-4" cx="51" cy="35.49" rx="5.56" ry="3.55"/><ellipse class="cls-4" cx="13" cy="35.49" rx="5.56" ry="3.55"/><path class="cls-4" d="M13.62,17a20.38,20.38,0,0,0,5.63-1.13,21.07,21.07,0,0,0,2.51-1.17c.83-.46,1.63-1,2.52-1.58l.07,0a1.16,1.16,0,0,1,1.62.33,1.19,1.19,0,0,1,.12,1,8.87,8.87,0,0,1-5.48,5.19,9.19,9.19,0,0,1-7.53-.45A1.16,1.16,0,0,1,13.55,17Z"/><path class="cls-4" d="M39.72,13.15a20.51,20.51,0,0,0,5,2.75,19.94,19.94,0,0,0,2.68.72c.93.18,1.88.29,3,.41h.08a1.17,1.17,0,0,1,1,1.3,1.15,1.15,0,0,1-.56.86,8.89,8.89,0,0,1-7.53.45,9.16,9.16,0,0,1-5.48-5.19,1.16,1.16,0,0,1,1.75-1.35Z"/><path class="cls-2" d="M48.85,34.26a13.48,13.48,0,0,0-2.25-1.12,15,15,0,0,0-2.47-.77A15.76,15.76,0,0,0,41.59,32,18.1,18.1,0,0,0,39,32h-.12A2,2,0,0,1,37,30a1.92,1.92,0,0,1,.39-1.15,6.21,6.21,0,0,1,.69-.81c.22-.24.45-.44.68-.66a13.64,13.64,0,0,1,4.71-2.68,14,14,0,0,1,3.48-.64,16.5,16.5,0,0,1,3.45.16,1.36,1.36,0,0,1-.2,2.7h-.09a14,14,0,0,0-2.83.16,10.49,10.49,0,0,0-2.63.76,9.9,9.9,0,0,0-2.27,1.4,10.17,10.17,0,0,0-1,.9,6.26,6.26,0,0,0-.41.49,3.78,3.78,0,0,0-.29.41L39,28h0a21.36,21.36,0,0,1,3.09.37,20.2,20.2,0,0,1,3,.82,19,19,0,0,1,2.81,1.24,16.44,16.44,0,0,1,2.64,1.74A1.36,1.36,0,0,1,49,34.32Z"/><path class="cls-2" d="M13.46,32.13a16.44,16.44,0,0,1,2.64-1.74,19,19,0,0,1,2.81-1.24,20.2,20.2,0,0,1,3-.82A21.36,21.36,0,0,1,25,28h0L23.3,31.05a3.78,3.78,0,0,0-.29-.41,6.26,6.26,0,0,0-.41-.49,10.17,10.17,0,0,0-1-.9,9.9,9.9,0,0,0-2.27-1.4,10.49,10.49,0,0,0-2.63-.76,14,14,0,0,0-2.83-.16h-.08a1.36,1.36,0,0,1-.21-2.7,16.5,16.5,0,0,1,3.45-.16,14,14,0,0,1,3.48.64,13.64,13.64,0,0,1,4.71,2.68c.23.22.46.42.68.66a6.21,6.21,0,0,1,.69.81A1.95,1.95,0,0,1,25.09,32H25a18.1,18.1,0,0,0-2.55,0,15.76,15.76,0,0,0-2.54.39,15,15,0,0,0-2.47.77,13.48,13.48,0,0,0-2.25,1.12l-.1.06a1.36,1.36,0,0,1-1.59-2.19Z"/><path class="cls-2" d="M42.18,39.73A32.21,32.21,0,0,1,32,41.32a32.21,32.21,0,0,1-10.18-1.59,8.91,8.91,0,0,0-3.54,6.84c0,5.65,6.14,7,13.72,7s13.72-1.35,13.72-7A8.91,8.91,0,0,0,42.18,39.73Z"/><path class="cls-5" d="M55.36,57.24c0,2-10.46,2.5-23.36,2.5s-23.36-.48-23.36-2.5S19.1,53.57,32,53.57,55.36,55.21,55.36,57.24Z"/><path class="cls-5" d="M43.7,54.08c0,6.31-5.24,4.65-11.7,4.65s-11.7,1.66-11.7-4.65C20.3,45,25.54,39.49,32,39.49S43.7,45,43.7,54.08Z"/><path class="cls-6" d="M32,45.62c4.71,0,8.87,1.63,11.34,4.56C42.06,43.43,37.48,39.49,32,39.49S21.94,43.43,20.66,50.18C23.13,47.25,27.29,45.62,32,45.62Z"/><path class="cls-5" d="M23.16,53.19c-7.65-3.26-12-4-12.44-2.92s3.32,3.1,11,6.36l.08,0,1.46-3.44Z"/><path class="cls-5" d="M49.11,52.38c-.42-1.15-7,.21-14.83,3l1.28,3.51C43.34,56.1,49.53,53.53,49.11,52.38Z"/><path class="cls-5" d="M53.75,43.26c.75.73.55,2.16-.46,3.19s-3.6,2.49-4.36,1.76.63-3.38,1.63-4.41S53,42.52,53.75,43.26Z"/><path class="cls-7" d="M42.18,39.73A16,16,0,0,0,32,36.34a16,16,0,0,0-10.18,3.39A32.21,32.21,0,0,0,32,41.32,32.21,32.21,0,0,0,42.18,39.73Z"/><path class="cls-8" d="M21.82,56.53c0,.79-1.19,1.06-2.67,1.06s-2.67-.27-2.67-1.06,1.19-1.43,2.67-1.43S21.82,55.74,21.82,56.53Z"/><path class="cls-8" d="M44.63,56.56c0,.57.71.77,1.79.77s2.1-.17,2.11-.74-1-1-2.09-1S44.64,56,44.63,56.56Z"/></g></g></svg>