<svg xmlns="http://www.w3.org/2000/svg" xmlns:xlink="http://www.w3.org/1999/xlink" viewBox="0 0 64 64"><defs><style>.cls-1,.cls-2{fill:#1a1a1a;}.cls-1{opacity:0;}.cls-3{fill:url(#linear-gradient);}.cls-4{fill:#fdaf18;}.cls-5{fill:#e62e49;}.cls-6{fill:#fff;}.cls-7{fill:#c62d43;}.cls-8{fill:#ff608a;}.cls-9{fill:#ee4572;}.cls-10{fill:#1778ff;}.cls-11{fill:#37b9ff;}</style><linearGradient id="linear-gradient" x1="32" y1="59.5" x2="32" y2="4.5" gradientUnits="userSpaceOnUse"><stop offset="0" stop-color="#fec92b"/><stop offset="0.1" stop-color="#fec92b"/><stop offset="1" stop-color="#e62e49"/></linearGradient></defs><title>Hot face</title><g id="Layer_2" data-name="Layer 2"><g id="Rough"><rect class="cls-1" width="64" height="64"/><path class="cls-2" d="M49.05,2.6C44.11.75,38.89.5,34,.5H30.63C20.92.5,7.45,2,2.6,15c-2,5.42-2.14,10.94-2.09,17C.42,38.48.16,55.86,15,61.4c4.94,1.85,10.16,2.1,15.06,2.1h3.36c9.71,0,23.18-1.5,28-14.45,2-5.42,2.14-10.94,2.09-17C63.58,25.52,63.84,8.14,49.05,2.6Z"/><path class="cls-3" d="M59.49,32h0c.15-10.25-1.21-21.67-11.85-25.65C42.69,4.49,37.26,4.46,32,4.51h0C21.75,4.36,10.33,5.72,6.35,16.36,4.49,21.31,4.46,26.74,4.51,32h0C4.36,42.25,5.72,53.67,16.36,57.65c4.95,1.86,10.38,1.89,15.64,1.84h0c10.25.15,21.67-1.21,25.65-11.85C59.51,42.69,59.54,37.26,59.49,32Z"/><path class="cls-4" d="M32,54A46.35,46.35,0,0,1,6,45.79C7.48,51,10.52,55.47,16.36,57.65c4.95,1.86,10.38,1.89,15.64,1.84h0c10.25.15,21.67-1.21,25.65-11.85.25-.66.46-1.34.65-2A46.44,46.44,0,0,1,32,54Z"/><ellipse class="cls-5" cx="51" cy="39.49" rx="5.56" ry="3.55"/><ellipse class="cls-5" cx="13" cy="39.49" rx="5.56" ry="3.55"/><circle class="cls-6" cx="44.5" cy="31.37" r="7.78"/><circle class="cls-6" cx="19.5" cy="31.37" r="7.78"/><circle class="cls-2" cx="42.34" cy="31.37" r="4.52"/><circle class="cls-2" cx="21.66" cy="31.37" r="4.52"/><path class="cls-7" d="M13.62,17a20.38,20.38,0,0,0,5.63-1.13,21.07,21.07,0,0,0,2.51-1.17c.83-.46,1.63-1,2.52-1.58l.07,0a1.16,1.16,0,0,1,1.62.33,1.19,1.19,0,0,1,.12,1,8.87,8.87,0,0,1-5.48,5.19,9.19,9.19,0,0,1-7.53-.45A1.16,1.16,0,0,1,13.55,17Z"/><path class="cls-7" d="M39.72,13.15a20.51,20.51,0,0,0,5,2.75,19.94,19.94,0,0,0,2.68.72c.93.18,1.88.29,3,.41h.08a1.17,1.17,0,0,1,1,1.3,1.15,1.15,0,0,1-.56.86,8.89,8.89,0,0,1-7.53.45,9.16,9.16,0,0,1-5.48-5.19,1.16,1.16,0,0,1,1.75-1.35Z"/><path class="cls-2" d="M37.76,49c-1.29.09-2.27.1-3.2.15L32,49.24c-.83,0-1.64,0-2.55,0s-1.89-.06-3.21-.2L25.67,49a2.84,2.84,0,0,1-2.53-3.12,3,3,0,0,1,.29-1,8,8,0,0,1,3.62-3.47A10.63,10.63,0,0,1,32,40.28a11.11,11.11,0,0,1,4.93,1.18,8.53,8.53,0,0,1,3.64,3.42,2.8,2.8,0,0,1-1.14,3.79,2.87,2.87,0,0,1-1.11.32Z"/><path class="cls-8" d="M38.47,46.3c0-.84-2.89-2.53-6.46-2.53s-6.45,1.69-6.45,2.53h0v1.25a6.46,6.46,0,0,0,12.91,0V46.3Z"/><path class="cls-9" d="M32,51.92a6.66,6.66,0,0,1-6.45-4.76v.39a6.46,6.46,0,0,0,12.91,0v-.39A6.66,6.66,0,0,1,32,51.92Z"/><path class="cls-9" d="M32,43.77c-.36,0-.72,0-1.07,0,.24,2.26.63,3.73,1.07,3.73s.84-1.47,1.08-3.73C32.74,43.79,32.38,43.77,32,43.77Z"/><path class="cls-10" d="M57.52,17.29a5.25,5.25,0,1,1-10.49,0c0-2.89,2.35-9.61,5.25-9.61S57.52,14.4,57.52,17.29Z"/><path class="cls-11" d="M56.38,12.33c-1-2.43-2.44-4.65-4.1-4.65s-3.15,2.22-4.11,4.65A8,8,0,0,0,48,13.75a4.27,4.27,0,0,0,8.53,0A8,8,0,0,0,56.38,12.33Z"/><path class="cls-10" d="M14.94,49.52a4.5,4.5,0,1,1-9,0c0-2.48,2-8.24,4.5-8.24S14.94,47,14.94,49.52Z"/><path class="cls-11" d="M14,45.27c-.82-2.09-2.09-4-3.51-4s-2.7,1.9-3.52,4a6.51,6.51,0,0,0-.14,1.21,3.66,3.66,0,1,0,7.31,0A6.51,6.51,0,0,0,14,45.27Z"/></g></g></svg>