<svg xmlns="http://www.w3.org/2000/svg" viewBox="0 0 64 64"><defs><style>.cls-1,.cls-2{fill:#1a1a1a;}.cls-1{opacity:0;}.cls-3{fill:#fec92b;}.cls-4{fill:#fdaf18;}.cls-5{fill:#fed83f;}</style></defs><title>Hugging face</title><g id="Layer_2" data-name="Layer 2"><g id="Rough"><rect class="cls-1" width="64" height="64"/><path class="cls-2" d="M62.8,49.74l-.12-.21a5.53,5.53,0,0,0-.84-4.82,5.23,5.23,0,0,0-.48-.56,53.61,53.61,0,0,0,1-13.18c.09-6.31.33-23.08-14-28.44C43.66.75,38.63.5,33.9.5H30.68C21.31.5,8.3,2,3.61,14.49,1.66,19.72,1.54,25,1.59,30.86A52.55,52.55,0,0,0,2.78,44a7,7,0,0,0-.62.71,5.53,5.53,0,0,0-.84,4.82l-.12.21A5.54,5.54,0,0,0,3.49,57.3L10.58,61a23.33,23.33,0,0,0,6.25,2.33,6.44,6.44,0,0,0,1.45.16,6.84,6.84,0,0,0,5.23-2.45,67.27,67.27,0,0,0,6.74.28h3A60.14,60.14,0,0,0,40.41,61a6.85,6.85,0,0,0,5.31,2.55,6.44,6.44,0,0,0,1.45-.16,23.32,23.32,0,0,0,6.2-2.3l7.14-3.74a5.54,5.54,0,0,0,2.29-7.56Z"/><path class="cls-3" d="M58.41,30.92h0C58.55,21.07,57.25,10.1,47,6.28c-4.76-1.79-10-1.81-15-1.77h0C22.15,4.37,11.18,5.67,7.36,15.89c-1.78,4.76-1.81,10-1.77,15h0C5.45,40.76,6.75,51.73,17,55.56c4.76,1.78,10,1.81,15,1.76h0c9.85.14,20.82-1.16,24.64-11.38C58.42,41.18,58.45,36,58.41,30.92Z"/><ellipse class="cls-4" cx="50.25" cy="30.43" rx="5.34" ry="3.41"/><ellipse class="cls-4" cx="13.75" cy="30.43" rx="5.34" ry="3.41"/><path class="cls-2" d="M26.2,27.18A6.25,6.25,0,0,0,21,24.09a6.24,6.24,0,0,0-5.24,3.09l0,.06a.85.85,0,0,1-1.19.24.84.84,0,0,1-.38-.63A6,6,0,0,1,16,22.13a7.15,7.15,0,0,1,10,0,5.93,5.93,0,0,1,1.86,4.72.86.86,0,0,1-1.57.4Z"/><path class="cls-2" d="M48.29,27.18a6,6,0,0,0-10.49,0l0,.06a.85.85,0,0,1-1.19.24.84.84,0,0,1-.38-.63,5.93,5.93,0,0,1,1.86-4.72,7.15,7.15,0,0,1,10,0,6,6,0,0,1,1.85,4.72.85.85,0,0,1-.94.77.86.86,0,0,1-.63-.37Z"/><ellipse class="cls-4" cx="19.84" cy="12.43" rx="4.48" ry="2.68" transform="translate(-1.01 1.78) rotate(-5)"/><ellipse class="cls-4" cx="44.16" cy="12.43" rx="2.68" ry="4.48" transform="translate(27.93 55.34) rotate(-85)"/><path class="cls-2" d="M24.06,33.88a28.86,28.86,0,0,0,4,1.17,19.51,19.51,0,0,0,3.95.38A20.38,20.38,0,0,0,36,35a33.18,33.18,0,0,0,4-1.14h0a1.14,1.14,0,0,1,1.21,1.86A11.25,11.25,0,0,1,37,38.5a13.37,13.37,0,0,1-5,.92,12.89,12.89,0,0,1-9.19-3.69A1.14,1.14,0,0,1,24,33.86Z"/><path class="cls-4" d="M32,42.61A38.77,38.77,0,0,1,5.59,32.7C5.64,42.05,7.36,52,17,55.56c4.76,1.78,10,1.81,15,1.76h0c9.85.14,20.82-1.16,24.64-11.38,1.57-4.2,1.78-8.75,1.78-13.24A38.8,38.8,0,0,1,32,42.61Z"/><path class="cls-5" d="M59.29,51.66a1.56,1.56,0,0,0-2.11-.6l-4,2.07,5.05-3.88a1.57,1.57,0,0,0,.34-2.16,1.53,1.53,0,0,0-2.17-.31l-4.7,3.61,4.53-5a1.58,1.58,0,0,0-.06-2.19,1.54,1.54,0,0,0-2.2.09l-4.37,4.86,2.58-4.21a1.57,1.57,0,0,0-.46-2.14,1.53,1.53,0,0,0-2.14.49l-1.88,3.07a9.19,9.19,0,0,1-2.38,2.59h0a.68.68,0,0,1-1.06-.36h0a.69.69,0,0,1,0-.32l.56-2.84a1.57,1.57,0,0,0-1.17-1.85,1.53,1.53,0,0,0-1.84,1.2l-1.48,7.57c-.09.29-.17.59-.24.89a2.86,2.86,0,0,0,.48,2.25l2.86,3.9a2.8,2.8,0,0,0,2.86,1.09,19.7,19.7,0,0,0,5.19-1.94l7.15-3.74A1.53,1.53,0,0,0,59.29,51.66Z"/><path class="cls-5" d="M4.71,51.66a1.56,1.56,0,0,1,2.11-.6l3.95,2.07-5-3.88a1.57,1.57,0,0,1-.34-2.16,1.53,1.53,0,0,1,2.17-.31l4.7,3.61-4.53-5a1.58,1.58,0,0,1,.06-2.19,1.54,1.54,0,0,1,2.2.09l4.37,4.86L11.77,43.9a1.57,1.57,0,0,1,.46-2.14,1.53,1.53,0,0,1,2.14.49l1.88,3.07a9.19,9.19,0,0,0,2.38,2.59h0a.68.68,0,0,0,1.06-.36h0a.69.69,0,0,0,0-.32l-.56-2.84a1.57,1.57,0,0,1,1.17-1.85,1.53,1.53,0,0,1,1.84,1.2l1.48,7.57c.09.29.17.59.24.89a2.86,2.86,0,0,1-.48,2.25l-2.86,3.9a2.8,2.8,0,0,1-2.86,1.09,19.7,19.7,0,0,1-5.19-1.94L5.34,53.76A1.53,1.53,0,0,1,4.71,51.66Z"/></g></g></svg>