<svg xmlns="http://www.w3.org/2000/svg" viewBox="0 0 64 64"><defs><style>.cls-1,.cls-2{fill:#1a1a1a;}.cls-1{opacity:0;}.cls-3{fill:#fec92b;}.cls-4{fill:#fdaf18;}.cls-5{fill:#fff;}.cls-6{fill:#c62d43;}.cls-7{fill:#bb5938;}.cls-8{fill:#9c3d29;}.cls-9{fill:#de9c5a;}</style></defs><title>Lying face</title><g id="Layer_2" data-name="Layer 2"><g id="Rough"><rect class="cls-1" width="64" height="64"/><path class="cls-2" d="M49.05,2.6C44.11.75,38.89.5,34,.5H30.63C20.92.5,7.45,2,2.6,15c-2,5.42-2.14,10.94-2.09,17C.42,38.48.16,55.86,15,61.4c4.94,1.85,10.16,2.1,15.06,2.1h3.36c9.71,0,23.18-1.5,28-14.45,2-5.42,2.14-10.94,2.09-17C63.58,25.52,63.84,8.14,49.05,2.6Z"/><path class="cls-3" d="M59.49,32h0c.15-10.25-1.21-21.67-11.85-25.65C42.69,4.49,37.26,4.46,32,4.51h0C21.75,4.36,10.33,5.72,6.35,16.36,4.49,21.31,4.46,26.74,4.51,32h0C4.36,42.25,5.72,53.67,16.36,57.65c4.95,1.86,10.38,1.89,15.64,1.84h0c10.25.15,21.67-1.21,25.65-11.85C59.51,42.69,59.54,37.26,59.49,32Z"/><path class="cls-4" d="M32,54A46.35,46.35,0,0,1,6,45.79C7.48,51,10.52,55.47,16.36,57.65c4.95,1.86,10.38,1.89,15.64,1.84h0c10.25.15,21.67-1.21,25.65-11.85.25-.66.46-1.34.65-2A46.44,46.44,0,0,1,32,54Z"/><ellipse class="cls-4" cx="53" cy="39.49" rx="5.56" ry="3.55"/><ellipse class="cls-4" cx="15" cy="39.49" rx="5.56" ry="3.55"/><circle class="cls-5" cx="46.5" cy="31.37" r="7.78"/><circle class="cls-5" cx="21.5" cy="31.37" r="7.78"/><circle class="cls-2" cx="44.34" cy="32.37" r="4.52"/><circle class="cls-2" cx="23.66" cy="32.37" r="4.52"/><ellipse class="cls-4" cx="21.34" cy="15.76" rx="4.66" ry="2.79" transform="translate(-1.29 1.92) rotate(-5)"/><ellipse class="cls-4" cx="46.66" cy="15.76" rx="2.79" ry="4.66" transform="translate(26.89 60.86) rotate(-85)"/><path class="cls-2" d="M38,52.19a3.64,3.64,0,0,0,.12-.91c0-2.29-1.85-5.14-4.14-5.14S29.86,49,29.86,51.28a3.16,3.16,0,0,0,.16,1,8.18,8.18,0,0,1,8-.11Z"/><path class="cls-6" d="M34,54.43c2,0,3.58-.64,4-2.24a8.18,8.18,0,0,0-8,.11C30.51,53.82,32.1,54.43,34,54.43Z"/><path class="cls-7" d="M53.57,46.14l-16.5-2.65a3.89,3.89,0,0,1-3.25-4.31h0a3.89,3.89,0,0,1,4.33-3.41l16.59,2c2.32.28,3.6,2.37,3.32,4.7h0A3.9,3.9,0,0,1,53.57,46.14Z"/><path class="cls-8" d="M37.07,43.49l16.5,2.65h0a3.81,3.81,0,0,1-2.71-2.42.81.81,0,0,0-.62-.53L33.93,40.68A3.89,3.89,0,0,0,37.07,43.49Z"/><ellipse class="cls-9" cx="54.5" cy="41.95" rx="2.28" ry="1.94" transform="translate(6.08 90.79) rotate(-82.83)"/><path class="cls-7" d="M44.27,37.43l5-3.58a1.24,1.24,0,0,1,1.19-.14l.58.23a.69.69,0,0,1,.34,1l-2,3.54Z"/></g></g></svg>