<svg xmlns="http://www.w3.org/2000/svg" viewBox="0 0 64 64"><defs><style>.cls-1,.cls-2{fill:#1a1a1a;}.cls-1{opacity:0;}.cls-3{fill:#fec92b;}.cls-4{fill:#fdaf18;}.cls-5,.cls-8{fill:none;stroke:#476475;stroke-miterlimit:10;stroke-width:4px;}.cls-5{stroke-linecap:round;}.cls-6{fill:#fff;}.cls-7{fill:#476475;}.cls-9{fill:#c62d43;}</style></defs><title>Nerd face</title><g id="Layer_2" data-name="Layer 2"><g id="Rough"><rect class="cls-1" width="64" height="64"/><path class="cls-2" d="M49.05,2.6C44.11.75,38.89.5,34,.5H30.63C20.92.5,7.45,2,2.6,15c-2,5.42-2.14,10.94-2.09,17C.42,38.48.16,55.86,15,61.4c4.94,1.85,10.16,2.1,15.06,2.1h3.36c9.71,0,23.18-1.5,28-14.45,2-5.42,2.14-10.94,2.09-17C63.58,25.52,63.84,8.14,49.05,2.6Z"/><path class="cls-3" d="M59.49,32h0c.15-10.25-1.21-21.67-11.85-25.65C42.69,4.49,37.26,4.46,32,4.51h0C21.75,4.36,10.33,5.72,6.35,16.36,4.49,21.31,4.46,26.74,4.51,32h0C4.36,42.25,5.72,53.67,16.36,57.65c4.95,1.86,10.38,1.89,15.64,1.84h0c10.25.15,21.67-1.21,25.65-11.85C59.51,42.69,59.54,37.26,59.49,32Z"/><path class="cls-4" d="M32,54A46.35,46.35,0,0,1,6,45.79C7.48,51,10.52,55.47,16.36,57.65c4.95,1.86,10.38,1.89,15.64,1.84h0c10.25.15,21.67-1.21,25.65-11.85.25-.66.46-1.34.65-2A46.44,46.44,0,0,1,32,54Z"/><ellipse class="cls-4" cx="51" cy="39.49" rx="5.56" ry="3.55"/><ellipse class="cls-4" cx="13" cy="39.49" rx="5.56" ry="3.55"/><ellipse class="cls-4" cx="19.34" cy="15.76" rx="4.66" ry="2.79" transform="translate(-1.3 1.75) rotate(-5)"/><ellipse class="cls-4" cx="44.66" cy="15.76" rx="2.79" ry="4.66" transform="translate(25.07 58.87) rotate(-85)"/><line class="cls-5" x1="59.5" y1="31.37" x2="44.5" y2="31.37"/><line class="cls-5" x1="19.5" y1="31.37" x2="4.5" y2="31.37"/><path class="cls-6" d="M44.5,41.8A10.43,10.43,0,1,1,54.92,31.37,10.43,10.43,0,0,1,44.5,41.8Z"/><path class="cls-7" d="M44.5,22.45a8.93,8.93,0,1,1-8.92,8.92,8.92,8.92,0,0,1,8.92-8.92m0-3A11.93,11.93,0,1,0,56.42,31.37,11.93,11.93,0,0,0,44.5,19.45Z"/><path class="cls-6" d="M19.5,41.8A10.43,10.43,0,1,1,29.92,31.37,10.43,10.43,0,0,1,19.5,41.8Z"/><path class="cls-7" d="M19.5,22.45a8.93,8.93,0,1,1-8.92,8.92,8.92,8.92,0,0,1,8.92-8.92m0-3A11.93,11.93,0,1,0,31.42,31.37,11.94,11.94,0,0,0,19.5,19.45Z"/><circle class="cls-2" cx="42.34" cy="31.37" r="4.52"/><circle class="cls-2" cx="21.66" cy="31.37" r="4.52"/><line class="cls-8" x1="34.5" y1="30.37" x2="29.5" y2="30.37"/><path class="cls-6" d="M29.64,48.37a15.56,15.56,0,0,0,2.37.18,14.78,14.78,0,0,0,2.31-.15,2,2,0,0,0,1.82-2v-2.2c-.54.1-1,.2-1.5.27a21.61,21.61,0,0,1-2.64.23,15.78,15.78,0,0,1-2.66-.18c-.47-.07-1-.16-1.5-.28v2.12A2,2,0,0,0,29.64,48.37Z"/><path class="cls-2" d="M41.15,47.05a2.41,2.41,0,0,0,.13-1.36,2.45,2.45,0,0,0-2.87-1.94l-.33.07-1.94.39v2.2a2.06,2.06,0,0,1-.36,1.14,11.07,11.07,0,0,1,3.84,1.91A7.65,7.65,0,0,0,41.15,47.05Z"/><path class="cls-2" d="M27.84,46.37V44.25l-1.92-.43-.31-.08a2.48,2.48,0,0,0-1.49.14,2.4,2.4,0,0,0-1.27,3.17,8.19,8.19,0,0,0,1.56,2.37,11,11,0,0,1,3.81-1.88A2,2,0,0,1,27.84,46.37Z"/><path class="cls-9" d="M32,52.7a10.41,10.41,0,0,0,5.6-1.56,9.41,9.41,0,0,0,2-1.68,11.07,11.07,0,0,0-3.84-1.91,2,2,0,0,1-1.46.85,14.78,14.78,0,0,1-2.31.15,15.56,15.56,0,0,1-2.37-.18,2,2,0,0,1-1.42-.83,11,11,0,0,0-3.81,1.88,9.92,9.92,0,0,0,2,1.67A10.74,10.74,0,0,0,32,52.7Z"/></g></g></svg>