<svg xmlns="http://www.w3.org/2000/svg" viewBox="0 0 64 64"><defs><style>.cls-1,.cls-2{fill:#1a1a1a;}.cls-1{opacity:0;}.cls-3{fill:#fec92b;}.cls-4{fill:#fdaf18;}.cls-5{fill:#fff;}.cls-6{fill:#ffeb63;}</style></defs><title>Saluting face</title><g id="Layer_2" data-name="Layer 2"><g id="Rough"><rect class="cls-1" width="64" height="64"/><path class="cls-2" d="M47.48,11.77A33.8,33.8,0,0,0,35.82,10a6,6,0,0,0-1.21-2.26,5.72,5.72,0,0,0-1.88-1.48,7.18,7.18,0,0,0-.42-.83A6.11,6.11,0,0,0,27.1,2.47h-.28A6.07,6.07,0,0,0,19.2,1.37L16.3,3.11a39.94,39.94,0,0,0-9.52,8l-.12.13A10.26,10.26,0,0,0,5.58,23.29L7.15,25.9a49.25,49.25,0,0,0-.77,10.78c-.08,5.55-.29,20.29,12.41,25A36,36,0,0,0,31.5,63.5h2.77c8.24,0,19.68-1.29,23.84-12.41,1.72-4.59,1.82-9.23,1.77-14.29C60,31.25,60.18,16.52,47.48,11.77Z"/><path class="cls-3" d="M55.88,36.74h0c.13-8.48-1-17.93-9.8-21.23C42,14,37.49,14,33.13,14h0c-8.48-.12-17.93,1-21.22,9.81-1.54,4.1-1.56,8.59-1.52,12.94h0c-.12,8.49,1,17.93,9.81,21.23,4.1,1.53,8.59,1.56,12.94,1.52h0c8.49.12,17.94-1,21.23-9.8C55.9,45.59,55.92,41.1,55.88,36.74Z"/><path class="cls-4" d="M33.13,54.92a38.4,38.4,0,0,1-21.55-6.76c1.27,4.34,3.78,8,8.61,9.81,4.1,1.53,8.59,1.56,12.94,1.52h0c8.49.12,17.94-1,21.23-9.8.21-.55.38-1.11.54-1.68A38.38,38.38,0,0,1,33.13,54.92Z"/><ellipse class="cls-4" cx="48.86" cy="42.94" rx="4.6" ry="2.94"/><ellipse class="cls-4" cx="17.41" cy="42.94" rx="4.6" ry="2.94"/><path class="cls-4" d="M36.2,14c-1,0-2.05,0-3.07,0h0c-8.48-.12-17.93,1-21.22,9.81a24.59,24.59,0,0,0-1.39,7,10.2,10.2,0,0,0,6.82,1.34l9.78-1.51A6,6,0,0,0,32,23.12a6.13,6.13,0,0,0-.41-1.06l1.87-1.13A6.11,6.11,0,0,0,36.2,14Z"/><circle class="cls-5" cx="43.48" cy="36.22" r="6.44"/><circle class="cls-5" cx="22.79" cy="36.22" r="6.44"/><circle class="cls-2" cx="41.69" cy="36.22" r="3.74"/><circle class="cls-2" cx="24.57" cy="36.22" r="3.74"/><path class="cls-2" d="M26.23,46a17.71,17.71,0,0,0,6.9,1.46,16.83,16.83,0,0,0,3.46-.39A23.52,23.52,0,0,0,40,46h0A.85.85,0,0,1,41,47.4a9.83,9.83,0,0,1-3.59,2.3,11.86,11.86,0,0,1-4.26.77,11.28,11.28,0,0,1-7.84-3.07.84.84,0,0,1,0-1.2.85.85,0,0,1,.93-.19Z"/><ellipse class="cls-4" cx="43.61" cy="23.3" rx="2.31" ry="3.86" transform="matrix(0.09, -1, 1, 0.09, 16.6, 64.71)"/><path class="cls-6" d="M24.11,5.51h0a2.07,2.07,0,0,1-.71,2.84L26,6.77a2.07,2.07,0,0,1,2.84.71h0a2.08,2.08,0,0,1-.71,2.85l.65-.39a2.16,2.16,0,0,1,2.74.37,2.08,2.08,0,0,1-.51,3.13l-.74.45a2.07,2.07,0,0,1,3,1,2.15,2.15,0,0,1-1,2.59l-8.16,4.9,3.17.38a2,2,0,0,1,1.73,1.4,2,2,0,0,1-1.58,2.46l-9.78,1.51a6.3,6.3,0,0,1-6.36-3L9,21.23a6.28,6.28,0,0,1,.66-7.39l.12-.14a36.13,36.13,0,0,1,8.57-7.16l2.9-1.74A2.07,2.07,0,0,1,24.11,5.51Z"/></g></g></svg>