<svg xmlns="http://www.w3.org/2000/svg" viewBox="0 0 64 64"><defs><style>.cls-1,.cls-2,.cls-7{fill:#1a1a1a;}.cls-1{opacity:0;}.cls-3{fill:#fec92b;}.cls-4{fill:#fdaf18;}.cls-5,.cls-6,.cls-7{opacity:0.5;}.cls-6,.cls-9{fill:#fff;}.cls-8{fill:#c62d43;}</style></defs><title>Shaking face</title><g id="Layer_2" data-name="Layer 2"><g id="Rough"><rect class="cls-1" width="64" height="64"/><path class="cls-2" d="M61.71,25.69C60.47,19.92,57.19,4.58,43,2.68a26.17,26.17,0,0,0-3.37-.21c-.68,0-1.4,0-2.13.07s-1.24-.06-1.87-.06A51.11,51.11,0,0,0,23.73,4.25C18,5.49,2.62,8.78.72,23,0,28.18,1,33,2.29,38.31c1.24,5.77,4.52,21.11,18.76,23a26.17,26.17,0,0,0,3.37.21c.69,0,1.4,0,2.13-.07s1.24.06,1.87.06h0a51.11,51.11,0,0,0,11.85-1.77C46,58.51,61.38,55.23,63.28,41,64,35.82,63,31,61.71,25.69Z"/><path class="cls-3" d="M57.8,26.53h0C55.89,17.61,52.44,8,42.42,6.65c-4.66-.63-9.37.43-13.93,1.51h0C19.57,10.07,9.94,13.52,8.61,23.54,8,28.2,9,32.91,10.13,37.47h0C12,46.39,15.48,56,25.5,57.35c4.66.63,9.37-.43,13.93-1.51h0C48.35,53.93,58,50.48,59.31,40.46,59.94,35.8,58.88,31.09,57.8,26.53Z"/><path class="cls-4" d="M38.33,51.05a41.3,41.3,0,0,1-24.21-1.91c2.37,4.24,5.88,7.48,11.38,8.21,4.66.63,9.37-.43,13.93-1.51h0C48.35,53.93,58,50.48,59.31,40.46a16.82,16.82,0,0,0,.16-1.88A41.34,41.34,0,0,1,38.33,51.05Z"/><path class="cls-3" d="M53.87,26.53h0C52,17.61,48.52,8,38.5,6.65c-4.66-.63-9.37.43-13.93,1.51h0C15.65,10.07,6,13.52,4.69,23.54c-.63,4.66.43,9.37,1.51,13.93h0C8.11,46.39,11.56,56,21.58,57.35c4.66.63,9.37-.43,13.93-1.51h0c8.92-1.91,18.55-5.36,19.88-15.38C56,35.8,55,31.09,53.87,26.53Z"/><path class="cls-4" d="M34.41,51.05A41.29,41.29,0,0,1,10.2,49.14c2.37,4.24,5.88,7.48,11.38,8.21,4.66.63,9.37-.43,13.93-1.51h0c8.92-1.91,18.55-5.36,19.88-15.38.09-.62.13-1.25.16-1.88A41.38,41.38,0,0,1,34.41,51.05Z"/><ellipse class="cls-4" cx="48.01" cy="34.72" rx="4.95" ry="3.16" transform="translate(-6.55 11.61) rotate(-12.92)"/><ellipse class="cls-4" cx="15.06" cy="42.27" rx="4.95" ry="3.16" transform="translate(-9.07 4.44) rotate(-12.92)"/><g class="cls-5"><ellipse class="cls-4" cx="51.93" cy="34.72" rx="4.95" ry="3.16" transform="translate(-6.45 12.49) rotate(-12.92)"/><ellipse class="cls-4" cx="18.98" cy="42.27" rx="4.95" ry="3.16" transform="translate(-8.97 5.31) rotate(-12.92)"/></g><circle class="cls-6" cx="44.67" cy="28.97" r="6.92"/><circle class="cls-6" cx="23" cy="33.94" r="6.92"/><circle class="cls-2" cx="42.81" cy="29.4" r="4.02"/><circle class="cls-7" cx="24.87" cy="33.51" r="4.02"/><g class="cls-5"><path class="cls-2" d="M42.08,45.26a4.66,4.66,0,0,0-.12-.95c-.61-2.65-3.45-5.14-6.1-4.53s-4.12,4.08-3.51,6.74a4,4,0,0,0,.31.9,7.93,7.93,0,0,1,9.42-2.16Z"/><path class="cls-8" d="M38.07,49.39c2.32-.53,4-2,4-4.13a7.93,7.93,0,0,0-9.42,2.16C33.57,49.35,35.74,49.92,38.07,49.39Z"/></g><g class="cls-5"><path class="cls-4" d="M24.75,17.54a20.48,20.48,0,0,0-4.53,2.16,18.59,18.59,0,0,0-1.91,1.46c-.63.53-1.22,1.13-1.92,1.79l-.07.07a1.17,1.17,0,0,1-1.66,0,1.16,1.16,0,0,1-.32-.9,7.77,7.77,0,0,1,3.71-5.73A8,8,0,0,1,24.8,15.3a1.17,1.17,0,0,1,.73,1.48,1.18,1.18,0,0,1-.7.73Z"/><path class="cls-4" d="M45.83,16.19A21.5,21.5,0,0,0,41,14.94a19.1,19.1,0,0,0-2.4-.11c-.83,0-1.67.08-2.62.14h-.11a1.17,1.17,0,0,1-1.24-1.1,1.19,1.19,0,0,1,.33-.89,7.77,7.77,0,0,1,6.53-2,8.05,8.05,0,0,1,5.84,3.53,1.18,1.18,0,0,1-.39,1.61,1.15,1.15,0,0,1-1,.1Z"/></g><circle class="cls-9" cx="40.75" cy="28.97" r="6.92"/><circle class="cls-9" cx="19.08" cy="33.94" r="6.92"/><circle class="cls-2" cx="38.88" cy="29.4" r="4.02"/><circle class="cls-2" cx="20.95" cy="33.51" r="4.02"/><path class="cls-2" d="M38.15,45.26a4.62,4.62,0,0,0-.11-.95c-.61-2.65-3.45-5.14-6.1-4.53s-4.13,4.08-3.52,6.74a4.53,4.53,0,0,0,.31.9,7.94,7.94,0,0,1,9.42-2.16Z"/><path class="cls-8" d="M34.14,49.39c2.33-.53,4-2,4-4.13a7.94,7.94,0,0,0-9.42,2.16C29.65,49.35,31.82,49.92,34.14,49.39Z"/><path class="cls-4" d="M20.83,17.54A20.27,20.27,0,0,0,16.3,19.7a17.56,17.56,0,0,0-1.91,1.46c-.63.53-1.23,1.13-1.92,1.79l-.08.07a1.17,1.17,0,0,1-1.66,0,1.24,1.24,0,0,1-.32-.9,7.78,7.78,0,0,1,3.72-5.73,8,8,0,0,1,6.74-1.05,1.17,1.17,0,0,1,0,2.21Z"/><path class="cls-4" d="M41.91,16.19A21.45,21.45,0,0,0,37,14.94a19,19,0,0,0-2.4-.11c-.82,0-1.66.08-2.61.14h-.11a1.17,1.17,0,0,1-1.24-1.1A1.15,1.15,0,0,1,31,13a7.77,7.77,0,0,1,6.53-2,8.07,8.07,0,0,1,5.84,3.53A1.18,1.18,0,0,1,43,16.12a1.15,1.15,0,0,1-1,.1Z"/></g></g></svg>