<svg xmlns="http://www.w3.org/2000/svg" viewBox="0 0 64 64"><defs><style>.cls-1,.cls-2{fill:#1a1a1a;}.cls-1{opacity:0;}.cls-3{fill:#fec92b;}.cls-4{fill:#fdaf18;}.cls-5{fill:#c62d43;}.cls-6{fill:#1778ff;}</style></defs><title>Sleeping face</title><g id="Layer_2" data-name="Layer 2"><g id="Rough"><rect class="cls-1" width="64" height="64"/><path class="cls-2" d="M30,63.5c-4.9,0-10.13-.25-15.07-2.1C.16,55.86.42,38.48.51,31.94c0-6.05.07-11.57,2.09-17C7.45,2,20.92.5,30.63.5H34a53.91,53.91,0,0,1,10.47.81A5.2,5.2,0,0,1,46.5.91a10.48,10.48,0,0,1,1.84.18c1.1.18,2.34.44,3.67.76s2.56.66,3.75,1c1.67.49,2.29.71,2.64.85l.12,0a4.88,4.88,0,0,1,2.86,4.05,9.3,9.3,0,0,1-.09,2.67,12.06,12.06,0,0,1-.7,2.4,3.54,3.54,0,0,1-.16.34c2.83,6,3.14,13.12,3.06,18.84,0,6-.07,11.57-2.09,17-4.85,13-18.32,14.45-28,14.45H30Z"/><path class="cls-3" d="M59.49,32h0c.15-10.25-1.21-21.67-11.85-25.65C42.69,4.49,37.26,4.46,32,4.51h0C21.75,4.36,10.33,5.72,6.35,16.36,4.49,21.31,4.46,26.74,4.51,32h0C4.36,42.25,5.72,53.67,16.36,57.65c4.95,1.86,10.38,1.89,15.64,1.84h0c10.25.15,21.67-1.21,25.65-11.85C59.51,42.69,59.54,37.26,59.49,32Z"/><path class="cls-4" d="M32,54A46.35,46.35,0,0,1,6,45.79C7.48,51,10.52,55.47,16.36,57.65c4.95,1.86,10.38,1.89,15.64,1.84h0c10.25.15,21.67-1.21,25.65-11.85.25-.66.46-1.34.65-2A46.44,46.44,0,0,1,32,54Z"/><ellipse class="cls-4" cx="51" cy="43.49" rx="5.56" ry="3.55"/><ellipse class="cls-4" cx="13" cy="43.49" rx="5.56" ry="3.55"/><path class="cls-2" d="M15,34.74a19.44,19.44,0,0,0,2.86,1.09,9.62,9.62,0,0,0,2.68.37,10.77,10.77,0,0,0,2.67-.39A22.39,22.39,0,0,0,26,34.74l.07,0a1.16,1.16,0,0,1,1.45,1.66,7.62,7.62,0,0,1-2.94,2.77,8.38,8.38,0,0,1-4.12,1,8.58,8.58,0,0,1-4.11-1.06,8.14,8.14,0,0,1-3-2.75,1.16,1.16,0,0,1,1.45-1.67Z"/><path class="cls-2" d="M38,34.74a19.34,19.34,0,0,0,2.85,1.09,9.74,9.74,0,0,0,2.69.37,10.84,10.84,0,0,0,2.67-.39A22.39,22.39,0,0,0,49,34.74l.06,0a1.16,1.16,0,0,1,1.53.62,1.18,1.18,0,0,1-.07,1,7.62,7.62,0,0,1-2.94,2.77,8.38,8.38,0,0,1-4.12,1,8.55,8.55,0,0,1-4.11-1.06,8.14,8.14,0,0,1-3-2.75,1.16,1.16,0,0,1,1.45-1.67Z"/><path class="cls-2" d="M36,52.32a3.64,3.64,0,0,0,.12-.91c0-2.29-1.85-5.14-4.14-5.14s-4.14,2.85-4.14,5.14a3.16,3.16,0,0,0,.16,1,8.18,8.18,0,0,1,8-.11Z"/><path class="cls-5" d="M32,54.56c2,0,3.58-.63,4-2.24a8.18,8.18,0,0,0-8,.11C28.51,54,30.1,54.56,32,54.56Z"/><ellipse class="cls-4" cx="16.34" cy="26.76" rx="4.66" ry="2.79" transform="matrix(0.97, -0.26, 0.26, 0.97, -6.37, 5.14)"/><ellipse class="cls-4" cx="47.66" cy="26.76" rx="2.79" ry="4.66" transform="translate(9.48 65.86) rotate(-75)"/><path class="cls-4" d="M31.4,14.54c-.08,0-.14-.23-.18-.53a6.38,6.38,0,0,1,0-1,7.92,7.92,0,0,1,.07-1.1,2.65,2.65,0,0,1,.21-.81c.07-.15.51-.24,1.31-.26s1.69,0,2.67,0,1.94.12,2.85.2,1.53.16,1.85.22.39.25.5.58A4,4,0,0,1,40.81,13a6.36,6.36,0,0,1-.12,1.24,2,2,0,0,1-.36.89h0c-.34.39-.77.83-1.27,1.33s-1,1-1.6,1.53c.57,0,1.07,0,1.51.06s.76.07.94.1.44.31.55.76a5.57,5.57,0,0,1,.12,1.44,5.92,5.92,0,0,1-.24,1.41c-.14.42-.32.64-.54.65-.62,0-1.43,0-2.41,0s-2-.07-2.91-.13-1.8-.13-2.54-.23a3.06,3.06,0,0,1-1.28-.33q-.24-.16-.21-1.41a4.85,4.85,0,0,1,.3-1.8,5.18,5.18,0,0,1,1.38-1.4q1.22-1,2.58-2-1.26-.11-2.19-.27A2.85,2.85,0,0,1,31.4,14.54Z"/><path class="cls-6" d="M30.4,12.54c-.08,0-.14-.23-.18-.53a6.38,6.38,0,0,1,0-1,7.92,7.92,0,0,1,.07-1.1,2.65,2.65,0,0,1,.21-.81c.07-.15.51-.24,1.31-.26s1.69,0,2.67,0,1.94.12,2.85.2,1.53.16,1.85.22.39.25.5.58A4,4,0,0,1,39.81,11a6.36,6.36,0,0,1-.12,1.24,2,2,0,0,1-.36.89h0c-.34.39-.77.83-1.27,1.33s-1,1-1.6,1.53c.57,0,1.07,0,1.51.06s.76.07.94.1.44.31.55.76a5.57,5.57,0,0,1,.12,1.44,5.92,5.92,0,0,1-.24,1.41c-.14.42-.32.64-.54.65-.62,0-1.43,0-2.41,0s-2-.07-2.91-.13-1.8-.13-2.54-.23a3.06,3.06,0,0,1-1.28-.33q-.24-.16-.21-1.41a4.85,4.85,0,0,1,.3-1.8,5.18,5.18,0,0,1,1.38-1.4q1.21-1,2.58-2-1.26-.11-2.19-.27A2.85,2.85,0,0,1,30.4,12.54Z"/><path class="cls-4" d="M58.44,20.19c0-.59-.19-1-.5-1.09s-.62-.21-1.17-.36-1.18-.29-1.9-.45c.84-.52,1.64-1,2.4-1.55.09,0,.16-.11.24-.16a16.68,16.68,0,0,0-6.4-8.47L50.68,8c-1-.17-1.59-.17-1.72,0a3.25,3.25,0,0,0-.46,1,12,12,0,0,0-.37,1.37,8.57,8.57,0,0,0-.18,1.3q0,.59.09.72a3.65,3.65,0,0,0,1.33.7,28.08,28.08,0,0,0,2.71.88c-1.32.63-2.57,1.26-3.76,1.88a6.65,6.65,0,0,0-2.1,1.43,6.52,6.52,0,0,0-.82,2.21c-.23,1.05-.26,1.66-.08,1.85a4,4,0,0,0,1.54.73c.91.3,2,.61,3.16.92s2.42.6,3.66.88,2.26.47,3.06.59q.42.06.84-.69a6.92,6.92,0,0,0,.66-1.73A7.11,7.11,0,0,0,58.44,20.19Z"/><path class="cls-6" d="M45,9.4q-.13-.13-.09-.72a8.57,8.57,0,0,1,.18-1.3A12,12,0,0,1,45.5,6,3.25,3.25,0,0,1,46,5c.13-.18.7-.18,1.72,0s2.15.41,3.38.71,2.43.62,3.57,1,1.9.58,2.29.73a1,1,0,0,1,.49.86,4.76,4.76,0,0,1-.06,1.49,7.57,7.57,0,0,1-.46,1.56,2.54,2.54,0,0,1-.67,1h0c-.52.41-1.17.87-1.93,1.37s-1.56,1-2.4,1.55c.72.16,1.35.31,1.9.45s.94.27,1.17.36.47.5.5,1.09a7.11,7.11,0,0,1-.2,1.86,6.92,6.92,0,0,1-.66,1.73q-.42.75-.84.69c-.8-.12-1.82-.31-3.06-.59S48.22,20.31,47,20s-2.25-.62-3.16-.92a4,4,0,0,1-1.54-.73c-.18-.19-.15-.8.08-1.85a6.52,6.52,0,0,1,.82-2.21,6.65,6.65,0,0,1,2.1-1.43c1.19-.62,2.44-1.25,3.76-1.88a28.08,28.08,0,0,1-2.71-.88A3.65,3.65,0,0,1,45,9.4Z"/></g></g></svg>