<svg xmlns="http://www.w3.org/2000/svg" viewBox="0 0 64 64"><defs><style>.cls-1,.cls-2{fill:#1a1a1a;}.cls-1{opacity:0;}.cls-3{fill:#fec92b;}.cls-4{fill:#fdaf18;}.cls-5{fill:#fc9504;}.cls-6{fill:#37b9ff;}.cls-7{fill:#1778ff;}</style></defs><title>Smiling face with halo</title><g id="Layer_2" data-name="Layer 2"><g id="Rough"><rect class="cls-1" width="64" height="64"/><path class="cls-2" d="M60.36,14.2a6.89,6.89,0,0,0,1.14-3.79C61.5,2.19,50.22.54,32,.54S2.5,2.19,2.5,10.41a6.85,6.85,0,0,0,1.26,3.95,20.37,20.37,0,0,0-1.15,2.56C.54,22.44.46,26.25.51,31.9.42,38.45.17,55.83,15,61.36c4.94,1.85,10.15,2.1,15.06,2.1h3.36c9.71,0,23.17-1.5,28-14.45,2-5.41,2.15-10.94,2.09-17C63.58,26.16,63.22,19.64,60.36,14.2Z"/><path class="cls-3" d="M59.49,32h0c.15-10.25-1.2-19.67-11.84-23.65C42.69,6.46,37.27,6.43,32,6.47h0C21.75,6.32,10.33,7.68,6.35,18.32,4.5,23.27,4.47,26.7,4.51,32h0C4.37,42.22,5.72,53.63,16.36,57.61,21.31,59.47,26.74,59.5,32,59.45h0c10.26.15,21.67-1.2,25.66-11.84C59.51,42.65,59.54,37.23,59.49,32Z"/><path class="cls-4" d="M32,53.93A46.38,46.38,0,0,1,6,45.76c1.53,5.24,4.56,9.67,10.4,11.85C21.31,59.47,26.74,59.5,32,59.45h0c10.26.15,21.67-1.2,25.66-11.84.24-.67.46-1.35.64-2A46.39,46.39,0,0,1,32,53.93Z"/><ellipse class="cls-5" cx="51" cy="39.45" rx="5.56" ry="3.55"/><ellipse class="cls-5" cx="13" cy="39.45" rx="5.56" ry="3.55"/><path class="cls-2" d="M26,36.07a6.52,6.52,0,0,0-5.5-3.3A6.51,6.51,0,0,0,15,36.07l0,0a.86.86,0,0,1-1.58-.39,6.25,6.25,0,0,1,1.94-4.86,7.4,7.4,0,0,1,10.33,0,6.25,6.25,0,0,1,1.94,4.86.86.86,0,0,1-.93.79.91.91,0,0,1-.65-.39Z"/><path class="cls-2" d="M49,36.07a6.22,6.22,0,0,0-11,0l0,0a.86.86,0,0,1-1.58-.39,6.21,6.21,0,0,1,1.94-4.86,7.39,7.39,0,0,1,10.32,0,6.22,6.22,0,0,1,2,4.86.86.86,0,0,1-.93.79.89.89,0,0,1-.65-.39Z"/><ellipse class="cls-4" cx="19.35" cy="22.72" rx="4.66" ry="2.79" transform="translate(-1.91 1.77) rotate(-5)"/><ellipse class="cls-4" cx="44.66" cy="22.72" rx="2.79" ry="4.66" transform="translate(18.13 65.23) rotate(-85)"/><path class="cls-2" d="M23.72,43.09a28.28,28.28,0,0,0,4.15,1.24,19.9,19.9,0,0,0,4.13.42,21.3,21.3,0,0,0,4.13-.44,33,33,0,0,0,4.16-1.22l0,0a1.15,1.15,0,0,1,1.22,1.86,11.82,11.82,0,0,1-4.35,2.86,14.35,14.35,0,0,1-5.2,1,13.55,13.55,0,0,1-9.54-3.81,1.14,1.14,0,0,1,0-1.61,1.16,1.16,0,0,1,1.2-.25Z"/><path class="cls-6" d="M32,4.54c-20.52,0-25.5,2.63-25.5,5.87s5,5.87,25.5,5.87,25.5-2.63,25.5-5.87S52.53,4.54,32,4.54ZM32,11c-7.92,0-14.67-.72-17.39-1.73C19.67,6.83,26,6.39,32,6.47h0c5.27,0,10.69,0,15.65,1.84a21.35,21.35,0,0,1,2,.89C47.1,10.26,40.17,11,32,11Z"/><path class="cls-7" d="M32,14.28c-11.29,0-21-2.1-25.22-5.09a2.76,2.76,0,0,0-.28,1.22c0,3.24,5,5.87,25.5,5.87s25.5-2.63,25.5-5.87a2.82,2.82,0,0,0-.27-1.23C53,12.18,43.29,14.28,32,14.28Z"/></g></g></svg>