<svg xmlns="http://www.w3.org/2000/svg" viewBox="0 0 64 64"><defs><style>.cls-1,.cls-2{fill:#1a1a1a;}.cls-1{opacity:0;}.cls-3{fill:#fec92b;}.cls-4{fill:#fdaf18;}.cls-5{fill:#e62e49;}</style></defs><title>Smiling face with hearts</title><g id="Layer_2" data-name="Layer 2"><g id="Rough"><rect class="cls-1" width="64" height="64"/><path class="cls-2" d="M63.49,32.06c.08-5.61-.21-12.61-2.93-18.6.08-.15.15-.31.22-.47a8.14,8.14,0,0,0,.72-3.11,7.33,7.33,0,0,0-1.4-4.5,6.86,6.86,0,0,0-5.66-3,7,7,0,0,0-1.2.11A7.59,7.59,0,0,0,51.55,3a7.43,7.43,0,0,0-1.67-.48,7,7,0,0,0-1.2-.11h-.13C43.76.74,38.73.5,34,.5H30.64C22.1.5,10.25,1.65,4.36,11.35a8,8,0,0,0-2.17,2.14A8.72,8.72,0,0,0,.51,18.92,10,10,0,0,0,1,21.59,70.47,70.47,0,0,0,.51,31.94C.42,38.48.17,55.86,15,61.4,19.9,63.25,25.11,63.5,30,63.5h3.35c8,0,19.26-1,25.43-9.56.56-.54,1.09-1.08,1.54-1.59a14.1,14.1,0,0,0,2.38-3.62,9,9,0,0,0,.78-3.39A7.86,7.86,0,0,0,63,42.42,70.5,70.5,0,0,0,63.49,32.06Z"/><path class="cls-3" d="M59.49,32h0c.15-10.25-1.2-21.67-11.84-25.65C42.69,4.49,37.27,4.46,32,4.51h0C21.75,4.36,10.33,5.72,6.35,16.36,4.5,21.31,4.47,26.74,4.51,32h0C4.36,42.25,5.72,53.67,16.36,57.65c4.95,1.86,10.38,1.89,15.64,1.84h0c10.26.15,21.67-1.21,25.65-11.85C59.51,42.69,59.54,37.26,59.49,32Z"/><path class="cls-4" d="M32,54A46.29,46.29,0,0,1,6,45.79c1.53,5.25,4.56,9.68,10.4,11.86,4.95,1.86,10.38,1.89,15.64,1.84h0c10.26.15,21.67-1.21,25.65-11.85a20.64,20.64,0,0,0,.65-2A46.39,46.39,0,0,1,32,54Z"/><ellipse class="cls-4" cx="51" cy="39.49" rx="5.56" ry="3.55"/><ellipse class="cls-4" cx="13" cy="39.49" rx="5.56" ry="3.55"/><path class="cls-2" d="M26,36.11a6.5,6.5,0,0,0-5.5-3.3A6.48,6.48,0,0,0,15,36.11l0,0a.86.86,0,0,1-1.58-.39,6.19,6.19,0,0,1,1.94-4.86,7.39,7.39,0,0,1,10.32,0,6.2,6.2,0,0,1,1.95,4.86.86.86,0,0,1-.93.78.85.85,0,0,1-.65-.39Z"/><path class="cls-2" d="M49,36.11a6.22,6.22,0,0,0-11,0l0,0a.86.86,0,0,1-1.58-.39,6.15,6.15,0,0,1,1.94-4.86,7.39,7.39,0,0,1,10.32,0,6.2,6.2,0,0,1,2,4.86.86.86,0,0,1-.93.78.83.83,0,0,1-.65-.39Z"/><ellipse class="cls-4" cx="19.35" cy="20.76" rx="4.66" ry="2.79" transform="matrix(1, -0.09, 0.09, 1, -1.74, 1.77)"/><ellipse class="cls-4" cx="44.66" cy="20.76" rx="2.79" ry="4.66" transform="translate(20.09 63.44) rotate(-85)"/><path class="cls-2" d="M23.71,43.12a27.87,27.87,0,0,0,4.15,1.25,20,20,0,0,0,4.14.41,20.55,20.55,0,0,0,4.13-.44,31.37,31.37,0,0,0,4.16-1.22h0a1.15,1.15,0,0,1,1.46.69A1.13,1.13,0,0,1,41.54,45a11.68,11.68,0,0,1-4.34,2.85,14,14,0,0,1-5.2,1A13.5,13.5,0,0,1,22.46,45a1.14,1.14,0,0,1,1.21-1.86Z"/><path class="cls-5" d="M20.41,15.81a4.06,4.06,0,0,0-4.14-1.74,4.81,4.81,0,0,0-2.75,1.43l-.59.55-.59-.55a4.81,4.81,0,0,0-2.75-1.43,4.05,4.05,0,0,0-4.14,1.74,4.7,4.7,0,0,0-1,2.94A6.13,6.13,0,0,0,5,21a11.7,11.7,0,0,0,2,3.11,26.6,26.6,0,0,0,3.81,3.54c.3.24.61.48.93.71a1.86,1.86,0,0,0,2.24,0l.93-.71a27.75,27.75,0,0,0,3.81-3.54,12.08,12.08,0,0,0,2-3.11,5.93,5.93,0,0,0,.53-2.23A4.7,4.7,0,0,0,20.41,15.81Z"/><path class="cls-5" d="M58.72,42.79a3.39,3.39,0,0,0-3.44-1.44A4,4,0,0,0,53,42.53l-.49.46L52,42.53a4,4,0,0,0-2.28-1.18,3.39,3.39,0,0,0-3.44,1.44,3.93,3.93,0,0,0-.78,2.44A4.92,4.92,0,0,0,46,47.09a10.27,10.27,0,0,0,1.69,2.58,23.13,23.13,0,0,0,3.16,2.94l.78.58a1.52,1.52,0,0,0,1.85,0l.78-.58a23.21,23.21,0,0,0,3.16-3,10,10,0,0,0,1.69-2.57,4.91,4.91,0,0,0,.43-1.85A3.88,3.88,0,0,0,58.72,42.79Z"/><path class="cls-5" d="M56.84,7.7a2.88,2.88,0,0,0-2.93-1.23,3.39,3.39,0,0,0-1.94,1l-.41.39-.42-.39a3.39,3.39,0,0,0-1.94-1A2.88,2.88,0,0,0,46.28,7.7a3.31,3.31,0,0,0-.67,2.07A4.07,4.07,0,0,0,46,11.35a8.39,8.39,0,0,0,1.44,2.19A18.64,18.64,0,0,0,50.11,16l.66.5a1.32,1.32,0,0,0,1.58,0L53,16a19.26,19.26,0,0,0,2.69-2.5,8.36,8.36,0,0,0,1.43-2.19,4.06,4.06,0,0,0,.37-1.57A3.31,3.31,0,0,0,56.84,7.7Z"/></g></g></svg>