<svg xmlns="http://www.w3.org/2000/svg" viewBox="0 0 64 64"><defs><style>.cls-1,.cls-2{fill:#1a1a1a;}.cls-1{opacity:0;}.cls-3{fill:#fec92b;}.cls-4{fill:#fdaf18;}.cls-5{fill:#fc9504;}.cls-6{fill:#fff;}</style></defs><title>Woozy face</title><g id="Layer_2" data-name="Layer 2"><g id="Rough"><rect class="cls-1" width="64" height="64"/><path class="cls-2" d="M49.05,2.6C44.11.75,38.89.5,34,.5H30.63C20.92.5,7.45,2,2.6,15c-2,5.42-2.14,10.94-2.09,17C.42,38.48.16,55.86,15,61.4c4.94,1.85,10.16,2.1,15.06,2.1h3.36c9.71,0,23.18-1.5,28-14.45,2-5.42,2.14-10.94,2.09-17C63.58,25.52,63.84,8.14,49.05,2.6Z"/><path class="cls-3" d="M59.49,32h0c.15-10.25-1.21-21.67-11.85-25.65C42.69,4.49,37.26,4.46,32,4.51h0C21.75,4.36,10.33,5.72,6.35,16.36,4.49,21.31,4.46,26.74,4.51,32h0C4.36,42.25,5.72,53.67,16.36,57.65c4.95,1.86,10.38,1.89,15.64,1.84h0c10.25.15,21.67-1.21,25.65-11.85C59.51,42.69,59.54,37.26,59.49,32Z"/><path class="cls-4" d="M32,54A46.35,46.35,0,0,1,6,45.79C7.48,51,10.52,55.47,16.36,57.65c4.95,1.86,10.38,1.89,15.64,1.84h0c10.25.15,21.67-1.21,25.65-11.85.25-.66.46-1.34.65-2A46.44,46.44,0,0,1,32,54Z"/><ellipse class="cls-5" cx="51" cy="39.49" rx="5.56" ry="3.55"/><ellipse class="cls-5" cx="13" cy="39.49" rx="5.56" ry="3.55"/><circle class="cls-6" cx="44.5" cy="31.37" r="7.78"/><circle class="cls-6" cx="19.5" cy="31.37" r="7.78"/><circle class="cls-2" cx="42.34" cy="31.37" r="4.52"/><circle class="cls-2" cx="21.66" cy="31.37" r="4.52"/><path class="cls-4" d="M45.63,28.56a25.65,25.65,0,0,1,6.57,3.81,7.76,7.76,0,0,0-14-5.61A25.79,25.79,0,0,1,45.63,28.56Z"/><path class="cls-4" d="M18.37,28.56a25.65,25.65,0,0,0-6.57,3.81,7.76,7.76,0,0,1,14-5.61A25.79,25.79,0,0,0,18.37,28.56Z"/><path class="cls-5" d="M23.58,16.7A20.59,20.59,0,0,0,18,17.84,17.8,17.8,0,0,0,15.44,19c-.83.45-1.63,1-2.53,1.57l-.07.05a1.17,1.17,0,0,1-1.61-.33,1.2,1.2,0,0,1-.13-1,8.9,8.9,0,0,1,5.49-5.2,9.15,9.15,0,0,1,7.53.46,1.15,1.15,0,0,1,.43,1.58,1.19,1.19,0,0,1-.9.58Z"/><path class="cls-5" d="M41.72,10.15a20.51,20.51,0,0,0,5,2.75,19.94,19.94,0,0,0,2.68.72c.93.18,1.88.29,3,.41h.08a1.17,1.17,0,0,1,1,1.3,1.15,1.15,0,0,1-.56.86,8.89,8.89,0,0,1-7.53.45,9.16,9.16,0,0,1-5.48-5.19,1.16,1.16,0,0,1,1.75-1.35Z"/><path class="cls-2" d="M48.52,45.07a10.91,10.91,0,0,1-6.8,4.54,11.25,11.25,0,0,1-4.25.08,13.14,13.14,0,0,1-2.07-.55A12.16,12.16,0,0,0,34,48.62a4,4,0,0,0-2.33.17,4.25,4.25,0,0,0-1,.58l-.39.31a5.3,5.3,0,0,1-.51.36,6.64,6.64,0,0,1-1.05.56,8.05,8.05,0,0,1-8.39-1.28,1.39,1.39,0,0,1,1.65-2.23l0,0a5.32,5.32,0,0,0,5.19.2,4.06,4.06,0,0,0,.51-.32,2.13,2.13,0,0,0,.22-.18l.29-.27a7.33,7.33,0,0,1,2-1.31,7.51,7.51,0,0,1,4.7-.5,11,11,0,0,1,2,.67,9.47,9.47,0,0,0,1.38.4,8.7,8.7,0,0,0,2.88.09,9.66,9.66,0,0,0,5.32-2.58l0,0a1.39,1.39,0,0,1,2.12,1.78Z"/></g></g></svg>