<svg xmlns="http://www.w3.org/2000/svg" xmlns:xlink="http://www.w3.org/1999/xlink"
  viewBox="0 0 64 64">
  <g data-z="4" data-type="mouth">
    <path class="cls-2"
      d="M38.47,45.19c-2.19.18-4.32.19-6.47.21-1.07,0-2.14,0-3.22,0s-2.15-.06-3.25-.18h0a.86.86,0,0,1-.77-.95.88.88,0,0,1,.52-.7,13.69,13.69,0,0,1,3.33-.89,20.47,20.47,0,0,1,3.4-.24,22.9,22.9,0,0,1,3.4.26,15.06,15.06,0,0,1,3.32.87.84.84,0,0,1,.48,1.11A.86.86,0,0,1,38.47,45.19Z" />
    <path class="cls-2"
      d="M40.94,41.18a9.42,9.42,0,0,0-1,2.75,11.73,11.73,0,0,0,0,2.92v.08a.9.9,0,0,1-.82,1,.89.89,0,0,1-.62-.18A4.47,4.47,0,0,1,37,43.41a4.6,4.6,0,0,1,2.9-3.54.88.88,0,0,1,1.12.57.86.86,0,0,1,0,.67Z" />
    <path class="cls-2"
      d="M24.12,39.89A4.57,4.57,0,0,1,27,43.43a4.43,4.43,0,0,1-1.51,4.31.9.9,0,0,1-1.26-.17,1,1,0,0,1-.17-.62v-.08a11.32,11.32,0,0,0,0-2.92,9.19,9.19,0,0,0-1-2.75l0-.07a.88.88,0,0,1,.41-1.19A.87.87,0,0,1,24.12,39.89Z" />
  </g>
</svg>