<svg xmlns="http://www.w3.org/2000/svg" xmlns:xlink="http://www.w3.org/1999/xlink"
  viewBox="0 0 64 64">>
  <g data-z="4" data-type="mouth">
    <path class="cls-2"
      d="M35.36,46.12c0,1.79-1.45,2.56-3.23,2.56s-3.24-.77-3.24-2.56,1.45-3.91,3.24-3.91S35.36,44.34,35.36,46.12Z" />
    <path class="cls-5"
      d="M40.36,54.43a4.9,4.9,0,0,0-4.9-4.9,5,5,0,0,0-1.17.15l-.59-2.53a1.22,1.22,0,0,0-1.19-.94h-1a1.22,1.22,0,0,0-1.18.94L29.68,50a4.69,4.69,0,0,0-1.19-.18A4.59,4.59,0,0,0,28,59a5.11,5.11,0,0,0,9.22,0A4.88,4.88,0,0,0,40.36,54.43Z" />
    <path class="cls-tooth"
      d="M34.88,56.88A6.29,6.29,0,0,1,31,55.55a6.16,6.16,0,0,1-7.09-.5A4.58,4.58,0,0,0,28,59a5.11,5.11,0,0,0,9.22,0,4.88,4.88,0,0,0,3.19-4.58,4.48,4.48,0,0,0-.06-.64A6.33,6.33,0,0,1,34.88,56.88Z" />
  </g>
</svg>