<svg xmlns="http://www.w3.org/2000/svg" xmlns:xlink="http://www.w3.org/1999/xlink"
  viewBox="0 0 64 64">>
  <g data-z="6" data-type="mouth">
    <rect class="cls-2" x="13.74" y="40.09" width="36.77" height="13.91" rx="2" />
    <path class="cls-white"
      d="M19.6,48.48c-.07.13-.4.21-1,.23a2.7,2.7,0,0,1-1.22-.15c-.11-.06-.19-.32-.26-.8s-.13-1-.16-1.6-.06-1.15-.07-1.7a9.34,9.34,0,0,1,0-1.09c0-.16.18-.27.48-.35a4.22,4.22,0,0,1,1-.13,4.32,4.32,0,0,1,1,.08c.3.06.46.15.48.28a12.23,12.23,0,0,1,.08,1.38c0,.56,0,1.11,0,1.66s-.07,1-.13,1.45A1.94,1.94,0,0,1,19.6,48.48Zm-1.35,3.2a1.39,1.39,0,0,1-.77-.39,1.36,1.36,0,0,1-.37-.78,1.39,1.39,0,0,1,2.53-.89,1.37,1.37,0,0,1,.17,1,1.54,1.54,0,0,1-.51.85A1.24,1.24,0,0,1,18.25,51.68Z" />
    <path class="cls-white"
      d="M30,46.67a.5.5,0,0,1-.28,0,4.83,4.83,0,0,0-.54,0c0,.19,0,.42,0,.68s0,.48,0,.68h.69c.13,0,.23.13.31.38a2.88,2.88,0,0,1,.11.81,2.82,2.82,0,0,1-.12.83c-.08.25-.2.4-.38.43l-.31,0H29q-.09.93-.21,1a2.07,2.07,0,0,1-1.1.15c-.5,0-.78-.12-.83-.27a2.65,2.65,0,0,1-.14-.87h-.64l-.65,0a3.29,3.29,0,0,1-.13.89c-.06.15-.36.24-.89.27a2.14,2.14,0,0,1-1.13-.15c-.09,0-.17-.43-.24-1.13-.7,0-1.08,0-1.14-.13a2.22,2.22,0,0,1-.15-1.16c0-.55.11-.85.26-.92a.9.9,0,0,1,.31,0l.59,0c0-.2,0-.43,0-.69v-.69h-.78c-.13,0-.23-.13-.29-.37a2.58,2.58,0,0,1-.09-.81,2.77,2.77,0,0,1,.13-.83c.09-.25.22-.4.39-.43l.64,0a3.54,3.54,0,0,1,0-.59c0-.18.18-.3.44-.39a3.36,3.36,0,0,1,.85-.14,3.1,3.1,0,0,1,.83.1c.25.07.38.16.38.29s0,.23,0,.35,0,.25,0,.38l.61,0h.62c0-.3,0-.55,0-.76s.13-.23.37-.3a2.94,2.94,0,0,1,.81-.11,2.84,2.84,0,0,1,.84.12c.26.08.41.2.44.38s0,.47,0,.81a6.49,6.49,0,0,0,.65.05c.17,0,.27,0,.3.07a2.21,2.21,0,0,1,.14,1.18Q30.22,46.6,30,46.67ZM26.75,48c0-.17,0-.38,0-.63v-.64H25.36V48h1.39Z" />
    <path class="cls-white"
      d="M34.07,43.26c0-.15.34-.25.85-.28a2,2,0,0,1,1.09.15,2,2,0,0,1,.19.84l.35.22a2.14,2.14,0,0,1,.75,1.05v0s0,0,0,0a.53.53,0,0,1-.24.4,1.68,1.68,0,0,1-.67.33,3.34,3.34,0,0,1-.78.12.28.28,0,0,1-.17,0,.29.29,0,0,1-.09-.16.39.39,0,0,0-.1-.16.3.3,0,0,0-.18-.06.59.59,0,0,0-.44.19c-.15.13,0,.24.34.32l.32.06a3.76,3.76,0,0,1,1.63.64A2,2,0,0,1,37.76,49a2.34,2.34,0,0,1-1.53,1.77,2.48,2.48,0,0,1-.11.63c-.06.16-.35.25-.86.28a2,2,0,0,1-1.08-.15q-.1-.06-.18-.72a2.47,2.47,0,0,1-1-.66,2.19,2.19,0,0,1-.59-1.07c-.06-.26.07-.46.38-.61a1.46,1.46,0,0,1,.43-.13,2.7,2.7,0,0,1,.48-.05,2.31,2.31,0,0,1,.67.09c.2.06.31.14.34.26s0,.05,0,.06a.32.32,0,0,0,.19.17.38.38,0,0,0,.28,0l.09,0,0,0a.3.3,0,0,0,.12-.13.25.25,0,0,0,0-.17h0v0a.46.46,0,0,0-.25-.14l-.51-.11c-.25-.05-.51-.12-.79-.19a2.24,2.24,0,0,1-.74-.37,1.81,1.81,0,0,1-.53-.7,2.48,2.48,0,0,1-.13-1.15,2.21,2.21,0,0,1,.91-1.61,2.42,2.42,0,0,1,.6-.34A2.84,2.84,0,0,1,34.07,43.26Z" />
    <path class="cls-white"
      d="M45.2,47.89a1.5,1.5,0,0,0,.14-.18s.06-.08.08-.09.24,0,.45.08a4.23,4.23,0,0,1,.65.45,3.79,3.79,0,0,1,.57.56c.15.19.22.32.2.4a1.68,1.68,0,0,1-.2.29c.17.22.26.36.25.43a1.77,1.77,0,0,1-.66,1c-.43.42-.73.62-.9.61a1.72,1.72,0,0,1-.59-.31.2.2,0,0,0-.09,0,4.18,4.18,0,0,1-2.19.51A3.35,3.35,0,0,1,40.84,51a2.36,2.36,0,0,1-.91-1.76,2.54,2.54,0,0,1,.7-1.9A2.23,2.23,0,0,1,40,46a2.79,2.79,0,0,1,.28-1.37,3.06,3.06,0,0,1,.93-1.07A2.65,2.65,0,0,1,42.6,43a2.86,2.86,0,0,1,1.79.4,2.93,2.93,0,0,1,1.09,1.21,2.57,2.57,0,0,1,.21,1.55,2.15,2.15,0,0,1-.84,1.39l.17.16Zm-2.3,1.78a.66.66,0,0,0,.61-.19.61.61,0,0,0,.17-.58.63.63,0,0,0-.57-.45.69.69,0,0,0-.51.11.63.63,0,0,0-.27.41.49.49,0,0,0,.12.46A.65.65,0,0,0,42.9,49.67Zm0-3.56a.51.51,0,0,0,.47-.16.48.48,0,0,0,.12-.46.47.47,0,0,0-.43-.36.45.45,0,0,0-.59.41C42.44,45.87,42.58,46.05,42.92,46.11Z" />
  </g>
</svg>