<svg xmlns="http://www.w3.org/2000/svg" xmlns:xlink="http://www.w3.org/1999/xlink"
  viewBox="0 0 64 64">
  <g data-z="4" data-type="mouth">
    <path class="cls-red"
      d="M32,46.07a11.56,11.56,0,0,0-6.06,1.62,11.22,11.22,0,0,0-3.83,3.74,3.5,3.5,0,0,0,.86,0l.39,0c1.83-.2,3.29-.43,4.68-.57s2.66-.22,4-.24a31.94,31.94,0,0,1,4,.18c1.4.13,2.87.38,4.66.63l.39.06a3,3,0,0,0,.84,0A11.9,11.9,0,0,0,32,46.07Z" />
    <path class="cls-2"
      d="M39.87,42.83a46,46,0,0,1-7.91.65,46.46,46.46,0,0,1-7.88-.69A11.39,11.39,0,0,0,20,47a3,3,0,0,0,2.15,4.43,11.22,11.22,0,0,1,3.83-3.74A11.56,11.56,0,0,1,32,46.07a11.9,11.9,0,0,1,9.87,5.4A3,3,0,0,0,44,47,12,12,0,0,0,39.87,42.83Z" />
    <path class="cls-white"
      d="M39.87,42.83A15.31,15.31,0,0,0,32,40.62a15,15,0,0,0-7,1.63c-.32.17-.64.35-.94.54a46.46,46.46,0,0,0,7.88.69A46,46,0,0,0,39.87,42.83Z" />
  </g>
</svg>