<svg xmlns="http://www.w3.org/2000/svg" xmlns:xlink="http://www.w3.org/1999/xlink"
  viewBox="0 0 64 64">
  <title>Down Open Mouth</title>
  <g data-z="4" data-type="mouth">
    <path class="cls-white"
      d="M41.13,53.45a103.11,103.11,0,0,0-18.26,0,5.6,5.6,0,0,1-6-4.54h0a5.55,5.55,0,0,1,5.07-6.39,111.72,111.72,0,0,1,20.2,0,5.55,5.55,0,0,1,5.07,6.39h0A5.6,5.6,0,0,1,41.13,53.45Z" />
    <path class="cls-tooth"
      d="M25.55,47.06C23,47,19.84,46.89,16.86,47a5,5,0,0,0,.2,2.79,65.4,65.4,0,0,1,8.52-1.89A.4.4,0,0,0,25.55,47.06Z" />
    <path class="cls-tooth"
      d="M47.14,47c-3-.08-6.32,0-8.94.1a.4.4,0,0,0,0,.79,68.56,68.56,0,0,1,8.76,1.95,6.12,6.12,0,0,0,.25-.89A5.54,5.54,0,0,0,47.14,47Z" />
  </g>
</svg>