<svg xmlns="http://www.w3.org/2000/svg" viewBox="0 0 64 64">
  <defs>
    <style>
      .cls-2{fill:#1a1a1a;}.cls-5{fill:#fff;}.cls-tounge{fill:#c62d43;}
    </style>
  </defs>
  <title>jaw drop</title>
  <g data-z="4" data-type="mouth">
    <path class="cls-2"
      d="M37.7,51.44A8.65,8.65,0,0,0,37.82,50,12,12,0,0,0,36,43.76a16,16,0,0,1-7.79,0A12,12,0,0,0,26.43,50a7.73,7.73,0,0,0,.13,1.49,12.88,12.88,0,0,1,5.57-1.09A12.91,12.91,0,0,1,37.7,51.44Z" />
    <path class="cls-5"
      d="M36,43.76c-1-1.6-2.38-2.71-3.89-2.71s-2.88,1.11-3.9,2.71a16,16,0,0,0,7.79,0Z" />
    <path class="cls-tounge"
      d="M32.13,56a5.25,5.25,0,0,0,5.57-4.52,12.91,12.91,0,0,0-5.57-1.09,12.88,12.88,0,0,0-5.57,1.09A5.24,5.24,0,0,0,32.13,56Z" />
  </g>
</svg>