<svg xmlns="http://www.w3.org/2000/svg" xmlns:xlink="http://www.w3.org/1999/xlink"
  viewBox="0 0 64 64">>
  <g data-z="4" data-type="mouth">
    <path class="cls-2"
      d="M32.47,51.94a14.6,14.6,0,0,0,2-1.31A2.91,2.91,0,0,0,35,50a.53.53,0,0,0,0-.62,2.91,2.91,0,0,0-.55-.62,14.6,14.6,0,0,0-2-1.31l0,0a.65.65,0,0,1-.22-.9.62.62,0,0,1,.41-.3,5,5,0,0,1,3.11.26,4.28,4.28,0,0,1,1.52,1.07,3.15,3.15,0,0,1,0,4.28,4.28,4.28,0,0,1-1.52,1.07,5,5,0,0,1-3.11.26.65.65,0,0,1-.49-.79.65.65,0,0,1,.29-.41Z" />
    <path class="cls-2"
      d="M32.47,46.23a14.6,14.6,0,0,0,2-1.31A2.91,2.91,0,0,0,35,44.3a.77.77,0,0,0,.1-.31.75.75,0,0,0-.1-.32,2.91,2.91,0,0,0-.55-.62,14.6,14.6,0,0,0-2-1.31l0,0a.66.66,0,0,1,.19-1.21,5,5,0,0,1,3.11.27,4.25,4.25,0,0,1,1.52,1.06,3.16,3.16,0,0,1,0,4.29,4.25,4.25,0,0,1-1.52,1.06,5,5,0,0,1-3.11.27.66.66,0,0,1-.49-.8.63.63,0,0,1,.29-.4Z" />
  </g>
</svg>