<svg xmlns="http://www.w3.org/2000/svg" xmlns:xlink="http://www.w3.org/1999/xlink"
  viewBox="0 0 64 64">
  <g data-z="4" data-type="mouth">
    <path class="cls-white"
      d="M11.26,54.65c4.59-3.93,12.46-6.52,21.4-6.52,8.49,0,16,2.33,20.68,5.93" />
    <path class="cls-white"
      d="M59.33,39.26C53.41,42.16,43.68,44,32.66,44c-11.86,0-22.24-2.18-28-5.45" />
    <path class="cls-white"
      d="M49,53.91c-5.92,5.74-27.61,5.74-33.54,0-2.67-2.59-4.1-12.32-1.16-14.62,4.6-3.59,31.27-3.59,35.87,0C53.1,41.59,51.66,51.32,49,53.91Z" />
    <path class="cls-tooth"
      d="M49.6,50.92c-6.14,5-28.61,5-34.76,0A7,7,0,0,1,13,48.21c.47,2.43,1.34,4.65,2.42,5.7,5.93,5.74,27.62,5.74,33.54,0,1.09-1,2-3.27,2.42-5.7A6.8,6.8,0,0,1,49.6,50.92Z" />
    <path class="cls-tooth"
      d="M20.38,47.86c4,.37,7.89.58,11.84.56s7.88-.22,11.85-.56a.84.84,0,0,1,.37,1.63,29.22,29.22,0,0,1-6,1.49A43.69,43.69,0,0,1,26,51a29.82,29.82,0,0,1-6-1.47.84.84,0,0,1,.37-1.63Z" />
    <path class="cls-tooth"
      d="M20.12,42.68a47.34,47.34,0,0,1,6-.87c2-.18,4.05-.25,6.07-.26s4.05.06,6.07.24a42.71,42.71,0,0,1,6,.89.84.84,0,0,1,.63,1,.85.85,0,0,1-.78.66c-2,.11-4,.15-6,.17s-4,0-6,0c-4,0-7.95,0-12-.19a.85.85,0,0,1-.8-.88A.83.83,0,0,1,20.12,42.68Z" />
  </g>
</svg>