<svg xmlns="http://www.w3.org/2000/svg" xmlns:xlink="http://www.w3.org/1999/xlink"
  viewBox="0 0 64 64">
  <g data-z="4" data-type="mouth">
    <path class="cls-white"
      d="M29.64,48.37a15.56,15.56,0,0,0,2.37.18,14.78,14.78,0,0,0,2.31-.15,2,2,0,0,0,1.82-2v-2.2c-.54.1-1,.2-1.5.27a21.61,21.61,0,0,1-2.64.23,15.78,15.78,0,0,1-2.66-.18c-.47-.07-1-.16-1.5-.28v2.12A2,2,0,0,0,29.64,48.37Z" />
    <path class="cls-2"
      d="M41.15,47.05a2.41,2.41,0,0,0,.13-1.36,2.45,2.45,0,0,0-2.87-1.94l-.33.07-1.94.39v2.2a2.06,2.06,0,0,1-.36,1.14,11.07,11.07,0,0,1,3.84,1.91A7.65,7.65,0,0,0,41.15,47.05Z" />
    <path class="cls-2"
      d="M27.84,46.37V44.25l-1.92-.43-.31-.08a2.48,2.48,0,0,0-1.49.14,2.4,2.4,0,0,0-1.27,3.17,8.19,8.19,0,0,0,1.56,2.37,11,11,0,0,1,3.81-1.88A2,2,0,0,1,27.84,46.37Z" />
    <path class="cls-red"
      d="M32,52.7a10.41,10.41,0,0,0,5.6-1.56,9.41,9.41,0,0,0,2-1.68,11.07,11.07,0,0,0-3.84-1.91,2,2,0,0,1-1.46.85,14.78,14.78,0,0,1-2.31.15,15.56,15.56,0,0,1-2.37-.18,2,2,0,0,1-1.42-.83,11,11,0,0,0-3.81,1.88,9.92,9.92,0,0,0,2,1.67A10.74,10.74,0,0,0,32,52.7Z" />
  </g>
</svg>