<svg xmlns="http://www.w3.org/2000/svg" xmlns:xlink="http://www.w3.org/1999/xlink"
  viewBox="0 0 64 64">>
  <g data-z="4" data-type="mouth">
    <path class="cls-skin"
      d="M42.7,51.37A2,2,0,0,0,40,50.59l-5.14,2.68,6.56-5a2,2,0,0,0,.44-2.81A2,2,0,0,0,39,45l-6.1,4.68,5.88-6.54a2,2,0,0,0-.08-2.84,2,2,0,0,0-2.85.12l-5.67,6.31,3.35-5.47a2,2,0,0,0-.6-2.78,2,2,0,0,0-2.78.64l-2.44,4a11.79,11.79,0,0,1-3.09,3.36h0A.88.88,0,0,1,23.26,46h0a.82.82,0,0,1,0-.41l.72-3.7a2,2,0,0,0-1.52-2.4,2,2,0,0,0-2.38,1.57l-1.93,9.82a11.43,11.43,0,0,0-.3,1.15A3.62,3.62,0,0,0,18.45,55l3.71,5.07a3.62,3.62,0,0,0,3.7,1.4A25.42,25.42,0,0,0,32.61,59l9.27-4.85A2,2,0,0,0,42.7,51.37Z" />
  </g>
</svg>