<svg xmlns="http://www.w3.org/2000/svg" xmlns:xlink="http://www.w3.org/1999/xlink"
  viewBox="0 0 64 64">
  <title>Down Open Mouth</title>
  <g data-z="4" data-type="mouth">
    <path class="cls-white"
      d="M22.21,44.18c2.22,1.78,6,3,10.22,3s8-1.17,10.21-3c-3.2-.29-6.63-.45-10.21-.45S25.41,43.89,22.21,44.18Z" />
    <path class="cls-red"
      d="M32.53,50.92a15.41,15.41,0,0,0-7.39,1.78,12.07,12.07,0,0,0,14.66-.06A15.49,15.49,0,0,0,32.53,50.92Z" />
    <path class="cls-2"
      d="M42.65,44.18h0c-2.21,1.78-6,3-10.21,3s-8-1.17-10.22-3h0a1.63,1.63,0,0,0-1.43,2,12.09,12.09,0,0,0,4.37,6.48h0a15.41,15.41,0,0,1,7.39-1.78,15.49,15.49,0,0,1,7.27,1.72,12,12,0,0,0,4.28-6.42A1.63,1.63,0,0,0,42.65,44.18Z" />
  </g>
</svg>