<svg xmlns="http://www.w3.org/2000/svg" xmlns:xlink="http://www.w3.org/1999/xlink"
  viewBox="0 0 64 64">> <g data-z="4" data-type="mouth">
    <path class="cls-2"
      d="M38.58,45.77a9.52,9.52,0,0,0,.27-2.26c0-4.66-3.07-9.45-6.85-9.45s-6.85,4.79-6.85,9.45a9.52,9.52,0,0,0,.27,2.26A11.42,11.42,0,0,1,32,43.9,11.42,11.42,0,0,1,38.58,45.77Z" />
    <path class="cls-pink-2"
      d="M32,51a6.59,6.59,0,0,0,6.58-5.19A11.42,11.42,0,0,0,32,43.9a11.42,11.42,0,0,0-6.58,1.87A6.59,6.59,0,0,0,32,51Z" />
  </g>
</svg>