<svg xmlns="http://www.w3.org/2000/svg" xmlns:xlink="http://www.w3.org/1999/xlink"
  viewBox="0 0 64 64">
  <g data-z="4" data-type="mouth">
    <path class="cls-party-5" d="M47.66,43.81a2,2,0,1,1,0-3.92,3.92,3.92,0,1,1,0,7.84H35.37" />
    <path class="cls-party-2"
      d="M32.42,52.43a13.62,13.62,0,0,0,1.79-1.25,2.39,2.39,0,0,0,.48-.56.41.41,0,0,0,0-.46,2.39,2.39,0,0,0-.48-.56,13.62,13.62,0,0,0-1.79-1.25l0,0a.66.66,0,0,1-.2-.92.72.72,0,0,1,.39-.28,4.55,4.55,0,0,1,2.94.21,3.92,3.92,0,0,1,1.44,1,3,3,0,0,1,0,4.12,3.92,3.92,0,0,1-1.44,1,4.55,4.55,0,0,1-2.94.21.67.67,0,0,1-.47-.81.62.62,0,0,1,.28-.39Z" />
    <path class="cls-party-2"
      d="M32.42,47.12a13.59,13.59,0,0,0,1.79-1.26,2,2,0,0,0,.48-.56c.08-.16.07-.21.07-.22a.42.42,0,0,0-.07-.23,2.2,2.2,0,0,0-.48-.56A13.62,13.62,0,0,0,32.42,43l0,0a.65.65,0,0,1-.2-.91.67.67,0,0,1,.39-.28,4.61,4.61,0,0,1,2.94.2A4,4,0,0,1,37,43a3.17,3.17,0,0,1,.81,2.06A3.12,3.12,0,0,1,37,47.13a4,4,0,0,1-1.44,1,4.61,4.61,0,0,1-2.94.21.67.67,0,0,1-.47-.81.62.62,0,0,1,.28-.39Z" />
  </g>
</svg>