<svg xmlns="http://www.w3.org/2000/svg" xmlns:xlink="http://www.w3.org/1999/xlink"
  viewBox="0 0 64 64">
  <g data-z="4" data-type="mouth">
    <path class="cls-2"
      d="M27.46,36.7a22.53,22.53,0,0,0,4.54.51c.72,0,1.43-.07,2.17-.15s1.5-.23,2.37-.36l.12,0a1.18,1.18,0,0,1,1.35,1,1.19,1.19,0,0,1-.21.87A7.11,7.11,0,0,1,32,41.2a7.34,7.34,0,0,1-5.79-2.66,1.17,1.17,0,0,1,1.15-1.86Z" />
    <path class="cls-skin"
      d="M39.36,51.33a4.34,4.34,0,0,0-2.18.09s2.65-6.23-4.68-5.91a20.63,20.63,0,0,0,2-9.38,2.17,2.17,0,0,0-4.25-.39c-.53,2.34-1.76,6.71-4,9.24A18.7,18.7,0,0,0,22,53.08a5.51,5.51,0,0,0,1.24,4.55,8.93,8.93,0,0,0,5.17,3.09,5.06,5.06,0,0,0,4.36-1.24,33.68,33.68,0,0,1,7.07-4.72A1.83,1.83,0,0,0,39.36,51.33Z" />
  </g>
</svg>