<svg xmlns="http://www.w3.org/2000/svg" xmlns:xlink="http://www.w3.org/1999/xlink"
  viewBox="0 0 64 64">> <g data-z="4" data-type="mouth">
    <path class="cls-pink" d="M36.35,50.39l1.73,2a6.72,6.72,0,0,0,10.1-8.86l-1.73-2Z" />
    <path class="cls-pink-2"
      d="M40.55,47a13.61,13.61,0,0,1,5.71,2.62.35.35,0,0,0,.57-.35,6.57,6.57,0,0,0-4.17-4.34.37.37,0,0,0-.35,0l-1.89,1.41A.35.35,0,0,0,40.55,47Z" />
    <path class="cls-pink-2"
      d="M38.08,52.35a6.71,6.71,0,0,0,9.48.62c.15-.13.28-.27.42-.41a8.17,8.17,0,0,1-10.35-3.29l-1.28,1.12Z" />
    <path class="cls-2"
      d="M17.84,40.15a12.14,12.14,0,0,0,6,5.5,20.12,20.12,0,0,0,16.19,0,12.12,12.12,0,0,0,6-5.5l0,0a.84.84,0,0,1,1.12-.38.83.83,0,0,1,.45.85,10,10,0,0,1-2,4.71,14,14,0,0,1-3.86,3.41,19.34,19.34,0,0,1-19.51,0,13.81,13.81,0,0,1-3.86-3.41,10.1,10.1,0,0,1-2-4.71.84.84,0,0,1,1.58-.47Z" />
  </g>
</svg>