<svg xmlns="http://www.w3.org/2000/svg" xmlns:xlink="http://www.w3.org/1999/xlink"
  viewBox="0 0 64 64">>
  <g data-z="4" data-type="mouth">
    <path class="cls-2"
      d="M21.52,41.28a39.41,39.41,0,0,0,5.3,1.41,26.71,26.71,0,0,0,5.18.48,29.24,29.24,0,0,0,5.17-.52,47.83,47.83,0,0,0,5.31-1.37l.07,0a1.72,1.72,0,0,1,1.8,2.79,14.81,14.81,0,0,1-5.58,3.84A18,18,0,0,1,32,49.16a18.36,18.36,0,0,1-6.76-1.31,15.47,15.47,0,0,1-5.59-3.8,1.73,1.73,0,0,1,1.8-2.8Z" />
    <path class="cls-red"
      d="M32,46.27a28.44,28.44,0,0,0-7.83,1.07c.36.18.71.36,1.08.51A18.36,18.36,0,0,0,32,49.16a18,18,0,0,0,6.77-1.27c.39-.16.76-.34,1.13-.53A28.53,28.53,0,0,0,32,46.27Z" />
  </g>
</svg>