<svg xmlns="http://www.w3.org/2000/svg" viewBox="0 0 64 64">
  <defs>
    <style>
      .cls-white{fill:#fff;}.cls-tooth{fill:#96dbff;}
    </style>
  </defs>
  <title>smile teeth mouth</title>
  <g data-z="4">
    <path class="cls-white"
      d="M44.61,42.51h0C40.66,42.15,36.42,42,32,42s-8.66.2-12.6.56h0A2,2,0,0,0,17.62,45,14.93,14.93,0,0,0,23,53h0a14.9,14.9,0,0,0,23.37-8A2,2,0,0,0,44.61,42.51Z" />
    <path class="cls-tooth"
      d="M39.81,47a.3.3,0,0,0,0,.59,36,36,0,0,1,5,1.15A14.43,14.43,0,0,0,46,46.29C44,46.58,42,46.8,39.81,47Z" />
    <path class="cls-tooth"
      d="M24.19,47C22,46.8,20,46.58,18,46.29a14.43,14.43,0,0,0,1.15,2.41,36,36,0,0,1,5-1.15A.3.3,0,0,0,24.19,47Z" />
  </g>
</svg>