<svg xmlns="http://www.w3.org/2000/svg" viewBox="0 0 64 64">
  <defs>
    <style>
      .cls-red{fill:#fff;}
    </style>
  </defs>
  <title>smile lips</title>
  <g data-z="4" data-type="mouth">
    <path class="cls-white"
      d="M32,55.27A15,15,0,0,1,21.38,51a2.63,2.63,0,0,1-.74-1.88,2.64,2.64,0,0,1,3.55-2.44,26.41,26.41,0,0,0,4,1.2,18.27,18.27,0,0,0,3.63.39H32a19.18,19.18,0,0,0,3.85-.41,30.71,30.71,0,0,0,4-1.16,2.81,2.81,0,0,1,.92-.17A2.64,2.64,0,0,1,42.64,51a13.31,13.31,0,0,1-4.9,3.23A15.73,15.73,0,0,1,32,55.27Z" />
    <path class="cls-red"
      d="M23.27,48a1.09,1.09,0,0,1,.4.07h0a27.17,27.17,0,0,0,4.15,1.25,20.21,20.21,0,0,0,3.94.42H32a20.63,20.63,0,0,0,4.13-.44,32.28,32.28,0,0,0,4.16-1.22h0a1.34,1.34,0,0,1,.39-.07,1.16,1.16,0,0,1,1.08.76A1.18,1.18,0,0,1,41.54,50a11.68,11.68,0,0,1-4.34,2.85,14.21,14.21,0,0,1-5.16,1h0A13.5,13.5,0,0,1,22.46,50a1.14,1.14,0,0,1,0-1.61,1.11,1.11,0,0,1,.79-.32m0-3h0a4.13,4.13,0,0,0-3,7A16.43,16.43,0,0,0,32,56.77H32a17.21,17.21,0,0,0,6.25-1.15A14.8,14.8,0,0,0,43.73,52a4.14,4.14,0,0,0-4.41-6.74,29.18,29.18,0,0,1-3.81,1.13,18,18,0,0,1-3.52.37H31.8a17,17,0,0,1-3.35-.36,25.52,25.52,0,0,1-3.69-1.12A4.16,4.16,0,0,0,23.27,45Z" />
  </g>
</svg>