<svg xmlns="http://www.w3.org/2000/svg" xmlns:xlink="http://www.w3.org/1999/xlink"
  viewBox="0 0 64 64">> <g data-z="4" data-type="mouth">
    <path class="cls-white"
      d="M43.38,48.69,56.65,35.43a2.64,2.64,0,0,0,0-3.72h0a2.63,2.63,0,0,0-3.72,0L39.67,45Z" />
    <path class="cls-red" d="M40.62,45.93,50.76,35.79a1.28,1.28,0,0,1,1.81,1.81L42.43,47.74Z" />
    <path class="cls-2"
      d="M43.45,50.13a26.3,26.3,0,0,0-5.57-3A16.62,16.62,0,0,0,32,46a16.83,16.83,0,0,0-5.87,1.11,27.67,27.67,0,0,0-5.58,3h0A1.13,1.13,0,0,1,19,48.51a16.47,16.47,0,0,1,5.63-4.68A16,16,0,0,1,32,42.05a16.32,16.32,0,0,1,7.35,1.8A17.09,17.09,0,0,1,45,48.51a1.13,1.13,0,0,1-1.52,1.63Z" />
  </g>
</svg>