<svg xmlns="http://www.w3.org/2000/svg" xmlns:xlink="http://www.w3.org/1999/xlink"
  viewBox="0 0 64 64">> <g data-z="4" data-type="mouth">
    <path class="cls-2"
      d="M44.61,42.51h0q-1.47-.13-3-.24A24,24,0,0,1,32,44.14a24,24,0,0,1-9.6-1.87q-1.53.1-3,.24h0A2,2,0,0,0,17.62,45,14.93,14.93,0,0,0,23,53h0a14.9,14.9,0,0,0,23.37-8A2,2,0,0,0,44.61,42.51Z" />
    <path class="cls-white"
      d="M41.6,42.27C38.53,42.06,35.32,42,32,42s-6.53.11-9.6.32A24,24,0,0,0,32,44.14,24,24,0,0,0,41.6,42.27Z" />

    <path class="cls-pink"
      d="M41.42,48.48c0-1.22-4.16-2.21-9.29-2.21s-9.29,1-9.3,2.21h0v3.23a9.3,9.3,0,0,0,18.59,0V48.48Z" />
    <path class="cls-pink-2"
      d="M32.13,58a9.59,9.59,0,0,1-9.3-6.85v.56a9.3,9.3,0,0,0,18.59,0v-.56A9.59,9.59,0,0,1,32.13,58Z" />
    <path class="cls-pink-2"
      d="M32.13,46.27c-.49,0-1,0-1.43,0,.28,4.08.81,6.85,1.43,6.85s1.14-2.77,1.42-6.85C33.08,46.28,32.61,46.27,32.13,46.27Z" />
  </g>
</svg>