<svg xmlns="http://www.w3.org/2000/svg" xmlns:xlink="http://www.w3.org/1999/xlink"
  viewBox="0 0 64 64">> <g data-z="4" data-type="mouth">
    <path class="cls-2"
      d="M37.76,49c-1.29.09-2.27.1-3.2.15L32,49.24c-.83,0-1.64,0-2.55,0s-1.89-.06-3.21-.2L25.67,49a2.84,2.84,0,0,1-2.53-3.12,3,3,0,0,1,.29-1,8,8,0,0,1,3.62-3.47A10.63,10.63,0,0,1,32,40.28a11.11,11.11,0,0,1,4.93,1.18,8.53,8.53,0,0,1,3.64,3.42,2.8,2.8,0,0,1-1.14,3.79,2.87,2.87,0,0,1-1.11.32Z" />
    <path class="cls-pink"
      d="M38.47,46.3c0-.84-2.89-2.53-6.46-2.53s-6.45,1.69-6.45,2.53h0v1.25a6.46,6.46,0,0,0,12.91,0V46.3Z" />
    <path class="cls-pink-2"
      d="M32,51.92a6.66,6.66,0,0,1-6.45-4.76v.39a6.46,6.46,0,0,0,12.91,0v-.39A6.66,6.66,0,0,1,32,51.92Z" />
    <path class="cls-pink-2"
      d="M32,43.77c-.36,0-.72,0-1.07,0,.24,2.26.63,3.73,1.07,3.73s.84-1.47,1.08-3.73C32.74,43.79,32.38,43.77,32,43.77Z" />
  </g>
</svg>