<svg xmlns="http://www.w3.org/2000/svg" xmlns:xlink="http://www.w3.org/1999/xlink"
  viewBox="0 0 64 64">>
  <g data-z="4" data-type="mouth">
    <path class="cls-2"
      d="M44.61,42.51h0q-1.47-.13-3-.24A24,24,0,0,1,32,44.14a24,24,0,0,1-9.6-1.87q-1.53.1-3,.24h0A2,2,0,0,0,17.62,45,14.93,14.93,0,0,0,23,53h0a14.9,14.9,0,0,0,23.37-8A2,2,0,0,0,44.61,42.51Z" />
    <path class="cls-vomit-5" d="M41.42,42.48H22.83v9.23a9.3,9.3,0,0,0,18.59,0V42.48Z" />
    <path class="cls-vomit-6"
      d="M32.13,58a9.59,9.59,0,0,1-9.3-6.85v.56a9.3,9.3,0,0,0,18.59,0v-.56A9.59,9.59,0,0,1,32.13,58Z" />
    <path class="cls-white"
      d="M41.6,42.27C38.53,42.06,35.32,42,32,42s-6.53.11-9.6.32A24,24,0,0,0,32,44.14,24,24,0,0,0,41.6,42.27Z" />
    <path class="cls-vomit-6"
      d="M35.53,52.15A2,2,0,0,0,35,51.4a3.49,3.49,0,0,0-.91-.55,9.31,9.31,0,0,0-1.23-.41h0V48.55a2.91,2.91,0,0,1,.39.12,7.13,7.13,0,0,1,1.2.65l1-1.5A5.25,5.25,0,0,0,33.89,47a5.17,5.17,0,0,0-1.08-.24v-.89H31.75v.85a3.79,3.79,0,0,0-1,.17,3,3,0,0,0-1,.56,2.52,2.52,0,0,0-.89,2v0a2.53,2.53,0,0,0,.22,1.13,2,2,0,0,0,.6.76,3.42,3.42,0,0,0,.95.51,9,9,0,0,0,1.1.34v2A3.36,3.36,0,0,1,31,54a6.14,6.14,0,0,1-1.28-.8l-1.18,1.42a5.32,5.32,0,0,0,1.82,1.09,5.77,5.77,0,0,0,1.4.31v.88h1.06V56a3.84,3.84,0,0,0,.93-.16,2.9,2.9,0,0,0,1-.54,2.64,2.64,0,0,0,.69-.89,2.86,2.86,0,0,0,.24-1.2v0A2.44,2.44,0,0,0,35.53,52.15Zm-4.28-2.23a.73.73,0,0,1-.31-.29.92.92,0,0,1-.08-.38v0a.7.7,0,0,1,.29-.57,1.25,1.25,0,0,1,.6-.19v1.67A2,2,0,0,1,31.25,49.92Zm2.49,3.47a.73.73,0,0,1-.34.64,1.42,1.42,0,0,1-.59.18V52.48h0a2.94,2.94,0,0,1,.56.27.63.63,0,0,1,.27.27.78.78,0,0,1,.07.35Z" />
  </g>
</svg>