<svg xmlns="http://www.w3.org/2000/svg" xmlns:xlink="http://www.w3.org/1999/xlink"
  viewBox="0 0 64 64">
  <g data-z="4" data-type="mouth" class="mouth" transform="rotate(90deg)">
    <path class="cls-vomit-2"
      d="M42.18,39.73A32.21,32.21,0,0,1,32,41.32a32.21,32.21,0,0,1-10.18-1.59,8.91,8.91,0,0,0-3.54,6.84c0,5.65,6.14,7,13.72,7s13.72-1.35,13.72-7A8.91,8.91,0,0,0,42.18,39.73Z" />
    <path class="cls-vomit-5"
      d="M55.36,57.24c0,2-10.46,2.5-23.36,2.5s-23.36-.48-23.36-2.5S19.1,53.57,32,53.57,55.36,55.21,55.36,57.24Z" />
    <path class="cls-vomit-5"
      d="M43.7,54.08c0,6.31-5.24,4.65-11.7,4.65s-11.7,1.66-11.7-4.65C20.3,45,25.54,39.49,32,39.49S43.7,45,43.7,54.08Z" />
    <path class="cls-vomit-6"
      d="M32,45.62c4.71,0,8.87,1.63,11.34,4.56C42.06,43.43,37.48,39.49,32,39.49S21.94,43.43,20.66,50.18C23.13,47.25,27.29,45.62,32,45.62Z" />
    <path class="cls-vomit-5"
      d="M23.16,53.19c-7.65-3.26-12-4-12.44-2.92s3.32,3.1,11,6.36l.08,0,1.46-3.44Z" />
    <path class="cls-vomit-5"
      d="M49.11,52.38c-.42-1.15-7,.21-14.83,3l1.28,3.51C43.34,56.1,49.53,53.53,49.11,52.38Z" />
    <path class="cls-vomit-5"
      d="M53.75,43.26c.75.73.55,2.16-.46,3.19s-3.6,2.49-4.36,1.76.63-3.38,1.63-4.41S53,42.52,53.75,43.26Z" />
    <path class="cls-vomit-7"
      d="M42.18,39.73A16,16,0,0,0,32,36.34a16,16,0,0,0-10.18,3.39A32.21,32.21,0,0,0,32,41.32,32.21,32.21,0,0,0,42.18,39.73Z" />
    <path class="cls-vomit-8"
      d="M21.82,56.53c0,.79-1.19,1.06-2.67,1.06s-2.67-.27-2.67-1.06,1.19-1.43,2.67-1.43S21.82,55.74,21.82,56.53Z" />
    <path class="cls-vomit-8"
      d="M44.63,56.56c0,.57.71.77,1.79.77s2.1-.17,2.11-.74-1-1-2.09-1S44.64,56,44.63,56.56Z" />
  </g>
</svg>