<svg xmlns="http://www.w3.org/2000/svg" xmlns:xlink="http://www.w3.org/1999/xlink"
  viewBox="0 0 64 64">
  <g data-z="4" data-type="mouth">
    <path class="cls-2"
      d="M48.52,45.07a10.91,10.91,0,0,1-6.8,4.54,11.25,11.25,0,0,1-4.25.08,13.14,13.14,0,0,1-2.07-.55A12.16,12.16,0,0,0,34,48.62a4,4,0,0,0-2.33.17,4.25,4.25,0,0,0-1,.58l-.39.31a5.3,5.3,0,0,1-.51.36,6.64,6.64,0,0,1-1.05.56,8.05,8.05,0,0,1-8.39-1.28,1.39,1.39,0,0,1,1.65-2.23l0,0a5.32,5.32,0,0,0,5.19.2,4.06,4.06,0,0,0,.51-.32,2.13,2.13,0,0,0,.22-.18l.29-.27a7.33,7.33,0,0,1,2-1.31,7.51,7.51,0,0,1,4.7-.5,11,11,0,0,1,2,.67,9.47,9.47,0,0,0,1.38.4,8.7,8.7,0,0,0,2.88.09,9.66,9.66,0,0,0,5.32-2.58l0,0a1.39,1.39,0,0,1,2.12,1.78Z" />
  </g>
</svg>