<svg xmlns="http://www.w3.org/2000/svg" xmlns:xlink="http://www.w3.org/1999/xlink"
  viewBox="0 0 64 64">
  <title>Down Open Mouth</title>
  <g data-z="4" data-type="mouth">
    <path class="cls-2"
      d="M46.37,47l-2.58-2.57h2.13l-4,4.53a1.75,1.75,0,0,1-2.47.14l0,0-.1-.1-4.38-4.2h2.79l-4.27,4.3a2,2,0,1,1-2.84-2.81h0L34.89,42l0,0a1.93,1.93,0,0,1,2.73,0l0,0,4.2,4.37H39.27l4.52-4,.07-.06a1.5,1.5,0,0,1,2.06.06l2.58,2.57A1.51,1.51,0,1,1,46.37,47Z" />
    <path class="cls-2"
      d="M15.5,44.87l2.58-2.57a1.49,1.49,0,0,1,2.06-.06l.07.06,4.52,4H22.12L26.32,42a1.93,1.93,0,0,1,2.73-.06l0,0,0,0,4.3,4.27a2,2,0,1,1-2.81,2.84v0l-4.27-4.3h2.79L24.73,49l-.1.1A1.75,1.75,0,0,1,22.16,49l0,0-4-4.53h2.13L17.63,47a1.51,1.51,0,1,1-2.13-2.13Z" />
  </g>
</svg>