<svg xmlns="http://www.w3.org/2000/svg" xmlns:xlink="http://www.w3.org/1999/xlink"
  viewBox="0 0 64 64">
  <g data-z="4" data-type="mouth">
    <path class="cls-7"
      d="M44.3,42.68H41.65a1,1,0,0,0-1,1v3.66H38V43.68a1,1,0,0,0-1-1H34.33a1,1,0,0,0-1,1v3.66H30.67V43.68a1,1,0,0,0-1-1H27a1,1,0,0,0-1,1v3.66H23.35V43.68a1,1,0,0,0-1-1H19.7a1,1,0,0,0-1,1v2.66a1,1,0,0,0,1,1h2.65V51a1,1,0,0,0,1,1H26a1,1,0,0,0,1-1V47.34h2.66V51a1,1,0,0,0,1,1h2.66a1,1,0,0,0,1-1V47.34H37V51a1,1,0,0,0,1,1h2.66a1,1,0,0,0,1-1V47.34H44.3a1,1,0,0,0,1-1V43.68A1,1,0,0,0,44.3,42.68Z" />
    <path class="cls-7"
      d="M46.79,45.56a1,1,0,0,0-1.38,0l-1.92,1.92a1,1,0,0,0,0,1.38l4.82,5.31a2,2,0,0,0,2.89.07l1-1a2,2,0,0,0-.08-2.9Zm3.69,7a1.14,1.14,0,0,1-1.62,0,1.15,1.15,0,1,1,1.62,0Z" />
  </g>
</svg>