<svg xmlns="http://www.w3.org/2000/svg" viewBox="0 0 64 64">
  <g data-z="2" data-type="eye">
    <g class="eye left">
      <path class="cls-white" d="M44.5,40.65a9.28,9.28,0,1,1,9.28-9.28A9.29,9.29,0,0,1,44.5,40.65Z" />
      <path class="cls-skyblue"
        d="M44.5,23.6a7.78,7.78,0,1,1-7.78,7.77A7.78,7.78,0,0,1,44.5,23.6m0-3A10.78,10.78,0,1,0,55.28,31.37,10.79,10.79,0,0,0,44.5,20.6Z" />
      <circle class="cls-2" cx="42.34" cy="31.37" r="4.52" />
    </g>

    <g class="eye right">
      <path class="cls-white" d="M19.5,40.65a9.28,9.28,0,1,1,9.28-9.28A9.29,9.29,0,0,1,19.5,40.65Z" />
      <path class="cls-skyblue"
        d="M19.5,23.6a7.78,7.78,0,1,1-7.78,7.77A7.77,7.77,0,0,1,19.5,23.6m0-3A10.78,10.78,0,1,0,30.28,31.37,10.79,10.79,0,0,0,19.5,20.6Z" />
      <circle class="cls-2" cx="21.66" cy="31.37" r="4.52" />
    </g>
    
  </g>
</svg>