<svg xmlns="http://www.w3.org/2000/svg" viewBox="0 0 64 64">
  <g data-z="2" data-type="eye">
    <g class="eye left">
      <path class="cls-2"
        d="M15.6,24.16c1.09.71,2.13,1.48,3.16,2.26s2,1.6,3,2.42,2,1.68,2.9,2.56,1.89,1.77,2.78,2.73a1.61,1.61,0,0,1-2.06,2.45c-1.1-.7-2.14-1.47-3.17-2.26s-2-1.59-3-2.41-2-1.68-2.92-2.56-1.88-1.77-2.77-2.73a1.61,1.61,0,0,1,.1-2.28A1.63,1.63,0,0,1,15.6,24.16Z" />
      <path class="cls-2"
        d="M14.29,35.28c.7-1.1,1.48-2.13,2.26-3.17s1.59-2,2.42-3,1.68-2,2.56-2.91,1.77-1.89,2.72-2.77a1.62,1.62,0,0,1,2.46,2.06c-.71,1.09-1.48,2.13-2.26,3.16s-1.6,2-2.42,3-1.67,2-2.56,2.91-1.76,1.89-2.72,2.77a1.62,1.62,0,0,1-2.46-2.06Z" />
    </g>

    <g class="eye right">
      <path class="cls-2"
        d="M39.75,23.41c1,.88,1.84,1.82,2.72,2.77S44.2,28.1,45,29.09s1.65,2,2.42,3,1.55,2.07,2.26,3.16a1.62,1.62,0,0,1-2.46,2.06c-1-.88-1.84-1.82-2.72-2.77S42.81,32.64,42,31.66s-1.65-2-2.42-3S38,26.56,37.29,25.47a1.62,1.62,0,0,1,2.46-2.06Z" />
      <path class="cls-2"
        d="M36.53,34.13c.88-1,1.83-1.85,2.77-2.73s1.93-1.72,2.91-2.56,2-1.64,3-2.42,2.07-1.55,3.16-2.26a1.63,1.63,0,0,1,2.24.49,1.61,1.61,0,0,1-.17,2c-.89,1-1.83,1.85-2.78,2.72s-1.92,1.73-2.91,2.57-2,1.64-3,2.42-2.07,1.55-3.17,2.25a1.61,1.61,0,0,1-2.06-2.45Z" />
    </g>
  </g>
</svg>