<svg xmlns="http://www.w3.org/2000/svg" viewBox="0 0 64 64">
  <g data-z="2" data-type="eye">
    <g class="eye left">
      <path class="cls-water-2"
        d="M14.39,54.47a131.65,131.65,0,0,1,2.8-28.57A25.63,25.63,0,0,1,23,25.05a229.91,229.91,0,0,0,1.55,30c1.59.68,2.59,1.64,2.59,2.7,0,2.08-3.8,1.77-8.49,1.77s-8.5.31-8.5-1.77C10.13,56.34,11.85,55.12,14.39,54.47Z"
      />
      <path class="cls-water-1"
        d="M15.14,38.76A123.88,123.88,0,0,1,17.19,25.9,25.63,25.63,0,0,1,23,25.05s-.09,3.67.06,9.27a2.45,2.45,0,0,0-2.95-1.55C18,33.2,16.23,35.9,15.14,38.76Z"
      />
      <path class="cls-white"
        d="M18.77,56.87c0,.76,1.08.93,2.43.93s2.43-.17,2.43-.93-1.09-1.38-2.43-1.38S18.77,56.11,18.77,56.87Z"
      />
      <path class="cls-2"
        d="M26.32,27.36A20.65,20.65,0,0,0,20.59,27a18.37,18.37,0,0,0-2.73.48c-.92.23-1.83.53-2.85.87l-.08,0a1.16,1.16,0,0,1-1.47-.74,1.21,1.21,0,0,1,.14-1A8.92,8.92,0,0,1,20.24,23a9.21,9.21,0,0,1,7.16,2.39,1.16,1.16,0,0,1,0,1.64,1.13,1.13,0,0,1-1,.32Z" />
    </g>

    <g class="eye right">
      <path class="cls-water-2"
        d="M49.86,54.47a131.65,131.65,0,0,0-2.8-28.57,25.63,25.63,0,0,0-5.79-.85,229.91,229.91,0,0,1-1.55,30c-1.59.68-2.59,1.64-2.59,2.7,0,2.08,3.8,1.77,8.5,1.77s8.49.31,8.49-1.77C54.12,56.34,52.4,55.12,49.86,54.47Z"
      />
      <path class="cls-water-1"
        d="M49.12,38.76a123.88,123.88,0,0,0-2-12.86,25.63,25.63,0,0,0-5.79-.85s.09,3.67-.06,9.27a2.45,2.45,0,0,1,3-1.55C46.31,33.2,48,35.9,49.12,38.76Z"
      />
      <path class="cls-white"
        d="M51.49,56.87c0,.76-1.08.93-2.43.93s-2.43-.17-2.43-.93,1.09-1.38,2.43-1.38S51.49,56.11,51.49,56.87Z"
      />
      <path class="cls-2"
        d="M49,28.35A20.31,20.31,0,0,0,43.41,27a18.29,18.29,0,0,0-2.77,0c-.94.06-1.9.21-3,.36H37.6a1.15,1.15,0,0,1-1.32-1,1.19,1.19,0,0,1,.32-1A8.87,8.87,0,0,1,43.76,23a9.17,9.17,0,0,1,6.64,3.6,1.17,1.17,0,0,1-1.35,1.76Z" />
    </g>
  </g>
</svg>