<svg xmlns="http://www.w3.org/2000/svg" viewBox="0 0 64 64">
  <g data-z="2" data-type="eye">
    <g class="eye left">
      <path class="cls-8"
        d="M25,31.34a3.41,3.41,0,0,0-.93-1.24,5.73,5.73,0,0,0-1.52-.91,15.71,15.71,0,0,0-2-.68h0V25.37a4.71,4.71,0,0,1,.64.19,11.28,11.28,0,0,1,2,1.09l1.73-2.5a9.08,9.08,0,0,0-2.56-1.43,8.58,8.58,0,0,0-1.8-.39V20.85H18.72v1.41a6.46,6.46,0,0,0-1.63.29,4.87,4.87,0,0,0-1.66.93,4.17,4.17,0,0,0-1.09,1.44A4.3,4.3,0,0,0,14,26.78v0a4.38,4.38,0,0,0,.36,1.88,3.55,3.55,0,0,0,1,1.26,5.76,5.76,0,0,0,1.58.85,17.11,17.11,0,0,0,1.82.56v3.34a5.4,5.4,0,0,1-1.26-.38A10,10,0,0,1,15.34,33l-2,2.36a9.08,9.08,0,0,0,3,1.82,9.92,9.92,0,0,0,2.32.5v1.47h1.76V37.73A7.48,7.48,0,0,0,22,37.46a5.15,5.15,0,0,0,1.74-.91,4.1,4.1,0,0,0,1.14-1.46,4.73,4.73,0,0,0,.4-2v0A4.21,4.21,0,0,0,25,31.34Zm-7.11-3.69a1.17,1.17,0,0,1-.65-1.12v-.05a1.16,1.16,0,0,1,.48-.94,2,2,0,0,1,1-.32V28A4.22,4.22,0,0,1,17.89,27.65ZM22,33.41a1.19,1.19,0,0,1-.57,1.05,2.27,2.27,0,0,1-1,.31V31.89h.05a6,6,0,0,1,.93.43,1.24,1.24,0,0,1,.45.47,1.26,1.26,0,0,1,.12.57Z" />
    </g>

    <g class="eye right">
      <path class="cls-8"
        d="M50.31,31.34a3.41,3.41,0,0,0-.93-1.24,5.66,5.66,0,0,0-1.51-.91,15.38,15.38,0,0,0-2-.68h0V25.37a5.74,5.74,0,0,1,.64.19,11.28,11.28,0,0,1,2,1.09l1.72-2.5a9.08,9.08,0,0,0-2.56-1.43,8.63,8.63,0,0,0-1.79-.39V20.85H44v1.41a6.46,6.46,0,0,0-1.63.29,5,5,0,0,0-1.66.93,4.17,4.17,0,0,0-1.09,1.44,4.45,4.45,0,0,0-.38,1.86v0a4.38,4.38,0,0,0,.36,1.88,3.42,3.42,0,0,0,1,1.26,5.91,5.91,0,0,0,1.58.85,17.11,17.11,0,0,0,1.82.56v3.34a5.32,5.32,0,0,1-1.25-.38A9.81,9.81,0,0,1,40.65,33l-2,2.36a8.94,8.94,0,0,0,3,1.82,9.92,9.92,0,0,0,2.32.5v1.47H45.8V37.73a7.38,7.38,0,0,0,1.54-.27,5,5,0,0,0,1.74-.91,4,4,0,0,0,1.14-1.46,4.73,4.73,0,0,0,.41-2v0A4.21,4.21,0,0,0,50.31,31.34ZM43.2,27.65a1.34,1.34,0,0,1-.51-.49,1.39,1.39,0,0,1-.14-.63v-.05a1.14,1.14,0,0,1,.49-.94,2,2,0,0,1,1-.32V28A4.82,4.82,0,0,1,43.2,27.65Zm4.14,5.76a1.19,1.19,0,0,1-.57,1.05,2.27,2.27,0,0,1-1,.31V31.89h0a5.2,5.2,0,0,1,.93.43,1.17,1.17,0,0,1,.45.47,1.26,1.26,0,0,1,.12.57Z" />
    </g>
  </g>
</svg>