<svg xmlns="http://www.w3.org/2000/svg" viewBox="0 0 64 64">
  <g data-z="2" data-type="eye">
    <g class="eye left">
      <path class="cls-2"
      d="M38.41,32.81A18.76,18.76,0,0,0,41,34.38a9.58,9.58,0,0,0,2.58.83,11,11,0,0,0,2.7.08,23.91,23.91,0,0,0,3-.55l.06,0a1.17,1.17,0,0,1,1.4.88,1.2,1.2,0,0,1-.25,1,7.8,7.8,0,0,1-3.38,2.23,8.44,8.44,0,0,1-4.24.3,8.58,8.58,0,0,1-3.86-1.76,8,8,0,0,1-2.42-3.22,1.15,1.15,0,0,1,.65-1.5,1.16,1.16,0,0,1,1.06.11Z" />
    </g>

    <g class="eye right">
      <path class="cls-2"
      d="M14.67,34.74a19.25,19.25,0,0,0,3,.57,9.68,9.68,0,0,0,2.7-.1A10.76,10.76,0,0,0,23,34.36a23,23,0,0,0,2.64-1.55l.05,0a1.16,1.16,0,0,1,1.61.34,1.14,1.14,0,0,1,.11,1A7.54,7.54,0,0,1,25,37.4a8.38,8.38,0,0,1-3.87,1.74,8.68,8.68,0,0,1-4.24-.33,8,8,0,0,1-3.38-2.2,1.16,1.16,0,0,1,1.14-1.89Z" />
    </g>
    
  </g>
</svg>