<svg xmlns="http://www.w3.org/2000/svg" viewBox="0 0 64 64">
  <g data-z="2" data-type="eye">
    <g class="eye left">
      <path class="cls-2"
        d="M15,30.74a19.44,19.44,0,0,0,2.86,1.09,9.62,9.62,0,0,0,2.68.37,10.77,10.77,0,0,0,2.67-.39A22.39,22.39,0,0,0,26,30.74l.07,0a1.16,1.16,0,0,1,1.45,1.66,7.62,7.62,0,0,1-2.94,2.77,8.38,8.38,0,0,1-4.12,1,8.58,8.58,0,0,1-4.11-1.06,8.14,8.14,0,0,1-3-2.75,1.16,1.16,0,0,1,1.45-1.67Z" />
    </g>
    <g class="eye right">
      <path class="cls-2"
        d="M38,30.74a19.34,19.34,0,0,0,2.85,1.09,9.74,9.74,0,0,0,2.69.37,10.84,10.84,0,0,0,2.67-.39A22.39,22.39,0,0,0,49,30.74l.06,0a1.16,1.16,0,0,1,1.53.62,1.18,1.18,0,0,1-.07,1,7.62,7.62,0,0,1-2.94,2.77,8.38,8.38,0,0,1-4.12,1,8.55,8.55,0,0,1-4.11-1.06,8.14,8.14,0,0,1-3-2.75,1.16,1.16,0,0,1,1.45-1.67Z" />
    </g>
  </g>
</svg>