<svg xmlns="http://www.w3.org/2000/svg" viewBox="0 0 64 64">
  <g data-z="2" data-type="eye">
    <g class="eye left">
      <path class="cls-2"
      d="M26.61,32.38c-2.09.22-4,.24-6,.33l-2.94.1c-1,0-2,0-3,0H14.6A1.18,1.18,0,0,1,14,30.69a9.41,9.41,0,0,1,3.16-1.48,13.87,13.87,0,0,1,3.38-.49,14.8,14.8,0,0,1,3.39.29,10.6,10.6,0,0,1,3.23,1.2,1.17,1.17,0,0,1-.47,2.17Z" />
    </g>

    <g class="eye right">
      <path class="cls-2"
      d="M49.33,32.81c-2.06,0-4-.06-5.95-.1-1,0-2,0-3-.09s-2-.09-3-.24h0a1.17,1.17,0,0,1-.46-2.16A9.65,9.65,0,0,1,40.11,29a13.39,13.39,0,0,1,3.4-.27,15,15,0,0,1,3.38.51,10.42,10.42,0,0,1,3.16,1.46,1.18,1.18,0,0,1,.26,1.64,1.21,1.21,0,0,1-.93.48Z" />
    </g>
  </g>
</svg>