<svg xmlns="http://www.w3.org/2000/svg" viewBox="0 0 64 64">
  <g data-z="2" data-type="eye">
    <g class="eye left">
      <line class="cls-7 line" x1="34.5" y1="30.37" x2="29.5" y2="30.37" />
      <line class="cls-5 line" x1="19.5" y1="31.37" x2="4.5" y2="31.37" />
      <path class="cls-white" d="M19.5,41.8A10.43,10.43,0,1,1,29.92,31.37,10.43,10.43,0,0,1,19.5,41.8Z" />
      <path class="cls-7"
        d="M19.5,22.45a8.93,8.93,0,1,1-8.92,8.92,8.92,8.92,0,0,1,8.92-8.92m0-3A11.93,11.93,0,1,0,31.42,31.37,11.94,11.94,0,0,0,19.5,19.45Z" />
      <circle class="cls-2" cx="21.66" cy="31.37" r="4.52" />
    </g>

    <g class="eye right">
      <line class="cls-red line" x1="59.5" y1="31.37" x2="44.5" y2="31.37" />
      <path class="cls-white" d="M44.5,41.8A10.43,10.43,0,1,1,54.92,31.37,10.43,10.43,0,0,1,44.5,41.8Z" />
      <path class="cls-7"
      d="M44.5,22.45a8.93,8.93,0,1,1-8.92,8.92,8.92,8.92,0,0,1,8.92-8.92m0-3A11.93,11.93,0,1,0,56.42,31.37,11.93,11.93,0,0,0,44.5,19.45Z" />
      <circle class="cls-2" cx="42.34" cy="31.37" r="4.52" />
    </g>
  </g>
</svg>