<svg xmlns="http://www.w3.org/2000/svg" viewBox="0 0 64 64">
  <g data-z="2" data-type="eye">
    <g class="eye left">
      <path class="cls-5"
        d="M25.44,26.38a3.07,3.07,0,0,0-1.36-.94,23.09,23.09,0,0,0-3.76-1,24.92,24.92,0,0,0-2.87-.3,3.07,3.07,0,0,0-1.65.38,7.74,7.74,0,0,0-2.65,11.3,3.07,3.07,0,0,0,2.52,1.27h7.67a3.09,3.09,0,0,0,2.51-1.26,7.77,7.77,0,0,0,1.34-5.65A7.59,7.59,0,0,0,25.44,26.38Z" />
      <circle class="cls-2" cx="21.66" cy="31.37" r="4.52" />
    </g>

    <g class="eye right">
      <path class="cls-5"
        d="M40.66,37.12h7.67a3.07,3.07,0,0,0,2.52-1.27,7.78,7.78,0,1,0-12.71,0A3.09,3.09,0,0,0,40.66,37.12Z" />
      <circle class="cls-2" cx="42.34" cy="31.37" r="4.52" />
    </g>
  </g>
</svg>