<svg xmlns="http://www.w3.org/2000/svg" viewBox="0 0 64 64">
  <g data-z="2">
    <path class="cls-2 eye left"
      d="M26,36.11a6.47,6.47,0,0,0-5.49-3.3A6.48,6.48,0,0,0,15,36.11l0,0a.85.85,0,0,1-1.18.26.87.87,0,0,1-.4-.65,6.21,6.21,0,0,1,1.95-4.86,7.39,7.39,0,0,1,10.32,0,6.21,6.21,0,0,1,1.95,4.86.86.86,0,0,1-.93.78.83.83,0,0,1-.65-.39Z" />
    <path class="cls-2 eye right"
      d="M49,36.11a6.22,6.22,0,0,0-11,0l0,0a.86.86,0,0,1-1.19.26.88.88,0,0,1-.39-.65,6.21,6.21,0,0,1,2-4.86,7.39,7.39,0,0,1,10.32,0,6.21,6.21,0,0,1,2,4.86.86.86,0,0,1-.94.78.83.83,0,0,1-.64-.39Z" />
  </g>
</svg>