<svg xmlns="http://www.w3.org/2000/svg" viewBox="0 0 64 64">
  <g data-z="2" data-type="eye">
    <g class="eye left">
      <path class="cls-red"
        d="M27.09,24.48a4.52,4.52,0,0,0-4.85-1.11,5.38,5.38,0,0,0-2.72,2.09q-.25.36-.54.72c-.26-.17-.51-.32-.75-.49a5.35,5.35,0,0,0-3.27-1,4.51,4.51,0,0,0-4.18,2.69,5.11,5.11,0,0,0-.46,3.39,6.5,6.5,0,0,0,1,2.34,13.56,13.56,0,0,0,2.82,3A30.24,30.24,0,0,0,19,39.2c.38.2.76.4,1.15.59a2.06,2.06,0,0,0,2.44-.43l.88-1a30.47,30.47,0,0,0,3.47-4.6A13.27,13.27,0,0,0,28.54,30a6.55,6.55,0,0,0,.14-2.53A5.13,5.13,0,0,0,27.09,24.48Z" />
    </g>

    <g class="eye right">
      <path class="cls-red"
        d="M53.22,27.35A4.51,4.51,0,0,0,49,24.66a5.35,5.35,0,0,0-3.27,1c-.24.17-.49.32-.75.49q-.29-.36-.54-.72a5.38,5.38,0,0,0-2.72-2.09,4.52,4.52,0,0,0-4.85,1.11,5.14,5.14,0,0,0-1.59,3A6.59,6.59,0,0,0,35.47,30a13.33,13.33,0,0,0,1.62,3.78,29.8,29.8,0,0,0,3.48,4.59c.28.32.58.64.87,1a2.06,2.06,0,0,0,2.44.43c.39-.19.77-.39,1.15-.59a30.78,30.78,0,0,0,4.84-3.13,13.56,13.56,0,0,0,2.82-3,6.64,6.64,0,0,0,1-2.34A5.11,5.11,0,0,0,53.22,27.35Z" />
    </g>
  </g>
</svg>