<svg xmlns="http://www.w3.org/2000/svg" viewBox="0 0 64 64">
  <g data-z="2" data-type="eye">
    <g class="eye left">
      <path class="cls-2"
        d="M26.32,32.36A20.65,20.65,0,0,0,20.59,32a18.37,18.37,0,0,0-2.73.48c-.92.23-1.83.53-2.85.87l-.08,0a1.16,1.16,0,0,1-1.47-.74,1.21,1.21,0,0,1,.14-1A8.92,8.92,0,0,1,20.24,28a9.21,9.21,0,0,1,7.16,2.39,1.16,1.16,0,0,1,0,1.64,1.13,1.13,0,0,1-1,.32Z" />
    </g>

    <g class="eye right">
      <circle class="cls-5" cx="44.5" cy="31.37" r="7.78" />
      <circle class="cls-2" cx="43.34" cy="31.37" r="4.52" />
    </g>
  </g>
</svg>