<svg xmlns="http://www.w3.org/2000/svg" viewBox="0 0 64 64">
  <g data-z="2" data-type="eye">
    <g class="eye left">
      <circle class="cls-5" cx="19.5" cy="31.37" r="7.78" />
    <path class="cls-2"
      d="M19.5,31.64A4.52,4.52,0,0,0,24,27.12a4.46,4.46,0,0,0-.82-2.59,7.83,7.83,0,0,0-7.4,0,4.52,4.52,0,0,0,3.7,7.11Z" />
    </g>

    <g class="eye right">
      <circle class="cls-5" cx="44.5" cy="31.37" r="7.78" />
    <path class="cls-2"
      d="M44.5,31.64a4.52,4.52,0,0,0,3.7-7.11,7.83,7.83,0,0,0-7.4,0A4.46,4.46,0,0,0,40,27.12,4.52,4.52,0,0,0,44.5,31.64Z" />
    </g>
  </g>
</svg>