<svg xmlns="http://www.w3.org/2000/svg" viewBox="0 0 64 64">
  <g data-z="2" data-type="eye">
    <g class="eye left">
      <path class="cls-2"
        d="M10.21,31.5a9.44,9.44,0,0,1,3.38-7.42,9.77,9.77,0,0,1,3.79-1.91,10,10,0,0,1,4.21-.11,8.49,8.49,0,0,1,3.95,1.81A8.07,8.07,0,0,1,28,27.51a9.81,9.81,0,0,1,.47,4.26,8,8,0,0,1-1.73,4.07,7.89,7.89,0,0,1-8.1,2.69A6.7,6.7,0,0,1,15,35.83a6.63,6.63,0,0,1-1-4.46,5.55,5.55,0,0,1,2.55-3.95,5.43,5.43,0,0,1,2.26-.8,7.11,7.11,0,0,1,2.26.11,4.44,4.44,0,0,1,1.23.46,3.15,3.15,0,0,1,1.1,1,3.34,3.34,0,0,1,.49,1.32,3.67,3.67,0,0,1,.06.74,4.63,4.63,0,0,1-.1.65,3.45,3.45,0,0,1-1.56,2.26,4,4,0,0,1-2.51.47,1.19,1.19,0,0,1,.17-2.37h0a1.69,1.69,0,0,0,1-.19,1,1,0,0,0,.39-.69l0-.26c0,.05,0-.11,0-.17a.81.81,0,0,0-.15-.37c-.09-.13-.27-.24-.7-.32a4.93,4.93,0,0,0-1.38,0,3,3,0,0,0-1.14.43,2.83,2.83,0,0,0-1.24,2,3.8,3.8,0,0,0,2.76,4,3.38,3.38,0,0,0,1.32.13,4.63,4.63,0,0,0,1.38-.27A5.18,5.18,0,0,0,24.44,34a5.07,5.07,0,0,0,1.07-2.56,7.34,7.34,0,0,0,0-1.48,6.21,6.21,0,0,0-.31-1.46,5.2,5.2,0,0,0-4.14-3.56,7,7,0,0,0-8.47,6.59,1.19,1.19,0,0,1-2.37,0Z" />
    </g>

    <g class="eye right">
      <path class="cls-2"
        d="M53.79,28.76a9.46,9.46,0,0,1-3.38,7.42,9.62,9.62,0,0,1-3.79,1.9,9.82,9.82,0,0,1-4.21.12,8.59,8.59,0,0,1-3.95-1.81A8.07,8.07,0,0,1,36,32.75a9.81,9.81,0,0,1-.47-4.26,8,8,0,0,1,1.73-4.07,7.89,7.89,0,0,1,8.1-2.69A6.7,6.7,0,0,1,49,24.43a6.63,6.63,0,0,1,1,4.46,5.53,5.53,0,0,1-4.81,4.75A7.11,7.11,0,0,1,43,33.53a4.44,4.44,0,0,1-1.23-.46,3.15,3.15,0,0,1-1.1-1,3.34,3.34,0,0,1-.49-1.32,3.67,3.67,0,0,1-.06-.74,4.63,4.63,0,0,1,.1-.65,3.45,3.45,0,0,1,1.56-2.26,4,4,0,0,1,2.51-.47A1.19,1.19,0,0,1,44.13,29h0a1.69,1.69,0,0,0-1,.19,1,1,0,0,0-.39.69c0,.08,0,.18,0,.25s0,.12,0,.18a.81.81,0,0,0,.15.37c.09.13.27.24.7.32a5.34,5.34,0,0,0,1.38,0,2.85,2.85,0,0,0,1.14-.44,2.79,2.79,0,0,0,1.24-2A3.85,3.85,0,0,0,46.64,26a3.9,3.9,0,0,0-2.1-1.51,3.58,3.58,0,0,0-1.32-.12,4.34,4.34,0,0,0-1.38.27,5,5,0,0,0-3.35,4.17,7.34,7.34,0,0,0,0,1.48,6.21,6.21,0,0,0,.31,1.46A5.22,5.22,0,0,0,43,35.35a7,7,0,0,0,8.47-6.59,1.19,1.19,0,0,1,2.37,0Z" />
    </g>

  </g>
</svg>