<svg xmlns="http://www.w3.org/2000/svg" viewBox="0 0 64 64">
  <g data-z="2" data-type="eye">
    <g class="eye left">
      <path class="cls-2"
        d="M48.85,38.26a13.48,13.48,0,0,0-2.25-1.12,15,15,0,0,0-2.47-.77A15.76,15.76,0,0,0,41.59,36,18.1,18.1,0,0,0,39,36h-.12a2,2,0,0,1-2-2,1.92,1.92,0,0,1,.39-1.15,6.21,6.21,0,0,1,.69-.81c.22-.24.45-.44.68-.66a13.64,13.64,0,0,1,4.71-2.68,14,14,0,0,1,3.48-.64,16.5,16.5,0,0,1,3.45.16,1.36,1.36,0,0,1-.2,2.7h-.09a14,14,0,0,0-2.83.16,10.49,10.49,0,0,0-2.63.76,9.9,9.9,0,0,0-2.27,1.4,10.17,10.17,0,0,0-1,.9,6.26,6.26,0,0,0-.41.49,3.78,3.78,0,0,0-.29.41L39,32h0a21.36,21.36,0,0,1,3.09.37,20.2,20.2,0,0,1,3,.82,19,19,0,0,1,2.81,1.24,16.44,16.44,0,0,1,2.64,1.74A1.36,1.36,0,0,1,49,38.32Z" />
    </g>

    <g class="eye right">
      <path class="cls-2"
      d="M13.46,36.13a16.44,16.44,0,0,1,2.64-1.74,19,19,0,0,1,2.81-1.24,20.2,20.2,0,0,1,3-.82A21.36,21.36,0,0,1,25,32h0L23.3,35.05a3.78,3.78,0,0,0-.29-.41,6.26,6.26,0,0,0-.41-.49,10.17,10.17,0,0,0-1-.9,9.9,9.9,0,0,0-2.27-1.4,10.49,10.49,0,0,0-2.63-.76,14,14,0,0,0-2.83-.16h-.08a1.36,1.36,0,0,1-.21-2.7,16.5,16.5,0,0,1,3.45-.16,14,14,0,0,1,3.48.64,13.64,13.64,0,0,1,4.71,2.68c.23.22.46.42.68.66a6.21,6.21,0,0,1,.69.81A1.95,1.95,0,0,1,25.09,36H25a18.1,18.1,0,0,0-2.55,0,15.76,15.76,0,0,0-2.54.39,15,15,0,0,0-2.47.77,13.48,13.48,0,0,0-2.25,1.12l-.1.06a1.36,1.36,0,0,1-1.59-2.19Z" />
    </g>
  </g>
</svg>