<svg xmlns="http://www.w3.org/2000/svg" viewBox="0 0 64 64">
  <g data-z="2" data-type="eye">
    <g class="eye left">
      <path class="cls-gold"
        d="M20.77,36.88S16.41,41,14.89,40.22s-1-6.69-1-6.69-5.23-2.89-5-4.56S15,26,15,26s1.14-5.86,2.8-6.16,4.73,4.83,4.73,4.83,5.93-.73,6.72.76-3.13,6-3.13,6,2.53,5.41,1.36,6.63S20.77,36.88,20.77,36.88Z" />
    </g>

    <g class="eye right">
      <path class="cls-gold"
        d="M43.23,36.88S37.74,39.22,36.56,38s1.36-6.63,1.36-6.63-3.92-4.5-3.13-6,6.72-.76,6.72-.76,3.07-5.12,4.73-4.83S49,26,49,26s5.82,1.33,6.05,3-5,4.56-5,4.56.53,5.95-1,6.69S43.23,36.88,43.23,36.88Z" />
    </g>
  </g>
</svg>