<svg xmlns="http://www.w3.org/2000/svg" viewBox="0 0 64 64">
  <g data-z="2" data-type="eye">
    <g class="eye left">
      <path class="cls-5"
        d="M24.27,27.74,17,26.4a3,3,0,0,1-2.17-1.65,7.48,7.48,0,0,1-.29-5.6A7.52,7.52,0,0,1,29,23a7.39,7.39,0,0,1-2.14,4A2.94,2.94,0,0,1,24.27,27.74Z" />
      <circle class="cls-2" cx="21" cy="20.51" r="4.37" />
    </g>

    <g class="eye right">
      <path class="cls-5"
        d="M40.62,20.19a3.06,3.06,0,0,1,1.47-.65,21.46,21.46,0,0,1,3.74-.26,26,26,0,0,1,2.78.21,3,3,0,0,1,1.51.65,7.49,7.49,0,0,1,.54,11.21,3,3,0,0,1-2.62.77l-7.3-1.34a2.94,2.94,0,0,1-2.16-1.64,7.46,7.46,0,0,1-.29-5.61A7.35,7.35,0,0,1,40.62,20.19Z" />
      <circle class="cls-2" cx="44.47" cy="24.83" r="4.37" />
    </g>
  </g>
</svg>