<svg xmlns="http://www.w3.org/2000/svg" viewBox="0 0 64 64">
  <g data-z="2" data-type="eye">
    <g class="eye left">
      <path class="cls-sunglasses-6"
        d="M12.71,22.25a53,53,0,0,1,17.14,1.54,9.6,9.6,0,0,0,4.55-.06,55.58,55.58,0,0,1,14.73-1.67c3.18.08,6.36.13,9.54.2,1.31,0,1.64.41,1.66,1.89a9.61,9.61,0,0,1,0,1.78,2.9,2.9,0,0,1-.57,1.1c-.41.58-1,1-1.25,1.7-.56,1.78-1,3.63-1.38,5.47-1,4.38-2.58,6.13-6.6,6.44a56.29,56.29,0,0,1-8.11,0,6.63,6.63,0,0,1-5.74-4.42c-.84-1.94-1.5-4-2.23-6a2.54,2.54,0,0,0-4.81,0c-.54,1.52-1.08,3.05-1.6,4.57-1.26,3.67-3.59,5.87-7.15,6a63.3,63.3,0,0,1-8.7-.35c-2.54-.26-4.17-2-4.87-4.78-.5-2-.89-4-1.41-5.93-.29-1.11-.51-2.33-1.74-2.79-.22-.09-.43-.61-.44-.93-.11-3.56-.2-3.8,2.8-3.74C8.56,22.28,10.64,22.25,12.71,22.25Z" />
      <path class="cls-sunglasses-7"
        d="M19.26,28.9a3.43,3.43,0,0,1,1-2.43,52.79,52.79,0,0,0-9.15-.12,1.7,1.7,0,0,0-1.55,1.91,28.49,28.49,0,0,0,1.71,6.81,1.73,1.73,0,0,0,1.4,1.08,74.53,74.53,0,0,0,8.65.32,1.71,1.71,0,0,0,1.36-.73,23,23,0,0,0,2.21-4.23,3.38,3.38,0,0,1-2.21.82A3.43,3.43,0,0,1,19.26,28.9Z" />
      <path class="cls-sunglasses-7"
        d="M51.31,32.33a3.42,3.42,0,0,1-3.43-3.43,3.37,3.37,0,0,1,1.33-2.69,60.61,60.61,0,0,0-9.62.79,1.69,1.69,0,0,0-1.33,2.19,25.45,25.45,0,0,0,3.05,6.55,1.71,1.71,0,0,0,1.36.73,74.53,74.53,0,0,0,8.65-.32,1.73,1.73,0,0,0,1.4-1.08,25.4,25.4,0,0,0,1.21-4A3.41,3.41,0,0,1,51.31,32.33Z" />
      <path class="cls-sunglasses-8"
        d="M47.88,28.9a3.42,3.42,0,0,0,6,2.19c.25-1.08.4-2.06.5-2.83a1.7,1.7,0,0,0-1.55-1.91c-1.24-.1-2.47-.14-3.67-.14A3.37,3.37,0,0,0,47.88,28.9Z" />
      <path class="cls-sunglasses-8"
        d="M24.41,27c-1.05-.17-2.48-.37-4.14-.53a3.43,3.43,0,0,0,2.42,5.86,3.38,3.38,0,0,0,2.21-.82c.28-.69.56-1.46.84-2.32A1.69,1.69,0,0,0,24.41,27Z" />
    </g>

    <g class="eye right">
    </g>
  </g>
</svg>