<svg xmlns="http://www.w3.org/2000/svg" viewBox="0 0 64 64">
  <g data-z="2" data-type="eye">
    <g class="eye left">
      <circle class="cls-5" cx="19.5" cy="31.37" r="7.78" />
      <circle class="cls-2" cx="21.66" cy="31.37" r="4.52" />
    </g>

    <g class="eye right">
      <path class="cls-2"
      d="M50.33,35.19a17.26,17.26,0,0,0-5.7-1,15.53,15.53,0,0,0-2.78.29c-.93.18-1.88.45-2.93.76l-.07,0a1.16,1.16,0,0,1-1.45-.78,1.21,1.21,0,0,1,.19-1,8.73,8.73,0,0,1,7-3.25,9,9,0,0,1,7,3.25A1.17,1.17,0,0,1,51.46,35a1.16,1.16,0,0,1-1.07.18Z" />
    </g>
  </g>
</svg>