<svg xmlns="http://www.w3.org/2000/svg" viewBox="0 0 64 64">
  <title>Cheeks</title>
  <g data-z="6" data-type="cheek">
    <path class="c-bottom"
      d="M42.65,59.79a2,2,0,0,1-1.88-2.42c1.55-6.66,6.85-25.06,17.2-20.9,3.07,1.23-.84,9.93-1.14,19.37a2,2,0,0,1-1.06,1.71C54,58.44,50,59.93,42.65,59.79Z" />
    <path class="c-bottom"
      d="M21.6,59.79a2,2,0,0,0,1.88-2.42c-1.55-6.66-6.85-25.06-17.2-20.9-3.07,1.23.84,9.93,1.14,19.37a2,2,0,0,0,1.06,1.71C10.21,58.44,14.25,59.93,21.6,59.79Z" />
  </g>
</svg>