<svg xmlns="http://www.w3.org/2000/svg" viewBox="0 0 64 64">
  <g data-z="2" data-type="cheek">
    <path class="cls-water-1"
      d="M58.15,38a4.62,4.62,0,0,1-6.54,6.53c-1.8-1.8-4.53-7.45-2.72-9.26S56.34,36.18,58.15,38Z" />
    <path class="cls-water-1"
      d="M12.39,44.52A4.62,4.62,0,0,1,5.85,38c1.81-1.81,7.46-4.53,9.26-2.73S14.19,42.72,12.39,44.52Z" />
    <path class="cls-water-2"
      d="M51.11,40.53a4.64,4.64,0,0,0,5.69,0,3,3,0,0,0,1.13-2.74c-2-1.79-7.3-4.27-9-2.53a2.07,2.07,0,0,0-.5,1A10,10,0,0,0,51.11,40.53Z" />
    <path class="cls-water-2"
      d="M6.07,37.79A3,3,0,0,0,7.2,40.53a4.64,4.64,0,0,0,5.69,0,10,10,0,0,0,2.72-4.32,2.07,2.07,0,0,0-.5-1C13.37,33.52,8.06,36,6.07,37.79Z" />
  </g>
</svg>