<svg xmlns="http://www.w3.org/2000/svg" viewBox="0 0 64 64">
  <g data-z="5" data-part="hat">
    <path class="cls-tooth"
      d="M47.64,6.35A35.83,35.83,0,0,0,35.4,4.51v8.38A147.16,147.16,0,0,1,59.11,23.52C58.2,16.07,55.38,9.24,47.64,6.35Z" />
    <path class="cls-white"
      d="M47.64,6.35C42.69,4.49,37.26,4.46,32,4.51h0C21.75,4.36,10.33,5.72,6.35,16.36a25.73,25.73,0,0,0-1.26,4.88A105.73,105.73,0,0,0,53.72,10.31,16,16,0,0,0,47.64,6.35Z" />
    <path class="cls-tooth"
      d="M7.83,13.36a65.9,65.9,0,0,0,19-1.3,1.12,1.12,0,0,0-.37-2.2,79.6,79.6,0,0,1-16,.21A15.62,15.62,0,0,0,7.83,13.36Z" />
  </g>
</svg>