<svg xmlns="http://www.w3.org/2000/svg" viewBox="0 0 64 64">
  <g data-z="5" data-part="hat" transform="translate(-3 -2) scale(1.1)">
    <path class="cls-tooth"
      d="M53.75,48.71a.37.37,0,0,1,0,.11c0,2.27-3.15,3.26-7,3.26a13.48,13.48,0,0,1-5-.78,4.22,4.22,0,0,1,.37,1.6c0,1.3-3,1.87-6.63,1.87s-6.63-.57-6.63-1.87c0-.75,1.63-2,3.7-3a11.06,11.06,0,0,1-8.17-1,5.27,5.27,0,0,1-10.29-2.29A4.9,4.9,0,0,0,12.7,50a4.53,4.53,0,0,0,.07.74C10,51.47,8.11,52.67,8.11,54c0,2.14,4.52,2.92,10.1,2.92,1.43,0,2.78-.05,4-.16,1.37,2,6.65,2.7,13,2.7,6.93,0,12.62-.9,13.27-3.3,4.56-.78,7.75-2.53,7.75-4.57C56.22,50.54,55.3,49.53,53.75,48.71Z" />
    <path class="cls-5"
      d="M19.29,52.8a5.28,5.28,0,0,0,5.09-3.89,11.06,11.06,0,0,0,8.17,1c-2.07,1-3.7,2.27-3.7,3,0,1.3,3,1.87,6.63,1.87s6.63-.57,6.63-1.87a4.22,4.22,0,0,0-.37-1.6,13.48,13.48,0,0,0,5,.78c3.89,0,7-1,7-3.26a.37.37,0,0,0,0-.11,22,22,0,0,0-8.88-2,7,7,0,0,0,.18-1.53,6.69,6.69,0,0,0-12-4.09,6.9,6.9,0,0,0-12.61,3.88,6.46,6.46,0,0,0,.12,1.25,4.85,4.85,0,0,0-6.49.44,5.21,5.21,0,0,0,5.2,6.18Z" />
    <path class="cls-tooth"
      d="M56.53,18a6,6,0,0,0,1.23-3.62,6.13,6.13,0,0,0-.34-2C55.91,15.08,52.12,17,47.68,17S39.37,15,37.9,12.35a35.2,35.2,0,0,1-9.14,1.13,36.3,36.3,0,0,1-8.56-1c-.63,0-1.28.05-1.95.05-5.2,0-9.7-1-11.92-2.43a2,2,0,0,0-.23.93,3.5,3.5,0,0,0,1.79,2.66h.29c3.22,0,5.83,1.7,5.83,3.79s-2.61,2.83-5.83,2.83A13.78,13.78,0,0,1,5,20,5.56,5.56,0,0,0,6.59,22.7a4.24,4.24,0,0,0-.1.88,4.18,4.18,0,0,0,8.36,0c0-.14,0-.28,0-.42a7,7,0,0,0,3.73,1.07,7.09,7.09,0,0,0,7.06-6.52c.73,0,1.47,0,2.22,0a65.83,65.83,0,0,0,7.07-.37c1.16,3.13,4.74,5.41,9,5.41a11.29,11.29,0,0,0,4-.75,6.15,6.15,0,0,0-.06.75A5.65,5.65,0,1,0,56.53,18ZM53.77,23c-2,0-3.56-.44-3.56-1.73s1.59-2.32,3.56-2.32,3.57,1,3.57,2.32S55.74,23,53.77,23Z" />
    <path class="cls-5"
      d="M20.2,12.5a36.3,36.3,0,0,0,8.56,1,35.2,35.2,0,0,0,9.14-1.13C39.37,15,43.19,17,47.68,17s8.23-1.88,9.74-4.52a6,6,0,0,0-5.39-4C50.66,6,45.65,4.89,39.63,4.58c-5.1-.26-9.54.09-11.77,1.62h0c-10.93,0-20,1-21.49,3.92,2.22,1.44,6.72,2.43,11.92,2.43C18.92,12.55,19.57,12.53,20.2,12.5Z" />
    <path class="cls-5"
      d="M53.77,18.93c-2,0-3.56,1-3.56,2.32S51.8,23,53.77,23s3.57-.44,3.57-1.73S55.74,18.93,53.77,18.93Z" />
    <path class="cls-5"
      d="M14,17.5c0-2.09-2.61-3.79-5.83-3.79H7.87a5.56,5.56,0,0,0-3,5A5.41,5.41,0,0,0,5,20a13.78,13.78,0,0,0,3.16.32C11.4,20.33,14,19.6,14,17.5Z" />
  </g>
</svg>