<svg xmlns="http://www.w3.org/2000/svg" viewBox="0 0 64 64">
  <defs>
    <style>
      .cls-red{fill:#e62e49;}.cls-skyblue{fill:#37b9ff;}
    </style>
  </defs>
  <title>Clown Hair</title>
  <g data-z="5">
    <path class="cls-red z-0"
      d="M12.25,10.18c.73,2.19,2.61,1.93,4.8,1.2s3.86-1.65,3.13-3.84a4.18,4.18,0,0,0-7.93,2.64Z" />
    <path class="cls-red z-0"
      d="M5.72,18.47c1.64,1.63,3.2.55,4.83-1.08s2.71-3.2,1.08-4.83a4.18,4.18,0,0,0-5.91,5.91Z" />
    <path class="cls-red"
      d="M51.75,10.18c-.73,2.19-2.61,1.93-4.8,1.2s-3.86-1.65-3.13-3.84a4.18,4.18,0,0,1,7.93,2.64Z" />
    <path class="cls-red"
      d="M58.28,18.47c-1.64,1.63-3.2.55-4.83-1.08s-2.71-3.2-1.08-4.83a4.18,4.18,0,1,1,5.91,5.91Z" />
    <path class="cls-red"
      d="M57.9,13.84c-2.14,2.14-4.19.73-6.33-1.41S48,8.24,50.16,6.1a5.47,5.47,0,1,1,7.74,7.74Z" />
    <path class="cls-red"
      d="M6.1,13.84c2.14,2.14,4.19.73,6.33-1.41S16,8.24,13.84,6.1A5.47,5.47,0,0,0,6.1,13.84Z" />
  </g>
</svg>