<svg xmlns="http://www.w3.org/2000/svg" viewBox="0 0 64 64">
  <g data-z="-1" data-part="hat">
    <ellipse class="c-bottom" cx="32" cy="27.42" rx="7.77" ry="16.49" />
    <ellipse class="cls-red" cx="32" cy="28.42" rx="3.64" ry="7.38" />
  </g>
  <g data-z="5" data-part="hat">
    <path class="cls-tooth"
      d="M55.91,16.32c0,.05,0,.09,0,.13,0,2.51-3.49,3.61-7.81,3.61a14.89,14.89,0,0,1-5.51-.86A4.62,4.62,0,0,1,43,21C43,22.41,39.73,23,35.67,23s-7.34-.63-7.34-2.08c0-.83,1.8-2.26,4.1-3.33a12.68,12.68,0,0,1-3.16.42,12.21,12.21,0,0,1-5.89-1.5A5.85,5.85,0,0,1,11.88,15a6.38,6.38,0,0,1,.1-1,5.41,5.41,0,0,0-1.54,3.78,5.56,5.56,0,0,0,.08.82c-3.1.76-5.16,2.09-5.16,3.61,0,2.37,5,3.24,11.18,3.24,1.58,0,3.09-.06,4.45-.18,1.52,2.16,7.37,3,14.37,3,7.68,0,14-2,14.7-4.66,5-.86,8.58-1.8,8.58-4.06C58.64,18.35,57.63,17.23,55.91,16.32Z" />
    <path class="cls-white"
      d="M17.74,20.86a5.85,5.85,0,0,0,5.64-4.31,12.21,12.21,0,0,0,5.89,1.5,12.68,12.68,0,0,0,3.16-.42c-2.3,1.07-4.1,2.5-4.1,3.33,0,1.45,3.29,2.08,7.34,2.08S43,22.41,43,21a4.62,4.62,0,0,0-.41-1.76,14.89,14.89,0,0,0,5.51.86c4.32,0,7.81-1.1,7.81-3.61,0,0,0-.08,0-.13a24.8,24.8,0,0,0-9.84-2.25,7.26,7.26,0,0,0,.2-1.7A7.4,7.4,0,0,0,33,7.85a7.65,7.65,0,0,0-14,4.29,6.94,6.94,0,0,0,.14,1.38A5.37,5.37,0,0,0,12,14a6.38,6.38,0,0,0-.1,1A5.86,5.86,0,0,0,17.74,20.86Z" />
    <path class="c-bottom"
      d="M56.35,10.94a15,15,0,0,0-7-3.33A1,1,0,0,0,48.21,8.7L49,16.05a1,1,0,0,0,1.59.71l5.76-4.25A1,1,0,0,0,56.35,10.94Z" />
    <path class="c-bottom"
      d="M15.82,18a17.29,17.29,0,0,0-4.53,8.18,1,1,0,0,0,1,1.25l9-.39a1,1,0,0,0,.79-1.54l-4.76-7.32A1,1,0,0,0,15.82,18Z" />
  </g>
</svg>