<svg xmlns="http://www.w3.org/2000/svg" viewBox="0 0 64 64">
  <g data-z="5" data-part="hat">
    <path class="cls-water-2"
      d="M32,4.54c-20.52,0-25.5,2.63-25.5,5.87s5,5.87,25.5,5.87,25.5-2.63,25.5-5.87S52.53,4.54,32,4.54ZM32,11c-7.92,0-14.67-.72-17.39-1.73C19.67,6.83,26,6.39,32,6.47h0c5.27,0,10.69,0,15.65,1.84a21.35,21.35,0,0,1,2,.89C47.1,10.26,40.17,11,32,11Z" />
    <path class="cls-water-1"
      d="M32,14.28c-11.29,0-21-2.1-25.22-5.09a2.76,2.76,0,0,0-.28,1.22c0,3.24,5,5.87,25.5,5.87s25.5-2.63,25.5-5.87a2.82,2.82,0,0,0-.27-1.23C53,12.18,43.29,14.28,32,14.28Z" />
  </g>
</svg>