<svg xmlns="http://www.w3.org/2000/svg" viewBox="0 0 64 64">
  <g data-z="5" data-part="hat">
    <path class="cls-skin"
      d="M59.29,51.66a1.56,1.56,0,0,0-2.11-.6l-4,2.07,5.05-3.88a1.57,1.57,0,0,0,.34-2.16,1.53,1.53,0,0,0-2.17-.31l-4.7,3.61,4.53-5a1.58,1.58,0,0,0-.06-2.19,1.54,1.54,0,0,0-2.2.09l-4.37,4.86,2.58-4.21a1.57,1.57,0,0,0-.46-2.14,1.53,1.53,0,0,0-2.14.49l-1.88,3.07a9.19,9.19,0,0,1-2.38,2.59h0a.68.68,0,0,1-1.06-.36h0a.69.69,0,0,1,0-.32l.56-2.84a1.57,1.57,0,0,0-1.17-1.85,1.53,1.53,0,0,0-1.84,1.2l-1.48,7.57c-.09.29-.17.59-.24.89a2.86,2.86,0,0,0,.48,2.25l2.86,3.9a2.8,2.8,0,0,0,2.86,1.09,19.7,19.7,0,0,0,5.19-1.94l7.15-3.74A1.53,1.53,0,0,0,59.29,51.66Z" />
    <path class="cls-skin"
      d="M4.71,51.66a1.56,1.56,0,0,1,2.11-.6l3.95,2.07-5-3.88a1.57,1.57,0,0,1-.34-2.16,1.53,1.53,0,0,1,2.17-.31l4.7,3.61-4.53-5a1.58,1.58,0,0,1,.06-2.19,1.54,1.54,0,0,1,2.2.09l4.37,4.86L11.77,43.9a1.57,1.57,0,0,1,.46-2.14,1.53,1.53,0,0,1,2.14.49l1.88,3.07a9.19,9.19,0,0,0,2.38,2.59h0a.68.68,0,0,0,1.06-.36h0a.69.69,0,0,0,0-.32l-.56-2.84a1.57,1.57,0,0,1,1.17-1.85,1.53,1.53,0,0,1,1.84,1.2l1.48,7.57c.09.29.17.59.24.89a2.86,2.86,0,0,1-.48,2.25l-2.86,3.9a2.8,2.8,0,0,1-2.86,1.09,19.7,19.7,0,0,1-5.19-1.94L5.34,53.76A1.53,1.53,0,0,1,4.71,51.66Z" />
  </g>
</svg>