<svg xmlns="http://www.w3.org/2000/svg" viewBox="0 0 64 64">
  <g data-z="5" data-part="hat">
    <path class="cls-red"
      d="M20.41,15.81a4.06,4.06,0,0,0-4.14-1.74,4.81,4.81,0,0,0-2.75,1.43l-.59.55-.59-.55a4.81,4.81,0,0,0-2.75-1.43,4.05,4.05,0,0,0-4.14,1.74,4.7,4.7,0,0,0-1,2.94A6.13,6.13,0,0,0,5,21a11.7,11.7,0,0,0,2,3.11,26.6,26.6,0,0,0,3.81,3.54c.3.24.61.48.93.71a1.86,1.86,0,0,0,2.24,0l.93-.71a27.75,27.75,0,0,0,3.81-3.54,12.08,12.08,0,0,0,2-3.11,5.93,5.93,0,0,0,.53-2.23A4.7,4.7,0,0,0,20.41,15.81Z" />
    <path class="cls-red"
      d="M58.72,42.79a3.39,3.39,0,0,0-3.44-1.44A4,4,0,0,0,53,42.53l-.49.46L52,42.53a4,4,0,0,0-2.28-1.18,3.39,3.39,0,0,0-3.44,1.44,3.93,3.93,0,0,0-.78,2.44A4.92,4.92,0,0,0,46,47.09a10.27,10.27,0,0,0,1.69,2.58,23.13,23.13,0,0,0,3.16,2.94l.78.58a1.52,1.52,0,0,0,1.85,0l.78-.58a23.21,23.21,0,0,0,3.16-3,10,10,0,0,0,1.69-2.57,4.91,4.91,0,0,0,.43-1.85A3.88,3.88,0,0,0,58.72,42.79Z" />
    <path class="cls-red"
      d="M56.84,7.7a2.88,2.88,0,0,0-2.93-1.23,3.39,3.39,0,0,0-1.94,1l-.41.39-.42-.39a3.39,3.39,0,0,0-1.94-1A2.88,2.88,0,0,0,46.28,7.7a3.31,3.31,0,0,0-.67,2.07A4.07,4.07,0,0,0,46,11.35a8.39,8.39,0,0,0,1.44,2.19A18.64,18.64,0,0,0,50.11,16l.66.5a1.32,1.32,0,0,0,1.58,0L53,16a19.26,19.26,0,0,0,2.69-2.5,8.36,8.36,0,0,0,1.43-2.19,4.06,4.06,0,0,0,.37-1.57A3.31,3.31,0,0,0,56.84,7.7Z" />
  </g>
</svg>