<svg xmlns="http://www.w3.org/2000/svg" viewBox="0 0 64 64">
  <defs>
    <style>
      .cls-red{fill:#e62e49;}.cls-skyblue{fill:#37b9ff;}
    </style>
  </defs>
  <title>Clown Hair</title>
  <g data-z="5" data-part="hat">
    <path class="cls-ice"
      d="M57.2,39a4.33,4.33,0,0,0-4.32,4.53l.72,14.71a1.38,1.38,0,0,0,2.73.16l2.81-17.12A2,2,0,0,0,57.2,39Z" />
    <path class="cls-ice-2"
      d="M56.84,40.64a1.92,1.92,0,0,0-1.92,2l.32,6.57a.61.61,0,0,0,1.21.07l1.26-7.64A.89.89,0,0,0,56.84,40.64Z" />
    <path class="cls-ice"
      d="M8.64,34.45a2.3,2.3,0,0,1,2.46,2.12c-.06,7.88-.48,14-1.54,14S7.1,44.11,7,35.91a1.58,1.58,0,0,1,1.69-1.46Z" />
    <path class="cls-ice"
      d="M40.62,8.9c-1.55,0-2.81.81-2.8,1.8.07,6.73.55,11.92,1.75,11.92s2.79-5.48,3-12.48c0-.68-.84-1.24-1.91-1.24Z" />
  </g>
</svg>