<svg xmlns="http://www.w3.org/2000/svg" viewBox="0 0 64 64">


  <g data-z="5" data-part="hat" transform="translate(-1.4 -1) translate(50 50) scale(0.93) translate( -50 -50)">
    <path class="cls-2"
        d="M26.53.61a46.89,46.89,0,0,0-4.78.48A2,2,0,0,0,20.38,4l.05.09a2,2,0,0,0,2,1c1.42-.21,2.86-.35,4.31-.43a2,2,0,0,0,1.84-2V2.57A2,2,0,0,0,26.53.61Z" />
      <path class="cls-2"
        d="M5,41.16c-.22-1.63-.36-3.29-.42-5a2,2,0,0,0-2-1.86H2.49a2,2,0,0,0-2,2A50.72,50.72,0,0,0,1,41.8a2,2,0,0,0,2.93,1.41l.1-.06A2,2,0,0,0,5,41.16Z" />
      <path class="cls-2"
        d="M37.27,4.56c1.47.06,2.94.17,4.38.36a2,2,0,0,0,2-.95l0-.09A2,2,0,0,0,42.23,1C40.62.74,39,.62,37.44.56a2,2,0,0,0-2,2V2.6A2,2,0,0,0,37.27,4.56Z" />
      <path class="cls-2"
        d="M26.72,59.44a42.8,42.8,0,0,1-5.44-.51,2,2,0,0,0-2.06.94l0,.07a2,2,0,0,0,1.34,2.91,47.67,47.67,0,0,0,6,.59,2,2,0,0,0,2-2V61.4A2,2,0,0,0,26.72,59.44Z" />
      <path class="cls-2"
        d="M2.57,27.53h.09a2,2,0,0,0,2-1.84,39.49,39.49,0,0,1,.55-4.86,2,2,0,0,0-1-2l-.07,0a2,2,0,0,0-2.9,1.31,43.4,43.4,0,0,0-.61,5.38A2,2,0,0,0,2.57,27.53Z" />
      <path class="cls-2"
        d="M61.51,34.34h-.08a2,2,0,0,0-2,1.9,49.39,49.39,0,0,1-.34,5,2,2,0,0,0,1,2l.09.06a2,2,0,0,0,2.92-1.43,54.59,54.59,0,0,0,.37-5.5A2,2,0,0,0,61.51,34.34Z" />
      <path class="cls-2"
        d="M44.69,59.73a2,2,0,0,0-2.08-.94,45,45,0,0,1-5.37.6,2,2,0,0,0-1.84,2v.08a2,2,0,0,0,2.07,2,46.12,46.12,0,0,0,6-.68,2,2,0,0,0,1.31-2.9Z" />
      <path class="cls-2"
        d="M13.44,5.59a1.94,1.94,0,0,0-2.71-.7,19.42,19.42,0,0,0-5,4.42,2,2,0,0,0,.59,2.88l.1.06A2,2,0,0,0,9,11.76,15.76,15.76,0,0,1,12.8,8.34a2,2,0,0,0,.69-2.65Z" />
      <path class="cls-2"
        d="M58.74,50.3l-.09,0a2,2,0,0,0-2.65.68,15.64,15.64,0,0,1-4,4.21,2,2,0,0,0-.6,2.6l.05.08a2,2,0,0,0,2.8.65A19.49,19.49,0,0,0,59.44,53,2,2,0,0,0,58.74,50.3Z" />
      <path class="cls-2"
        d="M12,55.25a16,16,0,0,1-3.92-4.42,2,2,0,0,0-2.65-.64l0,0a2,2,0,0,0-.71,2.69,19.75,19.75,0,0,0,4.88,5.53,2,2,0,0,0,2.92-.55l.05-.08A2,2,0,0,0,12,55.25Z" />
      <path class="cls-2"
        d="M59.33,25.73a1.94,1.94,0,0,0,2,1.8h.11a2,2,0,0,0,2-2.12,44.9,44.9,0,0,0-.7-5.23,2,2,0,0,0-2.91-1.33l-.09,0a1.94,1.94,0,0,0-.95,2A44.14,44.14,0,0,1,59.33,25.73Z" />
      <path class="cls-2"
        d="M54.92,11.73a2,2,0,0,0,2.57.56l.06,0a2,2,0,0,0,.57-2.89,19.35,19.35,0,0,0-4.73-4.54,2,2,0,0,0-2.77.67l0,.07a2,2,0,0,0,.63,2.62A15.32,15.32,0,0,1,54.92,11.73Z" />
  </g>
</svg>