<svg xmlns="http://www.w3.org/2000/svg" viewBox="0 0 64 64">
  <g data-z="5" data-part="hat">
    <path class="cls-party-6"
      d="M55.11,4.83,42.72,10.78A1.73,1.73,0,0,0,42,13.22a19,19,0,0,0,4.49,5.06,18.84,18.84,0,0,0,6,3.18,1.73,1.73,0,0,0,2.21-1.28l2.9-13.44A1.72,1.72,0,0,0,55.11,4.83Z" />
    <path class="cls-party-7"
      d="M25.23,49.9a2,2,0,0,0-.85-2.48l-1.95-1.08a2,2,0,0,0-2.55.6L16.39,52a2,2,0,0,0,.67,2.81l3,1.66a2,2,0,0,0,2.74-.93Z" />
    <path class="cls-party-8"
      d="M19.53,12.94a1.77,1.77,0,0,0,2.11,1.11l2-.52a1.77,1.77,0,0,0,1.31-2L24,6a1.77,1.77,0,0,0-2.2-1.44l-3,.78A1.78,1.78,0,0,0,17.6,7.67Z" />
    <path class="cls-party-9"
      d="M55.16,52.44,51.42,51a1.36,1.36,0,0,0-1.84,1.41l.46,4a1.35,1.35,0,0,0,2.18.91l3.29-2.59A1.35,1.35,0,0,0,55.16,52.44Z" />
    <path class="cls-party-10"
      d="M18.07,22.44l-2.14-4.85a1.79,1.79,0,0,0-3-.39L9.55,21.4a1.79,1.79,0,0,0,1.19,2.89l5.48.64A1.79,1.79,0,0,0,18.07,22.44Z" />
    <path class="cls-party-11"
      d="M44.61,9.87a27.64,27.64,0,0,0,2.25,8.7,19.07,19.07,0,0,0,5.57,2.89,1.62,1.62,0,0,0,1,0C49.51,17,48.62,11.43,48.48,8Z" />
    <path class="cls-party-11"
      d="M56.53,11.41a20.09,20.09,0,0,1-1.41-6.58h0L51.27,6.68a22.08,22.08,0,0,0,4,10.59Z" />
  </g>
</svg>