<svg xmlns="http://www.w3.org/2000/svg" viewBox="0 0 64 64">
  <g data-z="5" data-part="hat">
    <path class="cls-shadow"
      d="M36.2,14c-1,0-2.05,0-3.07,0h0c-8.48-.12-17.93,1-21.22,9.81a24.59,24.59,0,0,0-1.39,7,10.2,10.2,0,0,0,6.82,1.34l9.78-1.51A6,6,0,0,0,32,23.12a6.13,6.13,0,0,0-.41-1.06l1.87-1.13A6.11,6.11,0,0,0,36.2,14Z" />
    <path class="cls-skin"
      d="M24.11,5.51h0a2.07,2.07,0,0,1-.71,2.84L26,6.77a2.07,2.07,0,0,1,2.84.71h0a2.08,2.08,0,0,1-.71,2.85l.65-.39a2.16,2.16,0,0,1,2.74.37,2.08,2.08,0,0,1-.51,3.13l-.74.45a2.07,2.07,0,0,1,3,1,2.15,2.15,0,0,1-1,2.59l-8.16,4.9,3.17.38a2,2,0,0,1,1.73,1.4,2,2,0,0,1-1.58,2.46l-9.78,1.51a6.3,6.3,0,0,1-6.36-3L9,21.23a6.28,6.28,0,0,1,.66-7.39l.12-.14a36.13,36.13,0,0,1,8.57-7.16l2.9-1.74A2.07,2.07,0,0,1,24.11,5.51Z" />
  </g>
</svg>