<svg xmlns="http://www.w3.org/2000/svg" viewBox="0 0 64 64">
  <g data-z="5" data-part="hat">
    <path class="cls-shadow"
      d="M31.4,14.54c-.08,0-.14-.23-.18-.53a6.38,6.38,0,0,1,0-1,7.92,7.92,0,0,1,.07-1.1,2.65,2.65,0,0,1,.21-.81c.07-.15.51-.24,1.31-.26s1.69,0,2.67,0,1.94.12,2.85.2,1.53.16,1.85.22.39.25.5.58A4,4,0,0,1,40.81,13a6.36,6.36,0,0,1-.12,1.24,2,2,0,0,1-.36.89h0c-.34.39-.77.83-1.27,1.33s-1,1-1.6,1.53c.57,0,1.07,0,1.51.06s.76.07.94.1.44.31.55.76a5.57,5.57,0,0,1,.12,1.44,5.92,5.92,0,0,1-.24,1.41c-.14.42-.32.64-.54.65-.62,0-1.43,0-2.41,0s-2-.07-2.91-.13-1.8-.13-2.54-.23a3.06,3.06,0,0,1-1.28-.33q-.24-.16-.21-1.41a4.85,4.85,0,0,1,.3-1.8,5.18,5.18,0,0,1,1.38-1.4q1.22-1,2.58-2-1.26-.11-2.19-.27A2.85,2.85,0,0,1,31.4,14.54Z" />
    <path class="cls-water-1"
      d="M30.4,12.54c-.08,0-.14-.23-.18-.53a6.38,6.38,0,0,1,0-1,7.92,7.92,0,0,1,.07-1.1,2.65,2.65,0,0,1,.21-.81c.07-.15.51-.24,1.31-.26s1.69,0,2.67,0,1.94.12,2.85.2,1.53.16,1.85.22.39.25.5.58A4,4,0,0,1,39.81,11a6.36,6.36,0,0,1-.12,1.24,2,2,0,0,1-.36.89h0c-.34.39-.77.83-1.27,1.33s-1,1-1.6,1.53c.57,0,1.07,0,1.51.06s.76.07.94.1.44.31.55.76a5.57,5.57,0,0,1,.12,1.44,5.92,5.92,0,0,1-.24,1.41c-.14.42-.32.64-.54.65-.62,0-1.43,0-2.41,0s-2-.07-2.91-.13-1.8-.13-2.54-.23a3.06,3.06,0,0,1-1.28-.33q-.24-.16-.21-1.41a4.85,4.85,0,0,1,.3-1.8,5.18,5.18,0,0,1,1.38-1.4q1.21-1,2.58-2-1.26-.11-2.19-.27A2.85,2.85,0,0,1,30.4,12.54Z" />
    <path class="cls-shadow"
      d="M58.44,20.19c0-.59-.19-1-.5-1.09s-.62-.21-1.17-.36-1.18-.29-1.9-.45c.84-.52,1.64-1,2.4-1.55.09,0,.16-.11.24-.16a16.68,16.68,0,0,0-6.4-8.47L50.68,8c-1-.17-1.59-.17-1.72,0a3.25,3.25,0,0,0-.46,1,12,12,0,0,0-.37,1.37,8.57,8.57,0,0,0-.18,1.3q0,.59.09.72a3.65,3.65,0,0,0,1.33.7,28.08,28.08,0,0,0,2.71.88c-1.32.63-2.57,1.26-3.76,1.88a6.65,6.65,0,0,0-2.1,1.43,6.52,6.52,0,0,0-.82,2.21c-.23,1.05-.26,1.66-.08,1.85a4,4,0,0,0,1.54.73c.91.3,2,.61,3.16.92s2.42.6,3.66.88,2.26.47,3.06.59q.42.06.84-.69a6.92,6.92,0,0,0,.66-1.73A7.11,7.11,0,0,0,58.44,20.19Z" />
    <path class="cls-water-1"
      d="M45,9.4q-.13-.13-.09-.72a8.57,8.57,0,0,1,.18-1.3A12,12,0,0,1,45.5,6,3.25,3.25,0,0,1,46,5c.13-.18.7-.18,1.72,0s2.15.41,3.38.71,2.43.62,3.57,1,1.9.58,2.29.73a1,1,0,0,1,.49.86,4.76,4.76,0,0,1-.06,1.49,7.57,7.57,0,0,1-.46,1.56,2.54,2.54,0,0,1-.67,1h0c-.52.41-1.17.87-1.93,1.37s-1.56,1-2.4,1.55c.72.16,1.35.31,1.9.45s.94.27,1.17.36.47.5.5,1.09a7.11,7.11,0,0,1-.2,1.86,6.92,6.92,0,0,1-.66,1.73q-.42.75-.84.69c-.8-.12-1.82-.31-3.06-.59S48.22,20.31,47,20s-2.25-.62-3.16-.92a4,4,0,0,1-1.54-.73c-.18-.19-.15-.8.08-1.85a6.52,6.52,0,0,1,.82-2.21,6.65,6.65,0,0,1,2.1-1.43c1.19-.62,2.44-1.25,3.76-1.88a28.08,28.08,0,0,1-2.71-.88A3.65,3.65,0,0,1,45,9.4Z" />
  </g>
</svg>