<svg xmlns="http://www.w3.org/2000/svg" viewBox="0 0 64 64"><defs><style>.cls-1,.cls-2{fill:#1a1a1a;}.cls-1{opacity:0;}.cls-3{fill:#fec92b;}.cls-4{fill:#fdaf18;}.cls-5{fill:#fff;}.cls-6{fill:#e62e49;}</style></defs><title>Face blowing a kiss</title><g id="Layer_2" data-name="Layer 2"><g id="Rough"><rect class="cls-1" width="64" height="64"/><path class="cls-2" d="M63.49,32.06c.09-6.54.35-23.92-14.44-29.46C44.11.75,38.89.5,34,.5H30.63C20.92.5,7.45,2,2.6,15c-2,5.42-2.14,10.94-2.09,17C.42,38.48.16,55.86,15,61.4c4.94,1.85,10.17,2.1,15.07,2.1h3.34c6.8,0,12-.81,16.27-2.55h.1a5.85,5.85,0,0,0,2.6-.62l1.08-.56a30.88,30.88,0,0,0,5-3.23,15.86,15.86,0,0,0,3.41-3.62,10.1,10.1,0,0,0,1.52-3.56,8.73,8.73,0,0,0-.59-5.29A61.27,61.27,0,0,0,63.49,32.06Z"/><path class="cls-3" d="M59.49,32h0c.15-10.25-1.21-21.67-11.85-25.65C42.69,4.49,37.26,4.46,32,4.51h0C21.75,4.36,10.33,5.72,6.35,16.36,4.49,21.31,4.46,26.74,4.51,32h0C4.36,42.25,5.72,53.67,16.36,57.65c4.95,1.86,10.38,1.89,15.64,1.84h0c10.25.15,21.67-1.21,25.65-11.85C59.51,42.69,59.54,37.26,59.49,32Z"/><path class="cls-4" d="M32,54A46.35,46.35,0,0,1,6,45.79C7.48,51,10.52,55.47,16.36,57.65c4.95,1.86,10.38,1.89,15.64,1.84h0c10.25.15,21.67-1.21,25.65-11.85.25-.66.46-1.34.65-2A46.44,46.44,0,0,1,32,54Z"/><ellipse class="cls-4" cx="51" cy="39.49" rx="5.56" ry="3.55"/><ellipse class="cls-4" cx="13" cy="39.49" rx="5.56" ry="3.55"/><circle class="cls-5" cx="19.5" cy="31.37" r="7.78"/><circle class="cls-2" cx="21.66" cy="31.37" r="4.52"/><ellipse class="cls-4" cx="19.34" cy="15.76" rx="4.66" ry="2.79" transform="translate(-1.3 1.75) rotate(-5)"/><ellipse class="cls-4" cx="44.66" cy="20.76" rx="2.79" ry="4.66" transform="translate(20.09 63.43) rotate(-85)"/><path class="cls-2" d="M32.47,51.94a14.6,14.6,0,0,0,2-1.31A2.91,2.91,0,0,0,35,50a.53.53,0,0,0,0-.62,2.91,2.91,0,0,0-.55-.62,14.6,14.6,0,0,0-2-1.31l0,0a.65.65,0,0,1-.22-.9.62.62,0,0,1,.41-.3,5,5,0,0,1,3.11.26,4.28,4.28,0,0,1,1.52,1.07,3.15,3.15,0,0,1,0,4.28,4.28,4.28,0,0,1-1.52,1.07,5,5,0,0,1-3.11.26.65.65,0,0,1-.49-.79.65.65,0,0,1,.29-.41Z"/><path class="cls-2" d="M32.47,46.23a14.6,14.6,0,0,0,2-1.31A2.91,2.91,0,0,0,35,44.3a.77.77,0,0,0,.1-.31.75.75,0,0,0-.1-.32,2.91,2.91,0,0,0-.55-.62,14.6,14.6,0,0,0-2-1.31l0,0a.66.66,0,0,1,.19-1.21,5,5,0,0,1,3.11.27,4.25,4.25,0,0,1,1.52,1.06,3.16,3.16,0,0,1,0,4.29,4.25,4.25,0,0,1-1.52,1.06,5,5,0,0,1-3.11.27.66.66,0,0,1-.49-.8.63.63,0,0,1,.29-.4Z"/><path class="cls-6" d="M59,45.49a4.08,4.08,0,0,0-3.79-2.44,4.79,4.79,0,0,0-3,.93c-.21.15-.44.29-.68.44-.17-.22-.33-.43-.48-.65a4.94,4.94,0,0,0-2.47-1.89,4.12,4.12,0,0,0-4.4,1,4.77,4.77,0,0,0-1.44,2.74,6.14,6.14,0,0,0,.14,2.3,12.08,12.08,0,0,0,1.47,3.42,27.82,27.82,0,0,0,3.15,4.17l.79.86a1.87,1.87,0,0,0,2.22.39l1-.54A26.68,26.68,0,0,0,56,53.38a11.94,11.94,0,0,0,2.55-2.71,6,6,0,0,0,.91-2.11A4.73,4.73,0,0,0,59,45.49Z"/><path class="cls-2" d="M50.33,35.19a17.26,17.26,0,0,0-5.7-1,15.53,15.53,0,0,0-2.78.29c-.93.18-1.88.45-2.93.76l-.07,0a1.16,1.16,0,0,1-1.45-.78,1.21,1.21,0,0,1,.19-1,8.73,8.73,0,0,1,7-3.25,9,9,0,0,1,7,3.25A1.17,1.17,0,0,1,51.46,35a1.16,1.16,0,0,1-1.07.18Z"/></g></g></svg>