<svg xmlns="http://www.w3.org/2000/svg" viewBox="0 0 64 64"><defs><style>.cls-1,.cls-2{fill:#1a1a1a;}.cls-1{opacity:0;}.cls-3{fill:#fec92b;}.cls-4{fill:#fdaf18;}.cls-5{fill:#fff;}.cls-6{fill:#ffef80;}</style></defs><title>Face with peeking eye</title><g id="Layer_2" data-name="Layer 2"><g id="Rough"><rect class="cls-1" width="64" height="64"/><path class="cls-2" d="M49.05,2.6C44.11.75,38.89.5,34,.5H30.63C20.92.5,7.45,2,2.6,15c-2,5.42-2.14,10.94-2.09,17C.42,38.48.16,55.86,15,61.4c4.94,1.85,10.16,2.1,15.06,2.1h3.36c9.71,0,23.18-1.5,28-14.45,2-5.42,2.14-10.94,2.09-17C63.58,25.52,63.84,8.14,49.05,2.6Z"/><path class="cls-3" d="M59.49,32h0c.15-10.25-1.21-21.67-11.85-25.65C42.69,4.49,37.26,4.46,32,4.51h0C21.75,4.36,10.33,5.72,6.35,16.36,4.49,21.31,4.46,26.74,4.51,32h0C4.36,42.25,5.72,53.67,16.36,57.65c4.95,1.86,10.38,1.89,15.64,1.84h0c10.25.15,21.67-1.21,25.65-11.85C59.51,42.69,59.54,37.26,59.49,32Z"/><path class="cls-4" d="M32,54A46.35,46.35,0,0,1,6,45.79C7.48,51,10.52,55.47,16.36,57.65c4.95,1.86,10.38,1.89,15.64,1.84h0c10.25.15,21.67-1.21,25.65-11.85.25-.66.46-1.34.65-2A46.44,46.44,0,0,1,32,54Z"/><ellipse class="cls-4" cx="51" cy="39.49" rx="5.56" ry="3.55"/><ellipse class="cls-4" cx="13" cy="39.49" rx="5.56" ry="3.55"/><circle class="cls-5" cx="44.5" cy="31.37" r="7.78"/><circle class="cls-2" cx="42.34" cy="31.37" r="4.52"/><path class="cls-2" d="M23.49,43c1.46.18,2.87.36,4.28.47s2.82.16,4.23.15,2.81-.08,4.22-.18S39,43.17,40.51,43h0a1.15,1.15,0,0,1,.78,2.09A14,14,0,0,1,36.84,47a19.3,19.3,0,0,1-4.84.57,19.72,19.72,0,0,1-4.83-.6,14.76,14.76,0,0,1-4.49-1.92,1.14,1.14,0,0,1-.32-1.59,1.16,1.16,0,0,1,1.1-.5Z"/><path class="cls-2" d="M24.32,32.36A20.65,20.65,0,0,0,18.59,32a18.37,18.37,0,0,0-2.73.48c-.92.23-1.83.53-2.85.87l-.08,0a1.16,1.16,0,0,1-1.47-.74,1.21,1.21,0,0,1,.14-1A8.92,8.92,0,0,1,18.24,28a9.21,9.21,0,0,1,7.16,2.39,1.16,1.16,0,0,1,0,1.64,1.13,1.13,0,0,1-1,.32Z"/><path class="cls-6" d="M29,31h0a2.51,2.51,0,0,0-2.91,2l.65-3.66a2.51,2.51,0,0,0-2-2.91h0a2.5,2.5,0,0,0-2.9,2l.16-.9A2.61,2.61,0,0,0,20.3,24.7,2.5,2.5,0,0,0,17,26.63l-.18,1a2.51,2.51,0,0,0-2.46-2.95,2.61,2.61,0,0,0-2.5,2.21l-2,11.32L8.06,34.83a2.43,2.43,0,0,0-2.33-1.34,2.36,2.36,0,0,0-2.1,2.84L6.16,48a7.6,7.6,0,0,0,6.12,5.88l5.47,1a7.6,7.6,0,0,0,8.05-3.95l.1-.19A43.86,43.86,0,0,0,30.27,38l.71-4A2.51,2.51,0,0,0,29,31Z"/><path class="cls-6" d="M58.28,33.26a2.42,2.42,0,0,0-2.34,1.34l-1.3,2.47,1.26-9.7A2.5,2.5,0,0,0,51,26.54l.11-.9a2.7,2.7,0,0,0-1.89-2.91,2.51,2.51,0,0,0-3.06,2.12L44.33,38.61a.51.51,0,0,1-1,.14L38.26,27.13a2.6,2.6,0,0,0-2.92-1.55A2.5,2.5,0,0,0,33.62,29l1.49,3.4a2.5,2.5,0,0,0-3.53-1.17,2.71,2.71,0,0,0-1,3.32l3.17,7.2c.78,1.78,1.62,3.52,2.52,5.24l1.93,3.67a7.6,7.6,0,0,0,8,3.94l5.48-1a7.59,7.59,0,0,0,6.1-5.88l2.53-11.7A2.34,2.34,0,0,0,58.28,33.26Z"/><ellipse class="cls-4" cx="19.34" cy="15.76" rx="4.66" ry="2.79" transform="translate(-1.3 1.75) rotate(-5)"/><ellipse class="cls-4" cx="44.66" cy="15.76" rx="2.79" ry="4.66" transform="translate(25.07 58.87) rotate(-85)"/></g></g></svg>