<svg xmlns="http://www.w3.org/2000/svg" viewBox="0 0 64 64"><defs><style>.cls-1,.cls-2{fill:#1a1a1a;}.cls-1{opacity:0;}.cls-3{fill:#fec92b;}.cls-4{fill:#fdaf18;}.cls-5{fill:#fff;}.cls-6{fill:#fc9504;}</style></defs><title>Face with raised eyebrow</title><g id="Layer_2" data-name="Layer 2"><g id="Rough"><rect class="cls-1" width="64" height="64"/><path class="cls-2" d="M49.05,2.6C44.11.75,38.89.5,34,.5H30.63C20.92.5,7.45,2,2.6,15c-2,5.42-2.14,10.94-2.09,17C.42,38.48.16,55.86,15,61.4c4.94,1.85,10.16,2.1,15.06,2.1h3.36c9.71,0,23.18-1.5,28-14.45,2-5.42,2.14-10.94,2.09-17C63.58,25.52,63.84,8.14,49.05,2.6Z"/><path class="cls-3" d="M59.49,32h0c.15-10.25-1.21-21.67-11.85-25.65C42.69,4.49,37.26,4.46,32,4.51h0C21.75,4.36,10.33,5.72,6.35,16.36,4.49,21.31,4.46,26.74,4.51,32h0C4.36,42.25,5.72,53.67,16.36,57.65c4.95,1.86,10.38,1.89,15.64,1.84h0c10.25.15,21.67-1.21,25.65-11.85C59.51,42.69,59.54,37.26,59.49,32Z"/><ellipse class="cls-4" cx="51" cy="39.49" rx="5.56" ry="3.55"/><ellipse class="cls-4" cx="13" cy="39.49" rx="5.56" ry="3.55"/><path class="cls-5" d="M25.44,26.38a3.07,3.07,0,0,0-1.36-.94,23.09,23.09,0,0,0-3.76-1,24.92,24.92,0,0,0-2.87-.3,3.07,3.07,0,0,0-1.65.38,7.74,7.74,0,0,0-2.65,11.3,3.07,3.07,0,0,0,2.52,1.27h7.67a3.09,3.09,0,0,0,2.51-1.26,7.77,7.77,0,0,0,1.34-5.65A7.59,7.59,0,0,0,25.44,26.38Z"/><path class="cls-4" d="M32,54A46.35,46.35,0,0,1,6,45.79C7.48,51,10.52,55.47,16.36,57.65c4.95,1.86,10.38,1.89,15.64,1.84h0c10.25.15,21.67-1.21,25.65-11.85.25-.66.46-1.34.65-2A46.44,46.44,0,0,1,32,54Z"/><path class="cls-2" d="M41.54,45.75c-1.62.12-3.22.11-4.79.14l-4.75,0c-1.59,0-3.17,0-4.75,0s-3.17,0-4.79-.16a.85.85,0,0,1-.15-1.67,30.91,30.91,0,0,1,4.81-.9A44.42,44.42,0,0,1,32,42.94a39,39,0,0,1,9.69,1.14.84.84,0,0,1,.61,1A.86.86,0,0,1,41.54,45.75Z"/><path class="cls-5" d="M40.66,37.12h7.67a3.07,3.07,0,0,0,2.52-1.27,7.78,7.78,0,1,0-12.71,0A3.09,3.09,0,0,0,40.66,37.12Z"/><circle class="cls-2" cx="42.34" cy="31.37" r="4.52"/><circle class="cls-2" cx="21.66" cy="31.37" r="4.52"/><path class="cls-6" d="M50.39,14.86a20.48,20.48,0,0,0-5.73.14,19.61,19.61,0,0,0-2.68.71c-.89.31-1.78.69-2.76,1.12l-.08,0a1.16,1.16,0,0,1-1.47-1.63A8.86,8.86,0,0,1,44,11.07a9.16,9.16,0,0,1,7.35,1.75,1.16,1.16,0,0,1-.84,2Z"/><path class="cls-6" d="M24.78,23.83A20.29,20.29,0,0,0,19.34,22a19.39,19.39,0,0,0-2.76-.25c-.94,0-1.9.05-3,.11h-.09a1.16,1.16,0,0,1-1.23-1.09,1.18,1.18,0,0,1,.4-.95A8.9,8.9,0,0,1,20,18.07a9.13,9.13,0,0,1,6.29,4.16,1.15,1.15,0,0,1-1.48,1.63Z"/></g></g></svg>