<svg xmlns="http://www.w3.org/2000/svg" viewBox="0 0 64 64"><defs><style>.cls-1,.cls-2{fill:#1a1a1a;}.cls-1{opacity:0;}.cls-3{fill:#fec92b;}.cls-4{fill:#fdaf18;}.cls-5{fill:#fff;}.cls-6{fill:#cef;}</style></defs><title>Face exhaling</title><g id="Layer_2" data-name="Layer 2"><g id="Rough"><rect class="cls-1" width="64" height="64"/><path class="cls-2" d="M49.05,2.6C44.11.75,38.89.5,34,.5H30.63C20.92.5,7.45,2,2.6,15c-2,5.42-2.14,10.94-2.09,17C.42,38.48.16,55.86,15,61.4c4.94,1.85,10.16,2.1,15.06,2.1h3.36c9.71,0,23.18-1.5,28-14.45,2-5.42,2.14-10.94,2.09-17C63.58,25.52,63.84,8.14,49.05,2.6Z"/><path class="cls-3" d="M59.49,32h0c.15-10.25-1.21-21.67-11.85-25.65C42.69,4.49,37.26,4.46,32,4.51h0C21.75,4.36,10.33,5.72,6.35,16.36,4.49,21.31,4.46,26.74,4.51,32h0C4.36,42.25,5.72,53.67,16.36,57.65c4.95,1.86,10.38,1.89,15.64,1.84h0c10.25.15,21.67-1.21,25.65-11.85C59.51,42.69,59.54,37.26,59.49,32Z"/><path class="cls-4" d="M32,54A46.35,46.35,0,0,1,6,45.79C7.48,51,10.52,55.47,16.36,57.65c4.95,1.86,10.38,1.89,15.64,1.84h0c10.25.15,21.67-1.21,25.65-11.85.25-.66.46-1.34.65-2A46.44,46.44,0,0,1,32,54Z"/><ellipse class="cls-4" cx="51" cy="39.49" rx="5.56" ry="3.55"/><ellipse class="cls-4" cx="13" cy="39.49" rx="5.56" ry="3.55"/><path class="cls-2" d="M15,30.74a19.44,19.44,0,0,0,2.86,1.09,9.62,9.62,0,0,0,2.68.37,10.77,10.77,0,0,0,2.67-.39A22.39,22.39,0,0,0,26,30.74l.07,0a1.16,1.16,0,0,1,1.45,1.66,7.62,7.62,0,0,1-2.94,2.77,8.38,8.38,0,0,1-4.12,1,8.58,8.58,0,0,1-4.11-1.06,8.14,8.14,0,0,1-3-2.75,1.16,1.16,0,0,1,1.45-1.67Z"/><path class="cls-2" d="M38,30.74a19.34,19.34,0,0,0,2.85,1.09,9.74,9.74,0,0,0,2.69.37,10.84,10.84,0,0,0,2.67-.39A22.39,22.39,0,0,0,49,30.74l.06,0a1.16,1.16,0,0,1,1.53.62,1.18,1.18,0,0,1-.07,1,7.62,7.62,0,0,1-2.94,2.77,8.38,8.38,0,0,1-4.12,1,8.55,8.55,0,0,1-4.11-1.06,8.14,8.14,0,0,1-3-2.75,1.16,1.16,0,0,1,1.45-1.67Z"/><path class="cls-4" d="M13.62,18a20.38,20.38,0,0,0,5.63-1.13,21.07,21.07,0,0,0,2.51-1.17c.83-.46,1.63-1,2.52-1.58l.07,0a1.16,1.16,0,0,1,1.62.33,1.19,1.19,0,0,1,.12,1,8.87,8.87,0,0,1-5.48,5.19,9.19,9.19,0,0,1-7.53-.45A1.16,1.16,0,0,1,13.55,18Z"/><path class="cls-4" d="M39.72,14.15a20.51,20.51,0,0,0,5,2.75,19.94,19.94,0,0,0,2.68.72c.93.18,1.88.29,3,.41h.08a1.17,1.17,0,0,1,1,1.3,1.15,1.15,0,0,1-.56.86,8.89,8.89,0,0,1-7.53.45,9.16,9.16,0,0,1-5.48-5.19,1.16,1.16,0,0,1,1.75-1.35Z"/><path class="cls-2" d="M35.36,46.12c0,1.79-1.45,2.56-3.23,2.56s-3.24-.77-3.24-2.56,1.45-3.91,3.24-3.91S35.36,44.34,35.36,46.12Z"/><path class="cls-5" d="M40.36,54.43a4.9,4.9,0,0,0-4.9-4.9,5,5,0,0,0-1.17.15l-.59-2.53a1.22,1.22,0,0,0-1.19-.94h-1a1.22,1.22,0,0,0-1.18.94L29.68,50a4.69,4.69,0,0,0-1.19-.18A4.59,4.59,0,0,0,28,59a5.11,5.11,0,0,0,9.22,0A4.88,4.88,0,0,0,40.36,54.43Z"/><path class="cls-6" d="M34.88,56.88A6.29,6.29,0,0,1,31,55.55a6.16,6.16,0,0,1-7.09-.5A4.58,4.58,0,0,0,28,59a5.11,5.11,0,0,0,9.22,0,4.88,4.88,0,0,0,3.19-4.58,4.48,4.48,0,0,0-.06-.64A6.33,6.33,0,0,1,34.88,56.88Z"/></g></g></svg>