<svg xmlns="http://www.w3.org/2000/svg" viewBox="0 0 64 64"><defs><style>.cls-1,.cls-2{fill:#1a1a1a;}.cls-1{opacity:0;}.cls-3{fill:#fec92b;}.cls-4{fill:#fdaf18;}.cls-5{fill:#fff;}</style></defs><title>Head shaking horizontally</title><g id="Layer_2" data-name="Layer 2"><g id="Rough"><rect class="cls-1" width="64" height="64"/><path class="cls-2" d="M49.05,2.6C44.11.75,38.89.5,34,.5H30.63C20.92.5,7.45,2,2.6,15c-2,5.42-2.14,10.94-2.09,17C.42,38.48.16,55.86,15,61.4c4.94,1.85,10.16,2.1,15.06,2.1h3.36c9.71,0,23.18-1.5,28-14.45,2-5.42,2.14-10.94,2.09-17C63.58,25.52,63.84,8.14,49.05,2.6Z"/><path class="cls-3" d="M59.49,32h0c.15-10.25-1.21-21.67-11.85-25.65C42.69,4.49,37.26,4.46,32,4.51h0C21.75,4.36,10.33,5.72,6.35,16.36,4.49,21.31,4.46,26.74,4.51,32h0C4.36,42.25,5.72,53.67,16.36,57.65c4.95,1.86,10.38,1.89,15.64,1.84h0c10.25.15,21.67-1.21,25.65-11.85C59.51,42.69,59.54,37.26,59.49,32Z"/><path class="cls-4" d="M32,54A46.35,46.35,0,0,1,6,45.79C7.48,51,10.52,55.47,16.36,57.65c4.95,1.86,10.38,1.89,15.64,1.84h0c10.25.15,21.67-1.21,25.65-11.85.25-.66.46-1.34.65-2A46.44,46.44,0,0,1,32,54Z"/><ellipse class="cls-4" cx="45" cy="39.49" rx="5.56" ry="3.55"/><path class="cls-2" d="M17.71,43.12a27.17,27.17,0,0,0,4.15,1.25,20,20,0,0,0,4.14.41,20.63,20.63,0,0,0,4.13-.44,32.28,32.28,0,0,0,4.16-1.22h0a1.16,1.16,0,0,1,1.47.69A1.18,1.18,0,0,1,35.54,45a11.68,11.68,0,0,1-4.34,2.85,14,14,0,0,1-5.2,1A13.5,13.5,0,0,1,16.46,45a1.14,1.14,0,0,1,0-1.61,1.12,1.12,0,0,1,1.19-.25Z"/><path class="cls-2" d="M9,30.74a19.44,19.44,0,0,0,2.86,1.09,9.62,9.62,0,0,0,2.68.37,10.77,10.77,0,0,0,2.67-.39A22.39,22.39,0,0,0,20,30.74l.07,0a1.16,1.16,0,0,1,1.45,1.66,7.62,7.62,0,0,1-2.94,2.77,8.38,8.38,0,0,1-4.12,1,8.58,8.58,0,0,1-4.11-1.06,8.14,8.14,0,0,1-2.95-2.75,1.16,1.16,0,0,1,1.45-1.67Z"/><path class="cls-2" d="M32,30.74a19.34,19.34,0,0,0,2.85,1.09,9.74,9.74,0,0,0,2.69.37,10.84,10.84,0,0,0,2.67-.39A22.39,22.39,0,0,0,43,30.74l.06,0a1.16,1.16,0,0,1,1.53.62,1.18,1.18,0,0,1-.07,1,7.62,7.62,0,0,1-2.94,2.77,8.38,8.38,0,0,1-4.12,1,8.55,8.55,0,0,1-4.11-1.06,8.14,8.14,0,0,1-2.95-2.75,1.16,1.16,0,0,1,1.45-1.67Z"/><ellipse class="cls-4" cx="13.34" cy="23.76" rx="4.66" ry="2.79" transform="translate(-2.02 1.25) rotate(-5)"/><ellipse class="cls-4" cx="38.66" cy="23.76" rx="2.79" ry="4.66" transform="translate(11.62 60.2) rotate(-85)"/><path class="cls-5" d="M42.57,40.45l8.72-1.84,4.33-1c1.45-.32,2.9-.65,4.38-.93h0a.85.85,0,0,1,1,.68.86.86,0,0,1-.38.88,22.69,22.69,0,0,1-4.23,2,33.1,33.1,0,0,1-4.48,1.26,35.39,35.39,0,0,1-4.6.66,24.31,24.31,0,0,1-4.67-.07.85.85,0,0,1-.07-1.68Z"/><path class="cls-5" d="M50.44,46.1a33.09,33.09,0,0,1,4.12-1.73c.69-.25,1.39-.47,2.1-.68a16.44,16.44,0,0,1,2.2-.52h0a.88.88,0,0,1,1,.75.9.9,0,0,1-.2.71,7.4,7.4,0,0,1-1.94,1.56,11.12,11.12,0,0,1-2.22,1,12.77,12.77,0,0,1-2.37.56,8.31,8.31,0,0,1-2.49,0,.88.88,0,0,1-.26-1.65Z"/><path class="cls-4" d="M7,35.94a8.22,8.22,0,0,0-2.44.36,45.71,45.71,0,0,0,.7,6.56A8.15,8.15,0,0,0,7,43c3.07,0,5.56-1.59,5.56-3.55S10.07,35.94,7,35.94Z"/></g></g></svg>