<svg xmlns="http://www.w3.org/2000/svg" viewBox="0 0 64 64"><defs><style>.cls-1,.cls-2{fill:#1a1a1a;}.cls-1{opacity:0;}.cls-3{fill:#fec92b;}.cls-4{fill:#fdaf18;}.cls-5{fill:#fc9504;}</style></defs><title>Kissing face with closed eyes</title><g id="Layer_2" data-name="Layer 2"><g id="Rough"><rect class="cls-1" width="64" height="64"/><path class="cls-2" d="M49.05,2.6C44.11.75,38.89.5,34,.5H30.63C20.92.5,7.45,2,2.6,15c-2,5.42-2.14,10.94-2.09,17C.42,38.48.16,55.86,15,61.4c4.94,1.85,10.16,2.1,15.06,2.1h3.36c9.71,0,23.18-1.5,28-14.45,2-5.42,2.14-10.94,2.09-17C63.58,25.52,63.84,8.14,49.05,2.6Z"/><path class="cls-3" d="M59.49,32h0c.15-10.25-1.21-21.67-11.85-25.65C42.69,4.49,37.26,4.46,32,4.51h0C21.75,4.36,10.33,5.72,6.35,16.36,4.49,21.31,4.46,26.74,4.51,32h0C4.36,42.25,5.72,53.67,16.36,57.65c4.95,1.86,10.38,1.89,15.64,1.84h0c10.25.15,21.67-1.21,25.65-11.85C59.51,42.69,59.54,37.26,59.49,32Z"/><path class="cls-4" d="M32,54A46.35,46.35,0,0,1,6,45.79C7.48,51,10.52,55.47,16.36,57.65c4.95,1.86,10.38,1.89,15.64,1.84h0c10.25.15,21.67-1.21,25.65-11.85.25-.66.46-1.34.65-2A46.44,46.44,0,0,1,32,54Z"/><ellipse class="cls-5" cx="51" cy="39.49" rx="5.56" ry="3.55"/><ellipse class="cls-5" cx="13" cy="39.49" rx="5.56" ry="3.55"/><ellipse class="cls-4" cx="16.34" cy="22.76" rx="4.66" ry="2.79" transform="matrix(0.97, -0.26, 0.26, 0.97, -5.33, 5.01)"/><ellipse class="cls-4" cx="47.66" cy="22.76" rx="2.79" ry="4.66" transform="translate(13.34 62.9) rotate(-75)"/><path class="cls-2" d="M26.32,32.36A20.65,20.65,0,0,0,20.59,32a18.37,18.37,0,0,0-2.73.48c-.92.23-1.83.53-2.85.87l-.08,0a1.16,1.16,0,0,1-1.47-.74,1.21,1.21,0,0,1,.14-1A8.92,8.92,0,0,1,20.24,28a9.21,9.21,0,0,1,7.16,2.39,1.16,1.16,0,0,1,0,1.64,1.13,1.13,0,0,1-1,.32Z"/><path class="cls-2" d="M49,33.35A20.31,20.31,0,0,0,43.41,32a18.29,18.29,0,0,0-2.77,0c-.94.06-1.9.21-3,.36H37.6a1.15,1.15,0,0,1-1.32-1,1.19,1.19,0,0,1,.32-1A8.87,8.87,0,0,1,43.76,28a9.17,9.17,0,0,1,6.64,3.6,1.17,1.17,0,0,1-1.35,1.76Z"/><path class="cls-2" d="M32.47,51.94a14.6,14.6,0,0,0,2-1.31A2.91,2.91,0,0,0,35,50a.53.53,0,0,0,0-.62,2.91,2.91,0,0,0-.55-.62,14.6,14.6,0,0,0-2-1.31l0,0a.65.65,0,0,1-.22-.9.62.62,0,0,1,.41-.3,5,5,0,0,1,3.11.26,4.28,4.28,0,0,1,1.52,1.07,3.15,3.15,0,0,1,0,4.28,4.28,4.28,0,0,1-1.52,1.07,5,5,0,0,1-3.11.26.65.65,0,0,1-.49-.79.65.65,0,0,1,.29-.41Z"/><path class="cls-2" d="M32.47,46.23a14.6,14.6,0,0,0,2-1.31A2.91,2.91,0,0,0,35,44.3a.77.77,0,0,0,.1-.31.75.75,0,0,0-.1-.32,2.91,2.91,0,0,0-.55-.62,14.6,14.6,0,0,0-2-1.31l0,0a.66.66,0,0,1,.19-1.21,5,5,0,0,1,3.11.27,4.25,4.25,0,0,1,1.52,1.06,3.16,3.16,0,0,1,0,4.29,4.25,4.25,0,0,1-1.52,1.06,5,5,0,0,1-3.11.27.66.66,0,0,1-.49-.8.63.63,0,0,1,.29-.4Z"/></g></g></svg>