<svg xmlns="http://www.w3.org/2000/svg" viewBox="0 0 64 64"><defs><style>.cls-1,.cls-2{fill:#1a1a1a;}.cls-1{opacity:0;}.cls-3{fill:#fec92b;}.cls-4{fill:#fdaf18;}.cls-5{fill:#65d666;}.cls-6{fill:#39b54a;}.cls-7{fill:#fff;}.cls-8{fill:#a72d3e;}.cls-9{fill:#008751;}</style></defs><title>Money mouth face</title><g id="Layer_2" data-name="Layer 2"><g id="Rough"><rect class="cls-1" width="64" height="64"/><path class="cls-2" d="M49.05,2.6C44.11.75,38.89.5,34,.5H30.63C20.92.5,7.45,2,2.6,15c-2,5.42-2.14,10.94-2.09,17C.42,38.48.16,55.86,15,61.4c4.94,1.85,10.16,2.1,15.06,2.1h3.36c9.71,0,23.18-1.5,28-14.45,2-5.42,2.14-10.94,2.09-17C63.58,25.52,63.84,8.14,49.05,2.6Z"/><path class="cls-3" d="M59.49,32h0c.15-10.25-1.21-21.67-11.85-25.65C42.69,4.49,37.26,4.46,32,4.51h0C21.75,4.36,10.33,5.72,6.35,16.36,4.49,21.31,4.46,26.74,4.51,32h0C4.36,42.25,5.72,53.67,16.36,57.65c4.95,1.86,10.38,1.89,15.64,1.84h0c10.25.15,21.67-1.21,25.65-11.85C59.51,42.69,59.54,37.26,59.49,32Z"/><path class="cls-4" d="M32,54A46.35,46.35,0,0,1,6,45.79C7.48,51,10.52,55.47,16.36,57.65c4.95,1.86,10.38,1.89,15.64,1.84h0c10.25.15,21.67-1.21,25.65-11.85.25-.66.46-1.34.65-2A46.44,46.44,0,0,1,32,54Z"/><ellipse class="cls-4" cx="51" cy="39.49" rx="5.56" ry="3.55"/><ellipse class="cls-4" cx="13" cy="39.49" rx="5.56" ry="3.55"/><path class="cls-2" d="M44.61,42.51h0q-1.47-.13-3-.24A24,24,0,0,1,32,44.14a24,24,0,0,1-9.6-1.87q-1.53.1-3,.24h0A2,2,0,0,0,17.62,45,14.93,14.93,0,0,0,23,53h0a14.9,14.9,0,0,0,23.37-8A2,2,0,0,0,44.61,42.51Z"/><ellipse class="cls-4" cx="19.34" cy="15.76" rx="4.66" ry="2.79" transform="translate(-1.3 1.75) rotate(-5)"/><ellipse class="cls-4" cx="44.66" cy="15.76" rx="2.79" ry="4.66" transform="translate(25.07 58.87) rotate(-85)"/><path class="cls-5" d="M41.42,42.48H22.83v9.23a9.3,9.3,0,0,0,18.59,0V42.48Z"/><path class="cls-6" d="M32.13,58a9.59,9.59,0,0,1-9.3-6.85v.56a9.3,9.3,0,0,0,18.59,0v-.56A9.59,9.59,0,0,1,32.13,58Z"/><path class="cls-7" d="M41.6,42.27C38.53,42.06,35.32,42,32,42s-6.53.11-9.6.32A24,24,0,0,0,32,44.14,24,24,0,0,0,41.6,42.27Z"/><path class="cls-8" d="M25,31.34a3.41,3.41,0,0,0-.93-1.24,5.73,5.73,0,0,0-1.52-.91,15.71,15.71,0,0,0-2-.68h0V25.37a4.71,4.71,0,0,1,.64.19,11.28,11.28,0,0,1,2,1.09l1.73-2.5a9.08,9.08,0,0,0-2.56-1.43,8.58,8.58,0,0,0-1.8-.39V20.85H18.72v1.41a6.46,6.46,0,0,0-1.63.29,4.87,4.87,0,0,0-1.66.93,4.17,4.17,0,0,0-1.09,1.44A4.3,4.3,0,0,0,14,26.78v0a4.38,4.38,0,0,0,.36,1.88,3.55,3.55,0,0,0,1,1.26,5.76,5.76,0,0,0,1.58.85,17.11,17.11,0,0,0,1.82.56v3.34a5.4,5.4,0,0,1-1.26-.38A10,10,0,0,1,15.34,33l-2,2.36a9.08,9.08,0,0,0,3,1.82,9.92,9.92,0,0,0,2.32.5v1.47h1.76V37.73A7.48,7.48,0,0,0,22,37.46a5.15,5.15,0,0,0,1.74-.91,4.1,4.1,0,0,0,1.14-1.46,4.73,4.73,0,0,0,.4-2v0A4.21,4.21,0,0,0,25,31.34Zm-7.11-3.69a1.17,1.17,0,0,1-.65-1.12v-.05a1.16,1.16,0,0,1,.48-.94,2,2,0,0,1,1-.32V28A4.22,4.22,0,0,1,17.89,27.65ZM22,33.41a1.19,1.19,0,0,1-.57,1.05,2.27,2.27,0,0,1-1,.31V31.89h.05a6,6,0,0,1,.93.43,1.24,1.24,0,0,1,.45.47,1.26,1.26,0,0,1,.12.57Z"/><path class="cls-8" d="M50.31,31.34a3.41,3.41,0,0,0-.93-1.24,5.66,5.66,0,0,0-1.51-.91,15.38,15.38,0,0,0-2-.68h0V25.37a5.74,5.74,0,0,1,.64.19,11.28,11.28,0,0,1,2,1.09l1.72-2.5a9.08,9.08,0,0,0-2.56-1.43,8.63,8.63,0,0,0-1.79-.39V20.85H44v1.41a6.46,6.46,0,0,0-1.63.29,5,5,0,0,0-1.66.93,4.17,4.17,0,0,0-1.09,1.44,4.45,4.45,0,0,0-.38,1.86v0a4.38,4.38,0,0,0,.36,1.88,3.42,3.42,0,0,0,1,1.26,5.91,5.91,0,0,0,1.58.85,17.11,17.11,0,0,0,1.82.56v3.34a5.32,5.32,0,0,1-1.25-.38A9.81,9.81,0,0,1,40.65,33l-2,2.36a8.94,8.94,0,0,0,3,1.82,9.92,9.92,0,0,0,2.32.5v1.47H45.8V37.73a7.38,7.38,0,0,0,1.54-.27,5,5,0,0,0,1.74-.91,4,4,0,0,0,1.14-1.46,4.73,4.73,0,0,0,.41-2v0A4.21,4.21,0,0,0,50.31,31.34ZM43.2,27.65a1.34,1.34,0,0,1-.51-.49,1.39,1.39,0,0,1-.14-.63v-.05a1.14,1.14,0,0,1,.49-.94,2,2,0,0,1,1-.32V28A4.82,4.82,0,0,1,43.2,27.65Zm4.14,5.76a1.19,1.19,0,0,1-.57,1.05,2.27,2.27,0,0,1-1,.31V31.89h0a5.2,5.2,0,0,1,.93.43,1.17,1.17,0,0,1,.45.47,1.26,1.26,0,0,1,.12.57Z"/><path class="cls-9" d="M35.53,52.15A2,2,0,0,0,35,51.4a3.49,3.49,0,0,0-.91-.55,9.31,9.31,0,0,0-1.23-.41h0V48.55a2.91,2.91,0,0,1,.39.12,7.13,7.13,0,0,1,1.2.65l1-1.5A5.25,5.25,0,0,0,33.89,47a5.17,5.17,0,0,0-1.08-.24v-.89H31.75v.85a3.79,3.79,0,0,0-1,.17,3,3,0,0,0-1,.56,2.52,2.52,0,0,0-.89,2v0a2.53,2.53,0,0,0,.22,1.13,2,2,0,0,0,.6.76,3.42,3.42,0,0,0,.95.51,9,9,0,0,0,1.1.34v2A3.36,3.36,0,0,1,31,54a6.14,6.14,0,0,1-1.28-.8l-1.18,1.42a5.32,5.32,0,0,0,1.82,1.09,5.77,5.77,0,0,0,1.4.31v.88h1.06V56a3.84,3.84,0,0,0,.93-.16,2.9,2.9,0,0,0,1-.54,2.64,2.64,0,0,0,.69-.89,2.86,2.86,0,0,0,.24-1.2v0A2.44,2.44,0,0,0,35.53,52.15Zm-4.28-2.23a.73.73,0,0,1-.31-.29.92.92,0,0,1-.08-.38v0a.7.7,0,0,1,.29-.57,1.25,1.25,0,0,1,.6-.19v1.67A2,2,0,0,1,31.25,49.92Zm2.49,3.47a.73.73,0,0,1-.34.64,1.42,1.42,0,0,1-.59.18V52.48h0a2.94,2.94,0,0,1,.56.27.63.63,0,0,1,.27.27.78.78,0,0,1,.07.35Z"/></g></g></svg>