<svg xmlns="http://www.w3.org/2000/svg" xmlns:xlink="http://www.w3.org/1999/xlink" viewBox="0 0 64 64"><defs><style>.cls-1,.cls-2{fill:#1a1a1a;}.cls-1{opacity:0;}.cls-3{fill:url(#linear-gradient);}.cls-4{fill:#fdaf18;}.cls-5{fill:#ff7a6e;}.cls-6{fill:#fff;}.cls-7{fill:#39b54a;}</style><linearGradient id="linear-gradient" x1="32" y1="59.5" x2="32" y2="4.5" gradientUnits="userSpaceOnUse"><stop offset="0" stop-color="#fec92b"/><stop offset="0.1" stop-color="#fec92b"/><stop offset="1" stop-color="#65d666"/></linearGradient></defs><title>Nauseated face</title><g id="Layer_2" data-name="Layer 2"><g id="Rough"><rect class="cls-1" width="64" height="64"/><path class="cls-2" d="M49.05,2.6C44.11.75,38.89.5,34,.5H30.63C20.92.5,7.45,2,2.6,15c-2,5.42-2.14,10.94-2.09,17C.42,38.48.16,55.86,15,61.4c4.94,1.85,10.16,2.1,15.06,2.1h3.36c9.71,0,23.18-1.5,28-14.45,2-5.42,2.14-10.94,2.09-17C63.58,25.52,63.84,8.14,49.05,2.6Z"/><path class="cls-3" d="M59.49,32h0c.15-10.25-1.21-21.67-11.85-25.65C42.69,4.49,37.26,4.46,32,4.51h0C21.75,4.36,10.33,5.72,6.35,16.36,4.49,21.31,4.46,26.74,4.51,32h0C4.36,42.25,5.72,53.67,16.36,57.65c4.95,1.86,10.38,1.89,15.64,1.84h0c10.25.15,21.67-1.21,25.65-11.85C59.51,42.69,59.54,37.26,59.49,32Z"/><path class="cls-4" d="M32,54A46.35,46.35,0,0,1,6,45.79C7.48,51,10.52,55.47,16.36,57.65c4.95,1.86,10.38,1.89,15.64,1.84h0c10.25.15,21.67-1.21,25.65-11.85.25-.66.46-1.34.65-2A46.44,46.44,0,0,1,32,54Z"/><ellipse class="cls-5" cx="51" cy="39.49" rx="5.56" ry="3.55"/><ellipse class="cls-5" cx="13" cy="39.49" rx="5.56" ry="3.55"/><circle class="cls-6" cx="44.5" cy="31.37" r="7.78"/><circle class="cls-6" cx="19.5" cy="31.37" r="7.78"/><circle class="cls-2" cx="42.34" cy="31.37" r="4.52"/><circle class="cls-2" cx="21.66" cy="31.37" r="4.52"/><path class="cls-7" d="M13.62,17a20.38,20.38,0,0,0,5.63-1.13,21.07,21.07,0,0,0,2.51-1.17c.83-.46,1.63-1,2.52-1.58l.07,0a1.16,1.16,0,0,1,1.62.33,1.19,1.19,0,0,1,.12,1,8.87,8.87,0,0,1-5.48,5.19,9.19,9.19,0,0,1-7.53-.45A1.16,1.16,0,0,1,13.55,17Z"/><path class="cls-7" d="M39.72,13.15a20.51,20.51,0,0,0,5,2.75,19.94,19.94,0,0,0,2.68.72c.93.18,1.88.29,3,.41h.08a1.17,1.17,0,0,1,1,1.3,1.15,1.15,0,0,1-.56.86,8.89,8.89,0,0,1-7.53.45,9.16,9.16,0,0,1-5.48-5.19,1.16,1.16,0,0,1,1.75-1.35Z"/><path class="cls-2" d="M38.47,45.19c-2.19.18-4.32.19-6.47.21-1.07,0-2.14,0-3.22,0s-2.15-.06-3.25-.18h0a.86.86,0,0,1-.77-.95.88.88,0,0,1,.52-.7,13.69,13.69,0,0,1,3.33-.89,20.47,20.47,0,0,1,3.4-.24,22.9,22.9,0,0,1,3.4.26,15.06,15.06,0,0,1,3.32.87.84.84,0,0,1,.48,1.11A.86.86,0,0,1,38.47,45.19Z"/><path class="cls-2" d="M40.94,41.18a9.42,9.42,0,0,0-1,2.75,11.73,11.73,0,0,0,0,2.92v.08a.9.9,0,0,1-.82,1,.89.89,0,0,1-.62-.18A4.47,4.47,0,0,1,37,43.41a4.6,4.6,0,0,1,2.9-3.54.88.88,0,0,1,1.12.57.86.86,0,0,1,0,.67Z"/><path class="cls-2" d="M24.12,39.89A4.57,4.57,0,0,1,27,43.43a4.43,4.43,0,0,1-1.51,4.31.9.9,0,0,1-1.26-.17,1,1,0,0,1-.17-.62v-.08a11.32,11.32,0,0,0,0-2.92,9.19,9.19,0,0,0-1-2.75l0-.07a.88.88,0,0,1,.41-1.19A.87.87,0,0,1,24.12,39.89Z"/></g></g></svg>