<svg xmlns="http://www.w3.org/2000/svg" viewBox="0 0 64 64"><defs><style>.cls-1,.cls-2{fill:#1a1a1a;}.cls-1{opacity:0;}.cls-3{fill:#bb5938;}.cls-4{fill:#9c3d29;}.cls-5{fill:#fff;}.cls-6{fill:#e62e49;}</style></defs><title>Pile of poo</title><g id="Layer_2" data-name="Layer 2"><g id="Rough"><rect class="cls-1" width="64" height="64"/><path class="cls-2" d="M15.4,60.48A14.91,14.91,0,0,1,8.13,32.56a14,14,0,0,1-.31-2.9,13.69,13.69,0,0,1,9-12.83c1.05-3.7,3.72-8.64,10.39-12.47a6.26,6.26,0,0,1,9.29,4.31c.77,4.24,3.43,5.06,4.3,5.33,9.72,3,15.71,8.71,15.62,14.87A18.69,18.69,0,0,1,56,32.64,14.9,14.9,0,0,1,48.6,60.48Z"/><path class="cls-3" d="M51,34.93a13.75,13.75,0,0,0,1.45-6.11c.06-4.2-4.86-8.53-12.81-11-4.9-1.51-6.52-5.56-7-8.43a2.27,2.27,0,0,0-3.37-1.56c-6.87,3.94-8.6,9.07-9,12.25a9.66,9.66,0,0,0-6.87,14.79A10.9,10.9,0,0,0,15.4,56.48H48.6A10.9,10.9,0,0,0,51,34.93Z"/><path class="cls-4" d="M48.6,48.48H15.4A10.87,10.87,0,0,1,5.27,41.57,10.89,10.89,0,0,0,15.4,56.48H48.6a10.88,10.88,0,0,0,10.13-14.9A10.88,10.88,0,0,1,48.6,48.48Z"/><ellipse class="cls-4" cx="47.5" cy="39.48" rx="4.54" ry="2.9"/><ellipse class="cls-4" cx="16.5" cy="39.48" rx="4.54" ry="2.9"/><path class="cls-5" d="M21.72,41.94c2.23,1.79,6,3,10.28,3s8-1.18,10.28-3c-3.22-.29-6.68-.45-10.28-.45S24.94,41.65,21.72,41.94Z"/><path class="cls-6" d="M32.1,48.73a15.57,15.57,0,0,0-7.43,1.78,12.13,12.13,0,0,0,14.75-.06A15.58,15.58,0,0,0,32.1,48.73Z"/><path class="cls-2" d="M42.29,41.94h0c-2.23,1.79-6,3-10.28,3s-8-1.18-10.28-3h0A1.64,1.64,0,0,0,20.27,44a12.12,12.12,0,0,0,4.4,6.51h0a15.57,15.57,0,0,1,7.43-1.78,15.58,15.58,0,0,1,7.32,1.72A12.15,12.15,0,0,0,43.73,44,1.64,1.64,0,0,0,42.29,41.94Z"/><circle class="cls-5" cx="42.2" cy="32.86" r="6.35"/><circle class="cls-5" cx="21.8" cy="32.86" r="6.35"/><circle class="cls-2" cx="40.44" cy="32.86" r="3.69"/><circle class="cls-2" cx="23.56" cy="32.86" r="3.69"/></g></g></svg>