<svg xmlns="http://www.w3.org/2000/svg" viewBox="0 0 64 64"><defs><style>.cls-1,.cls-2{fill:#1a1a1a;}.cls-1{opacity:0;}.cls-3{fill:#fec92b;}.cls-4{fill:#fdaf18;}.cls-5{fill:#fff;}.cls-6{fill:#ffef80;}</style></defs><title>Shushing face</title><g id="Layer_2" data-name="Layer 2"><g id="Rough"><rect class="cls-1" width="64" height="64"/><path class="cls-2" d="M49.05,2.6C44.11.75,38.89.5,34,.5H30.63C20.92.5,7.45,2,2.6,15c-2,5.42-2.14,10.94-2.09,17C.42,38.48.16,55.86,15,61.4c4.94,1.85,10.16,2.1,15.06,2.1h3.36c9.71,0,23.18-1.5,28-14.45,2-5.42,2.14-10.94,2.09-17C63.58,25.52,63.84,8.14,49.05,2.6Z"/><path class="cls-3" d="M59.49,32h0c.15-10.25-1.21-21.67-11.85-25.65C42.69,4.49,37.26,4.46,32,4.51h0C21.75,4.36,10.33,5.72,6.35,16.36,4.49,21.31,4.46,26.74,4.51,32h0C4.36,42.25,5.72,53.67,16.36,57.65c4.95,1.86,10.38,1.89,15.64,1.84h0c10.25.15,21.67-1.21,25.65-11.85C59.51,42.69,59.54,37.26,59.49,32Z"/><path class="cls-4" d="M32,54A46.35,46.35,0,0,1,6,45.79C7.48,51,10.52,55.47,16.36,57.65c4.95,1.86,10.38,1.89,15.64,1.84h0c10.25.15,21.67-1.21,25.65-11.85.25-.66.46-1.34.65-2A46.44,46.44,0,0,1,32,54Z"/><ellipse class="cls-4" cx="51" cy="34.49" rx="5.56" ry="3.55"/><ellipse class="cls-4" cx="13" cy="34.49" rx="5.56" ry="3.55"/><circle class="cls-5" cx="44.5" cy="26.37" r="7.78"/><circle class="cls-5" cx="19.5" cy="26.37" r="7.78"/><circle class="cls-2" cx="42.34" cy="26.37" r="4.52"/><circle class="cls-2" cx="21.66" cy="26.37" r="4.52"/><ellipse class="cls-4" cx="19.34" cy="12.76" rx="4.66" ry="2.79" transform="translate(-1.04 1.73) rotate(-5)"/><ellipse class="cls-4" cx="44.66" cy="12.76" rx="2.79" ry="4.66" transform="translate(28.06 56.13) rotate(-85)"/><path class="cls-2" d="M27.46,36.7a22.53,22.53,0,0,0,4.54.51c.72,0,1.43-.07,2.17-.15s1.5-.23,2.37-.36l.12,0a1.18,1.18,0,0,1,1.35,1,1.19,1.19,0,0,1-.21.87A7.11,7.11,0,0,1,32,41.2a7.34,7.34,0,0,1-5.79-2.66,1.17,1.17,0,0,1,1.15-1.86Z"/><path class="cls-6" d="M39.36,51.33a4.34,4.34,0,0,0-2.18.09s2.65-6.23-4.68-5.91a20.63,20.63,0,0,0,2-9.38,2.17,2.17,0,0,0-4.25-.39c-.53,2.34-1.76,6.71-4,9.24A18.7,18.7,0,0,0,22,53.08a5.51,5.51,0,0,0,1.24,4.55,8.93,8.93,0,0,0,5.17,3.09,5.06,5.06,0,0,0,4.36-1.24,33.68,33.68,0,0,1,7.07-4.72A1.83,1.83,0,0,0,39.36,51.33Z"/></g></g></svg>