<svg xmlns="http://www.w3.org/2000/svg" viewBox="0 0 64 64"><defs><style>.cls-1,.cls-2{fill:#1a1a1a;}.cls-1{opacity:0;}.cls-3{fill:#d3dee3;}.cls-4{fill:#fff;}.cls-5{fill:#abc0c9;}</style></defs><title>Skull</title><g id="Layer_2" data-name="Layer 2"><g id="Rough"><rect class="cls-1" width="64" height="64"/><path class="cls-2" d="M33.33,63.5H30.16a57.91,57.91,0,0,1-9.7-.66,6.48,6.48,0,0,1-5.35-6A7.86,7.86,0,0,0,14,53a8.93,8.93,0,0,0-4.75-3.14A12.58,12.58,0,0,1,.73,39.11a69.62,69.62,0,0,1-.22-7.17c0-6.05.07-11.57,2.09-17C7.45,2,20.92.5,30.63.5H34c4.9,0,10.12.25,15.06,2.1C63.84,8.14,63.58,25.52,63.49,32.06c0,1.95,0,4.33-.12,6.68A12.62,12.62,0,0,1,54.82,49.9c-2.34.8-4,1.86-4.78,3.15a7.75,7.75,0,0,0-1.14,3.79,6.46,6.46,0,0,1-5.23,5.82,56.06,56.06,0,0,1-10.34.84Z"/><path class="cls-3" d="M46.68,50.87a12.77,12.77,0,0,1,6.84-4.75,8.64,8.64,0,0,0,5.86-7.62c.13-2.17.13-4.35.11-6.5h0c.15-10.25-1.21-21.67-11.85-25.65C42.69,4.49,37.26,4.46,32,4.51h0C21.75,4.36,10.33,5.72,6.35,16.36,4.49,21.31,4.46,26.74,4.51,32h0c0,2.23,0,4.52.2,6.77a8.54,8.54,0,0,0,5.8,7.3,12.75,12.75,0,0,1,6.81,4.73,12,12,0,0,1,1.78,5.8,2.46,2.46,0,0,0,2,2.29,61.56,61.56,0,0,0,10.86.6h0a55.42,55.42,0,0,0,10.93-.76,2.46,2.46,0,0,0,2-2.21A11.71,11.71,0,0,1,46.68,50.87Z"/><path class="cls-4" d="M59.31,25.6c-.63-8.24-3.22-16.09-11.67-19.25C42.69,4.49,37.26,4.46,32,4.51h0C21.75,4.36,10.33,5.72,6.35,16.36a30.66,30.66,0,0,0-1.71,8.81c5.29,8.08,15.62,13.57,27.49,13.57C43.78,38.74,53.94,33.44,59.31,25.6Z"/><ellipse class="cls-2" cx="43.79" cy="33.15" rx="8.57" ry="9.88" transform="translate(-10.61 40.67) rotate(-45)"/><ellipse class="cls-2" cx="20.2" cy="33.15" rx="9.88" ry="8.57" transform="translate(-17.52 23.99) rotate(-45)"/><path class="cls-2" d="M35.57,46.37C35.57,48.83,34,49,32,49s-3.57-.14-3.57-2.6S30,41,32,41,35.57,43.91,35.57,46.37Z"/><path class="cls-5" d="M37.5,53.36c-1.13,0-2,3.69-2.1,6.1,1.4,0,2.8-.12,4.19-.27C39.48,56.86,38.59,53.36,37.5,53.36Z"/><path class="cls-5" d="M26.5,53.36c-1.1,0-2,3.57-2.1,5.93,1.4.11,2.8.17,4.2.19C28.55,57.07,27.63,53.36,26.5,53.36Z"/></g></g></svg>