<svg xmlns="http://www.w3.org/2000/svg" viewBox="0 0 64 64"><defs><style>.cls-1,.cls-2{fill:#1a1a1a;}.cls-1{opacity:0;}.cls-3{fill:#fec92b;}.cls-4{fill:#fdaf18;}.cls-5{fill:#fff;}.cls-6{fill:#1778ff;}.cls-7{fill:#37b9ff;}</style></defs><title>Smiling face with tear</title><g id="Layer_2" data-name="Layer 2"><g id="Rough"><rect class="cls-1" width="64" height="64"/><path class="cls-2" d="M49.05,2.6C44.11.75,38.89.5,34,.5H30.63C20.92.5,7.45,2,2.6,15c-2,5.42-2.14,10.94-2.09,17C.42,38.48.16,55.86,15,61.4c4.94,1.85,10.16,2.1,15.06,2.1h3.36c9.71,0,23.18-1.5,28-14.45,2-5.42,2.14-10.94,2.09-17C63.58,25.52,63.84,8.14,49.05,2.6Z"/><path class="cls-3" d="M59.49,32h0c.15-10.25-1.21-21.67-11.85-25.65C42.69,4.49,37.26,4.46,32,4.51h0C21.75,4.36,10.33,5.72,6.35,16.36,4.49,21.31,4.46,26.74,4.51,32h0C4.36,42.25,5.72,53.67,16.36,57.65c4.95,1.86,10.38,1.89,15.64,1.84h0c10.25.15,21.67-1.21,25.65-11.85C59.51,42.69,59.54,37.26,59.49,32Z"/><path class="cls-4" d="M32,54A46.35,46.35,0,0,1,6,45.79C7.48,51,10.52,55.47,16.36,57.65c4.95,1.86,10.38,1.89,15.64,1.84h0c10.25.15,21.67-1.21,25.65-11.85.25-.66.46-1.34.65-2A46.44,46.44,0,0,1,32,54Z"/><ellipse class="cls-4" cx="51" cy="39.49" rx="5.56" ry="3.55"/><ellipse class="cls-4" cx="13" cy="39.49" rx="5.56" ry="3.55"/><path class="cls-2" d="M26.24,43.51a20.43,20.43,0,0,0,5.76.88,18.9,18.9,0,0,0,2.8-.24c1-.15,1.9-.38,3-.64l.08,0A1.16,1.16,0,0,1,39,45.36a9,9,0,0,1-7,3,9.33,9.33,0,0,1-7-3,1.16,1.16,0,0,1,.13-1.63,1.18,1.18,0,0,1,1.06-.24Z"/><ellipse class="cls-4" cx="19.34" cy="15.76" rx="4.66" ry="2.79" transform="translate(-1.3 1.75) rotate(-5)"/><ellipse class="cls-4" cx="44.66" cy="15.76" rx="2.79" ry="4.66" transform="translate(25.07 58.87) rotate(-85)"/><circle class="cls-5" cx="44.5" cy="31.37" r="7.78"/><circle class="cls-5" cx="19.5" cy="31.37" r="7.78"/><circle class="cls-2" cx="42.34" cy="31.37" r="4.52"/><circle class="cls-2" cx="21.66" cy="31.37" r="4.52"/><path class="cls-6" d="M50.74,47.31a5.24,5.24,0,1,1-10.48,0c0-2.89,2.34-9.61,5.24-9.61S50.74,44.42,50.74,47.31Z"/><path class="cls-7" d="M49.6,42.35c-1-2.43-2.44-4.65-4.1-4.65s-3.14,2.22-4.1,4.65a8,8,0,0,0-.16,1.42,4.26,4.26,0,1,0,8.52,0A8,8,0,0,0,49.6,42.35Z"/></g></g></svg>