<svg xmlns="http://www.w3.org/2000/svg" viewBox="0 0 64 64"><defs><style>.cls-1,.cls-2{fill:#1a1a1a;}.cls-1{opacity:0;}.cls-3{fill:#fec92b;}.cls-4{fill:#fdaf18;}.cls-5{fill:#fc9504;}.cls-6{fill:#c62d43;}.cls-7{fill:#fff;}</style></defs><title>Tired face</title><g id="Layer_2" data-name="Layer 2"><g id="Rough"><rect class="cls-1" width="64" height="64"/><path class="cls-2" d="M49.05,2.6C44.11.75,38.89.5,34,.5H30.63C20.92.5,7.45,2,2.6,15c-2,5.42-2.14,10.94-2.09,17C.42,38.48.16,55.86,15,61.4c4.94,1.85,10.16,2.1,15.06,2.1h3.36c9.71,0,23.18-1.5,28-14.45,2-5.42,2.14-10.94,2.09-17C63.58,25.52,63.84,8.14,49.05,2.6Z"/><path class="cls-3" d="M59.49,32h0c.15-10.25-1.21-21.67-11.85-25.65C42.69,4.49,37.26,4.46,32,4.51h0C21.75,4.36,10.33,5.72,6.35,16.36,4.49,21.31,4.46,26.74,4.51,32h0C4.36,42.25,5.72,53.67,16.36,57.65c4.95,1.86,10.38,1.89,15.64,1.84h0c10.25.15,21.67-1.21,25.65-11.85C59.51,42.69,59.54,37.26,59.49,32Z"/><path class="cls-4" d="M32,54A46.35,46.35,0,0,1,6,45.79C7.48,51,10.52,55.47,16.36,57.65c4.95,1.86,10.38,1.89,15.64,1.84h0c10.25.15,21.67-1.21,25.65-11.85.25-.66.46-1.34.65-2A46.44,46.44,0,0,1,32,54Z"/><ellipse class="cls-4" cx="51" cy="39.49" rx="5.56" ry="3.55"/><ellipse class="cls-4" cx="13" cy="39.49" rx="5.56" ry="3.55"/><path class="cls-2" d="M48.85,38.26a13.48,13.48,0,0,0-2.25-1.12,15.36,15.36,0,0,0-2.47-.77A15.76,15.76,0,0,0,41.59,36,18.1,18.1,0,0,0,39,36h-.12a2,2,0,0,1-2-2,1.92,1.92,0,0,1,.39-1.15,6.21,6.21,0,0,1,.69-.81c.22-.24.45-.44.68-.66a13.64,13.64,0,0,1,4.71-2.68,14,14,0,0,1,3.48-.64,16.5,16.5,0,0,1,3.45.16,1.36,1.36,0,0,1-.2,2.7h-.09a14,14,0,0,0-2.83.16,10.49,10.49,0,0,0-2.63.76,9.9,9.9,0,0,0-2.27,1.4,10.17,10.17,0,0,0-1,.9,6.26,6.26,0,0,0-.41.49,3.78,3.78,0,0,0-.29.41L39,32a21.36,21.36,0,0,1,3.09.37,20.2,20.2,0,0,1,3,.82,19,19,0,0,1,2.81,1.24,16.44,16.44,0,0,1,2.64,1.74A1.36,1.36,0,0,1,49,38.32Z"/><path class="cls-2" d="M13.46,36.13a16.44,16.44,0,0,1,2.64-1.74,19,19,0,0,1,2.81-1.24,20.2,20.2,0,0,1,3-.82A21.36,21.36,0,0,1,25,32L23.3,35.05a3.78,3.78,0,0,0-.29-.41,6.26,6.26,0,0,0-.41-.49,10.17,10.17,0,0,0-1-.9,9.9,9.9,0,0,0-2.27-1.4,10.49,10.49,0,0,0-2.63-.76,14,14,0,0,0-2.83-.16h-.08a1.36,1.36,0,0,1-.21-2.7,16.5,16.5,0,0,1,3.45-.16,14,14,0,0,1,3.48.64,13.64,13.64,0,0,1,4.71,2.68c.23.22.46.42.68.66a6.21,6.21,0,0,1,.69.81A1.95,1.95,0,0,1,25.09,36H25a18.1,18.1,0,0,0-2.55,0,15.76,15.76,0,0,0-2.54.39,15.36,15.36,0,0,0-2.47.77,13.48,13.48,0,0,0-2.25,1.12l-.1.06a1.36,1.36,0,0,1-1.59-2.19Z"/><path class="cls-5" d="M13.62,17a20.38,20.38,0,0,0,5.63-1.13,21.07,21.07,0,0,0,2.51-1.17c.83-.46,1.63-1,2.52-1.58l.07,0a1.16,1.16,0,0,1,1.62.33,1.19,1.19,0,0,1,.12,1,8.87,8.87,0,0,1-5.48,5.19,9.19,9.19,0,0,1-7.53-.45A1.16,1.16,0,0,1,13.55,17Z"/><path class="cls-5" d="M39.72,13.15a20.51,20.51,0,0,0,5,2.75,19.94,19.94,0,0,0,2.68.72c.93.18,1.88.29,3,.41h.08a1.17,1.17,0,0,1,1,1.3,1.15,1.15,0,0,1-.56.86,8.89,8.89,0,0,1-7.53.45,9.16,9.16,0,0,1-5.48-5.19,1.16,1.16,0,0,1,1.75-1.35Z"/><path class="cls-2" d="M22.58,43.36a12.25,12.25,0,0,0-4.06,5.37,3.71,3.71,0,0,0-.15,2,3.67,3.67,0,0,0,4.18,2.91,12.34,12.34,0,0,1,2.82-3.27A10.28,10.28,0,0,1,32,48a10.68,10.68,0,0,1,6.61,2.45,13.05,13.05,0,0,1,2.8,3.21,3.6,3.6,0,0,0,2-.18,3.65,3.65,0,0,0,2-4.73,12.81,12.81,0,0,0-4.1-5.29,77.24,77.24,0,0,1-9.33.51A79.33,79.33,0,0,1,22.58,43.36Z"/><path class="cls-6" d="M38.61,50.43A10.68,10.68,0,0,0,32,48a10.28,10.28,0,0,0-6.63,2.38,12.34,12.34,0,0,0-2.82,3.27l.15,0,.51-.1c2.05-.41,3.63-.78,5-1A31.74,31.74,0,0,1,32,52.18a21.44,21.44,0,0,1,3.79.26c1.42.2,3,.61,5,1.07l.48.11.14,0A13.05,13.05,0,0,0,38.61,50.43Z"/><path class="cls-7" d="M32,40.2a15.1,15.1,0,0,0-8.34,2.38c-.37.24-.73.51-1.08.78a79.33,79.33,0,0,0,9.47.59,77.24,77.24,0,0,0,9.33-.51,12.49,12.49,0,0,0-1.08-.79A15.59,15.59,0,0,0,32,40.2Z"/></g></g></svg>