<svg xmlns="http://www.w3.org/2000/svg" viewBox="0 0 64 64"><defs><style>.cls-1,.cls-2{fill:#1a1a1a;}.cls-1{opacity:0;}.cls-3{fill:#fec92b;}.cls-4{fill:#fdaf18;}.cls-5{fill:#fff;}</style></defs><title>Upside-down face</title><g id="Layer_2" data-name="Layer 2"><g id="Rough"><rect class="cls-1" width="64" height="64"/><path class="cls-2" d="M15,61.4c4.94,1.85,10.16,2.1,15.07,2.1h3.35c9.71,0,23.18-1.5,28-14.45,2-5.42,2.14-10.94,2.09-17,.09-6.54.35-23.92-14.44-29.46C44.11.75,38.89.5,34,.5H30.63C20.92.5,7.45,2,2.6,15c-2,5.42-2.14,10.94-2.09,17C.42,38.48.16,55.86,15,61.4Z"/><path class="cls-3" d="M59.49,32h0c.15-10.25-1.21-21.67-11.85-25.65C42.69,4.49,37.26,4.46,32,4.51h0C21.75,4.36,10.33,5.72,6.35,16.36,4.49,21.31,4.46,26.74,4.51,32h0C4.36,42.25,5.72,53.67,16.36,57.65c4.95,1.86,10.38,1.89,15.64,1.84h0c10.25.15,21.67-1.21,25.65-11.85C59.51,42.69,59.54,37.26,59.49,32Z"/><path class="cls-4" d="M32,54A46.35,46.35,0,0,1,6,45.79C7.48,51,10.52,55.47,16.36,57.65c4.95,1.86,10.38,1.89,15.64,1.84h0c10.25.15,21.67-1.21,25.65-11.85.25-.66.46-1.34.65-2A46.44,46.44,0,0,1,32,54Z"/><ellipse class="cls-4" cx="13" cy="24.51" rx="5.56" ry="3.55"/><ellipse class="cls-4" cx="51" cy="24.51" rx="5.56" ry="3.55"/><circle class="cls-5" cx="19.5" cy="32.63" r="7.78"/><circle class="cls-5" cx="44.5" cy="32.63" r="7.78"/><circle class="cls-2" cx="21.66" cy="32.63" r="4.52"/><circle class="cls-2" cx="42.34" cy="32.63" r="4.52"/><path class="cls-2" d="M40.29,20.88a27.17,27.17,0,0,0-4.15-1.25A20,20,0,0,0,32,19.22a20.63,20.63,0,0,0-4.13.44,32.28,32.28,0,0,0-4.16,1.22h0a1.16,1.16,0,0,1-1.47-.69A1.18,1.18,0,0,1,22.46,19a11.68,11.68,0,0,1,4.34-2.85,14,14,0,0,1,5.2-.95A13.5,13.5,0,0,1,41.54,19a1.14,1.14,0,0,1,0,1.61,1.12,1.12,0,0,1-1.19.25Z"/><ellipse class="cls-4" cx="44.66" cy="45.24" rx="4.66" ry="2.79" transform="translate(-3.77 4.06) rotate(-5)"/><ellipse class="cls-4" cx="19.34" cy="45.24" rx="2.79" ry="4.66" transform="translate(-27.41 60.57) rotate(-85)"/></g></g></svg>