<svg xmlns="http://www.w3.org/2000/svg" viewBox="0 0 64 64"><defs><style>.cls-1,.cls-2{fill:#1a1a1a;}.cls-1{opacity:0;}.cls-3{fill:#fec92b;}.cls-4{fill:#fdaf18;}.cls-5{fill:#fc9504;}.cls-6{fill:#c62d43;}.cls-7{fill:#fff;}</style></defs><title>Weary face</title><g id="Layer_2" data-name="Layer 2"><g id="Rough"><rect class="cls-1" width="64" height="64"/><path class="cls-2" d="M49.05,2.6C44.11.75,38.89.5,34,.5H30.63C20.92.5,7.45,2,2.6,15c-2,5.42-2.14,10.94-2.09,17C.42,38.48.16,55.86,15,61.4c4.94,1.85,10.16,2.1,15.06,2.1h3.36c9.71,0,23.18-1.5,28-14.45,2-5.42,2.14-10.94,2.09-17C63.58,25.52,63.84,8.14,49.05,2.6Z"/><path class="cls-3" d="M59.49,32h0c.15-10.25-1.21-21.67-11.85-25.65C42.69,4.49,37.26,4.46,32,4.51h0C21.75,4.36,10.33,5.72,6.35,16.36,4.49,21.31,4.46,26.74,4.51,32h0C4.36,42.25,5.72,53.67,16.36,57.65c4.95,1.86,10.38,1.89,15.64,1.84h0c10.25.15,21.67-1.21,25.65-11.85C59.51,42.69,59.54,37.26,59.49,32Z"/><path class="cls-4" d="M32,54A46.35,46.35,0,0,1,6,45.79C7.48,51,10.52,55.47,16.36,57.65c4.95,1.86,10.38,1.89,15.64,1.84h0c10.25.15,21.67-1.21,25.65-11.85.25-.66.46-1.34.65-2A46.44,46.44,0,0,1,32,54Z"/><path class="cls-5" d="M13.62,17a20.38,20.38,0,0,0,5.63-1.13,21.07,21.07,0,0,0,2.51-1.17c.83-.46,1.63-1,2.52-1.58l.07,0a1.16,1.16,0,0,1,1.62.33,1.19,1.19,0,0,1,.12,1,8.87,8.87,0,0,1-5.48,5.19,9.19,9.19,0,0,1-7.53-.45A1.16,1.16,0,0,1,13.55,17Z"/><path class="cls-5" d="M39.72,13.15a20.51,20.51,0,0,0,5,2.75,19.94,19.94,0,0,0,2.68.72c.93.18,1.88.29,3,.41h.08a1.17,1.17,0,0,1,1,1.3,1.15,1.15,0,0,1-.56.86,8.89,8.89,0,0,1-7.53.45,9.16,9.16,0,0,1-5.48-5.19,1.16,1.16,0,0,1,1.75-1.35Z"/><path class="cls-6" d="M32,46.07a11.56,11.56,0,0,0-6.06,1.62,11.22,11.22,0,0,0-3.83,3.74,3.5,3.5,0,0,0,.86,0l.39,0c1.83-.2,3.29-.43,4.68-.57s2.66-.22,4-.24a31.94,31.94,0,0,1,4,.18c1.4.13,2.87.38,4.66.63l.39.06a3,3,0,0,0,.84,0A11.9,11.9,0,0,0,32,46.07Z"/><path class="cls-2" d="M39.87,42.83a46,46,0,0,1-7.91.65,46.46,46.46,0,0,1-7.88-.69A11.39,11.39,0,0,0,20,47a3,3,0,0,0,2.15,4.43,11.22,11.22,0,0,1,3.83-3.74A11.56,11.56,0,0,1,32,46.07a11.9,11.9,0,0,1,9.87,5.4A3,3,0,0,0,44,47,12,12,0,0,0,39.87,42.83Z"/><path class="cls-7" d="M39.87,42.83A15.31,15.31,0,0,0,32,40.62a15,15,0,0,0-7,1.63c-.32.17-.64.35-.94.54a46.46,46.46,0,0,0,7.88.69A46,46,0,0,0,39.87,42.83Z"/><ellipse class="cls-4" cx="51" cy="39.49" rx="5.56" ry="3.55"/><ellipse class="cls-4" cx="13" cy="39.49" rx="5.56" ry="3.55"/><path class="cls-2" d="M14.67,31.74a19.25,19.25,0,0,0,3,.57,9.68,9.68,0,0,0,2.7-.1A10.76,10.76,0,0,0,23,31.36a23,23,0,0,0,2.64-1.55l.05,0a1.16,1.16,0,0,1,1.61.34,1.14,1.14,0,0,1,.11,1A7.54,7.54,0,0,1,25,34.4a8.38,8.38,0,0,1-3.87,1.74,8.68,8.68,0,0,1-4.24-.33,8,8,0,0,1-3.38-2.2,1.16,1.16,0,0,1,1.14-1.89Z"/><path class="cls-2" d="M38.41,29.81A18.76,18.76,0,0,0,41,31.38a9.58,9.58,0,0,0,2.58.83,11,11,0,0,0,2.7.08,23.91,23.91,0,0,0,3-.55l.06,0a1.17,1.17,0,0,1,1.4.88,1.2,1.2,0,0,1-.25,1,7.8,7.8,0,0,1-3.38,2.23,8.44,8.44,0,0,1-4.24.3,8.58,8.58,0,0,1-3.86-1.76,8,8,0,0,1-2.42-3.22,1.15,1.15,0,0,1,.65-1.5,1.16,1.16,0,0,1,1.06.11Z"/></g></g></svg>