<svg xmlns="http://www.w3.org/2000/svg" viewBox="0 0 64 64"><defs><style>.cls-1,.cls-2{fill:#1a1a1a;}.cls-1{opacity:0;}.cls-3{fill:#fec92b;}.cls-4{fill:#fdaf18;}.cls-5{fill:#fff;}.cls-6{fill:#ff608a;}.cls-7{fill:#ee4572;}</style></defs><title>Winking face with tongue</title><g id="Layer_2" data-name="Layer 2"><g id="Rough"><rect class="cls-1" width="64" height="64"/><path class="cls-2" d="M49.05,2.6C44.11.75,38.89.5,34,.5H30.63C20.92.5,7.45,2,2.6,15c-2,5.42-2.14,10.94-2.09,17C.42,38.48.16,55.86,15,61.4c4.94,1.85,10.16,2.1,15.06,2.1h3.36c9.71,0,23.18-1.5,28-14.45,2-5.42,2.14-10.94,2.09-17C63.58,25.52,63.84,8.14,49.05,2.6Z"/><path class="cls-3" d="M59.49,32h0c.15-10.25-1.21-21.67-11.85-25.65C42.69,4.49,37.26,4.46,32,4.51h0C21.75,4.36,10.33,5.72,6.35,16.36,4.49,21.31,4.46,26.74,4.51,32h0C4.36,42.25,5.72,53.67,16.36,57.65c4.95,1.86,10.38,1.89,15.64,1.84h0c10.25.15,21.67-1.21,25.65-11.85C59.51,42.69,59.54,37.26,59.49,32Z"/><path class="cls-4" d="M32,54A46.35,46.35,0,0,1,6,45.79C7.48,51,10.52,55.47,16.36,57.65c4.95,1.86,10.38,1.89,15.64,1.84h0c10.25.15,21.67-1.21,25.65-11.85.25-.66.46-1.34.65-2A46.44,46.44,0,0,1,32,54Z"/><ellipse class="cls-4" cx="51" cy="39.49" rx="5.56" ry="3.55"/><ellipse class="cls-4" cx="13" cy="39.49" rx="5.56" ry="3.55"/><circle class="cls-5" cx="44.5" cy="31.37" r="7.78"/><circle class="cls-2" cx="43.34" cy="31.37" r="4.52"/><ellipse class="cls-4" cx="44.66" cy="15.76" rx="2.79" ry="4.66" transform="translate(25.07 58.87) rotate(-85)"/><path class="cls-2" d="M44.61,42.51h0q-1.47-.13-3-.24A24,24,0,0,1,32,44.14a24,24,0,0,1-9.6-1.87q-1.53.1-3,.24h0A2,2,0,0,0,17.62,45,14.93,14.93,0,0,0,23,53h0a14.9,14.9,0,0,0,23.37-8A2,2,0,0,0,44.61,42.51Z"/><path class="cls-5" d="M41.6,42.27C38.53,42.06,35.32,42,32,42s-6.53.11-9.6.32A24,24,0,0,0,32,44.14,24,24,0,0,0,41.6,42.27Z"/><path class="cls-6" d="M41.42,48.48c0-1.22-4.16-2.21-9.29-2.21s-9.29,1-9.3,2.21h0v3.23a9.3,9.3,0,0,0,18.59,0V48.48Z"/><path class="cls-7" d="M32.13,58a9.59,9.59,0,0,1-9.3-6.85v.56a9.3,9.3,0,0,0,18.59,0v-.56A9.59,9.59,0,0,1,32.13,58Z"/><path class="cls-7" d="M32.13,46.27c-.49,0-1,0-1.43,0,.28,4.08.81,6.85,1.43,6.85s1.14-2.77,1.42-6.85C33.08,46.28,32.61,46.27,32.13,46.27Z"/><path class="cls-2" d="M26.32,32.36A20.65,20.65,0,0,0,20.59,32a18.37,18.37,0,0,0-2.73.48c-.92.23-1.83.53-2.85.87l-.08,0a1.16,1.16,0,0,1-1.47-.74,1.21,1.21,0,0,1,.14-1A8.92,8.92,0,0,1,20.24,28a9.21,9.21,0,0,1,7.16,2.39,1.16,1.16,0,0,1,0,1.64,1.13,1.13,0,0,1-1,.32Z"/><ellipse class="cls-4" cx="16.34" cy="22.76" rx="4.66" ry="2.79" transform="matrix(0.97, -0.26, 0.26, 0.97, -5.33, 5.01)"/></g></g></svg>