<svg xmlns="http://www.w3.org/2000/svg" viewBox="0 0 64 64"><defs><style>.cls-1,.cls-2{fill:#1a1a1a;}.cls-1{opacity:0;}.cls-3{fill:#fec92b;}.cls-4{fill:#fdaf18;}.cls-5{fill:#fc9504;}.cls-6{fill:#ffef80;}</style></defs><title>Yawning face</title><g id="Layer_2" data-name="Layer 2"><g id="Rough"><rect class="cls-1" width="64" height="64"/><path class="cls-2" d="M49.05,2.6C44.11.75,38.89.5,34,.5H30.63C20.92.5,7.45,2,2.6,15c-2,5.42-2.14,10.94-2.09,17C.42,38.48.16,55.86,15,61.4c4.94,1.85,10.16,2.1,15.06,2.1h3.36c9.71,0,23.18-1.5,28-14.45,2-5.42,2.14-10.94,2.09-17C63.58,25.52,63.84,8.14,49.05,2.6Z"/><path class="cls-3" d="M59.49,32h0c.15-10.25-1.21-21.67-11.85-25.65C42.69,4.49,37.26,4.46,32,4.51h0C21.75,4.36,10.33,5.72,6.35,16.36,4.49,21.31,4.46,26.74,4.51,32h0C4.36,42.25,5.72,53.67,16.36,57.65c4.95,1.86,10.38,1.89,15.64,1.84h0c10.25.15,21.67-1.21,25.65-11.85C59.51,42.69,59.54,37.26,59.49,32Z"/><path class="cls-4" d="M32,54A46.35,46.35,0,0,1,6,45.79C7.48,51,10.52,55.47,16.36,57.65c4.95,1.86,10.38,1.89,15.64,1.84h0c10.25.15,21.67-1.21,25.65-11.85.25-.66.46-1.34.65-2A46.44,46.44,0,0,1,32,54Z"/><ellipse class="cls-4" cx="51" cy="34.49" rx="5.56" ry="3.55"/><ellipse class="cls-4" cx="13" cy="34.49" rx="5.56" ry="3.55"/><path class="cls-5" d="M23.58,16.7A20.59,20.59,0,0,0,18,17.84,17.8,17.8,0,0,0,15.44,19c-.83.45-1.63,1-2.53,1.57l-.07.05a1.17,1.17,0,0,1-1.61-.33,1.2,1.2,0,0,1-.13-1,8.9,8.9,0,0,1,5.49-5.2,9.15,9.15,0,0,1,7.53.46,1.15,1.15,0,0,1,.43,1.58,1.19,1.19,0,0,1-.9.58Z"/><path class="cls-5" d="M51.09,20.58a20.52,20.52,0,0,0-5-2.74,18.22,18.22,0,0,0-2.68-.72c-.92-.19-1.88-.29-2.95-.42h-.08a1.16,1.16,0,0,1-.46-2.15,8.89,8.89,0,0,1,7.53-.46,9.22,9.22,0,0,1,5.49,5.2,1.16,1.16,0,0,1-1.75,1.35Z"/><path class="cls-2" d="M26.32,27.36A20.65,20.65,0,0,0,20.59,27a18.37,18.37,0,0,0-2.73.48c-.92.23-1.83.53-2.85.87l-.08,0a1.16,1.16,0,0,1-1.47-.74,1.21,1.21,0,0,1,.14-1A8.92,8.92,0,0,1,20.24,23a9.21,9.21,0,0,1,7.16,2.39,1.16,1.16,0,0,1,0,1.64,1.13,1.13,0,0,1-1,.32Z"/><path class="cls-2" d="M49,28.35A20.31,20.31,0,0,0,43.41,27a18.29,18.29,0,0,0-2.77,0c-.94.06-1.9.21-3,.36H37.6a1.15,1.15,0,0,1-1.32-1,1.19,1.19,0,0,1,.32-1A8.87,8.87,0,0,1,43.76,23a9.17,9.17,0,0,1,6.64,3.6,1.17,1.17,0,0,1-1.35,1.76Z"/><path class="cls-2" d="M43.36,45.06c0,6.27-5.09,10.43-11.36,10.43S20.64,51.33,20.64,45.06,25.73,32.77,32,32.77,43.36,38.78,43.36,45.06Z"/><path class="cls-6" d="M42.7,50.37A2,2,0,0,0,40,49.59l-5.14,2.68,6.56-5a2,2,0,0,0,.44-2.81A2,2,0,0,0,39,44l-6.1,4.68,5.88-6.54a2,2,0,0,0-.08-2.84,2,2,0,0,0-2.85.12l-5.67,6.31,3.35-5.47a2,2,0,0,0-.6-2.78,2,2,0,0,0-2.78.64l-2.44,4a11.79,11.79,0,0,1-3.09,3.36h0A.88.88,0,0,1,23.26,45h0a.82.82,0,0,1,0-.41l.72-3.7a2,2,0,0,0-1.52-2.4,2,2,0,0,0-2.38,1.57l-1.93,9.82a11.43,11.43,0,0,0-.3,1.15A3.62,3.62,0,0,0,18.45,54l3.71,5.07a3.62,3.62,0,0,0,3.7,1.4A25.42,25.42,0,0,0,32.61,58l9.27-4.85A2,2,0,0,0,42.7,50.37Z"/></g></g></svg>