<svg xmlns="http://www.w3.org/2000/svg" viewBox="0 0 64 64"><defs><style>.cls-1,.cls-2{fill:#1a1a1a;}.cls-1{opacity:0;}.cls-3{fill:#fec92b;}.cls-4{fill:#fdaf18;}.cls-5{fill:#ff608a;}.cls-6{fill:#ee4572;}.cls-7{fill:#fff;}</style></defs><title>Zany face</title><g id="Layer_2" data-name="Layer 2"><g id="Rough"><rect class="cls-1" width="64" height="64"/><path class="cls-2" d="M32.31,63.5c-8.51,0-15.47-6-20.58-11.31C7.84,48.37,4.39,44.77,2.22,40c-6-13.13,5.33-24.13,9.59-28.26C15.63,7.84,19.23,4.39,24,2.22A18.41,18.41,0,0,1,31.69.5c8.51,0,15.47,6,20.58,11.31,3.89,3.82,7.34,7.42,9.51,12.2,6,13.13-5.33,24.13-9.59,28.26-3.82,3.89-7.42,7.34-12.2,9.51A18.41,18.41,0,0,1,32.31,63.5Z"/><path class="cls-3" d="M49.4,14.6h0C43,8,34.92,1.64,25.66,5.86c-4.31,2-7.76,5.37-11.06,8.74h0C8,21,1.64,29.08,5.86,38.34c2,4.31,5.37,7.76,8.74,11.06h0C21,56,29.08,62.36,38.34,58.14c4.31-2,7.76-5.37,11.06-8.74h0C56,43,62.36,34.92,58.14,25.66,56.18,21.35,52.77,17.9,49.4,14.6Z"/><path class="cls-4" d="M45.91,45.91A41.48,41.48,0,0,1,24.24,57.22c4.29,2.35,9,3.24,14.1.92,4.31-2,7.76-5.37,11.06-8.74h0C56,43,62.36,34.92,58.14,25.66A18,18,0,0,0,57.27,24,41.6,41.6,0,0,1,45.91,45.91Z"/><ellipse class="cls-4" cx="48.77" cy="24.71" rx="4.98" ry="3.18" transform="translate(-3.19 41.73) rotate(-45)"/><ellipse class="cls-4" cx="24.71" cy="48.77" rx="4.98" ry="3.18" transform="translate(-27.25 31.76) rotate(-45)"/><polygon class="cls-2" points="30.67 46.63 30.67 46.63 30.67 46.63 30.67 46.63"/><path class="cls-2" d="M49.35,31.14a1.8,1.8,0,0,0-2.71-.47h0c-.34,3.12-2.36,7-5.68,10.28s-7.16,5.34-10.28,5.68h0a1.8,1.8,0,0,0,.47,2.71A13.36,13.36,0,0,0,39.61,51h0a13.33,13.33,0,0,0,9.74-19.85Z"/><ellipse class="cls-4" cx="15.06" cy="31.97" rx="4.17" ry="2.5" transform="translate(-20.15 29.03) rotate(-60)"/><ellipse class="cls-4" cx="27.97" cy="11.06" rx="4.17" ry="2.5" transform="translate(-1.78 15.47) rotate(-30)"/><path class="cls-5" d="M45.09,35.33l-9.76,9.76h0L40.2,50A6.9,6.9,0,0,0,50,40.2l-4.87-4.87Z"/><path class="cls-6" d="M48.38,48.38a7.11,7.11,0,0,1-8.47,1.28l.29.3A6.9,6.9,0,0,0,50,40.2l-.3-.29A7.11,7.11,0,0,1,48.38,48.38Z"/><path class="cls-6" d="M40.21,40.21c-.26.25-.5.51-.73.76,2.29,2,4,3.17,4.34,2.85s-.85-2-2.85-4.34C40.72,39.71,40.46,40,40.21,40.21Z"/><path class="cls-7" d="M30.67,46.63c3.12-.34,7-2.36,10.28-5.68s5.34-7.16,5.68-10.28c-2.73,2.27-5.54,4.83-8.33,7.63S32.94,43.9,30.67,46.63Z"/><circle class="cls-7" cx="37.04" cy="23.07" r="9.56"/><circle class="cls-2" cx="38.46" cy="23.07" r="5.56"/><circle class="cls-7" cx="22.86" cy="40.15" r="6.67"/><circle class="cls-2" cx="21.87" cy="40.15" r="3.87"/></g></g></svg>